M48
; DRILL file {KiCad (6.0.2)} date Sat Mar 12 22:50:11 2022
; FORMAT={-:-/ absolute / metric / decimal}
; #@! TF.CreationDate,2022-03-12T22:50:11+09:00
; #@! TF.GenerationSoftware,Kicad,Pcbnew,(6.0.2)
; #@! TF.FileFunction,Plated,1,2,PTH
FMAT,2
METRIC
; #@! TA.AperFunction,Plated,PTH,ViaDrill
T1C0.400
; #@! TA.AperFunction,Plated,PTH,ComponentDrill
T2C0.600
; #@! TA.AperFunction,Plated,PTH,ComponentDrill
T3C0.800
; #@! TA.AperFunction,Plated,PTH,ComponentDrill
T4C1.000
; #@! TA.AperFunction,Plated,PTH,ComponentDrill
T5C1.100
; #@! TA.AperFunction,Plated,PTH,ComponentDrill
T6C1.400
; #@! TA.AperFunction,Plated,PTH,ComponentDrill
T7C1.500
%
G90
G05
T1
X158.75Y-71.12
X160.02Y-71.12
X163.83Y-63.5
X164.465Y-38.1
X165.1Y-63.5
X165.1Y-64.77
X165.735Y-38.1
X167.005Y-38.1
X167.005Y-42.545
X167.005Y-43.815
X168.275Y-38.1
X168.275Y-42.545
X168.275Y-43.815
X169.545Y-59.69
X170.18Y-60.96
X170.18Y-68.58
X171.45Y-67.31
X171.45Y-68.58
X172.72Y-68.58
X174.625Y-28.575
X174.625Y-29.845
X175.895Y-28.575
X175.895Y-29.845
X177.165Y-66.675
X177.165Y-67.945
X178.435Y-56.515
X178.435Y-57.785
X178.435Y-59.055
X178.435Y-66.675
X178.435Y-67.945
X179.052Y-46.27
X179.705Y-38.1
X179.705Y-56.515
X179.705Y-57.785
X179.705Y-59.055
X180.34Y-24.13
X180.975Y-38.1
X181.61Y-20.32
X181.61Y-21.59
X181.61Y-24.13
X182.88Y-20.32
X182.88Y-21.59
X187.96Y-27.94
X187.96Y-33.02
X187.96Y-34.29
X187.96Y-38.1
X187.96Y-53.34
X187.96Y-54.61
X187.96Y-55.88
X189.23Y-27.94
X189.23Y-33.02
X189.23Y-34.29
X189.23Y-38.1
X189.23Y-53.34
X189.23Y-54.61
X189.23Y-55.88
X190.5Y-27.94
X190.5Y-33.02
X190.5Y-34.29
X190.5Y-38.1
X193.04Y-43.815
X193.04Y-45.085
X194.31Y-43.815
X194.31Y-45.085
X194.945Y-57.15
X194.945Y-58.42
X195.58Y-43.815
X195.58Y-45.085
X196.215Y-57.15
X196.215Y-58.42
X196.85Y-43.815
X196.85Y-45.085
X198.755Y-20.32
X200.025Y-20.32
X208.915Y-50.8
X208.915Y-52.07
X208.915Y-53.34
X210.185Y-50.8
X210.185Y-52.07
X210.185Y-53.34
X210.78Y-65.445
X210.82Y-61.595
X210.82Y-62.865
X210.82Y-64.135
X210.82Y-66.675
X211.455Y-19.685
X211.455Y-20.955
X212.05Y-65.445
X212.09Y-61.595
X212.09Y-62.865
X212.09Y-64.135
X212.09Y-66.675
X212.725Y-19.685
X212.725Y-20.955
X213.32Y-65.445
X213.36Y-61.595
X213.36Y-62.865
X213.36Y-66.675
X213.995Y-33.655
X215.265Y-33.655
X215.265Y-51.435
X215.265Y-52.705
X215.265Y-53.975
X215.265Y-55.245
X215.265Y-56.515
X216.535Y-33.655
X216.535Y-43.18
X216.535Y-44.45
X216.535Y-51.435
X216.535Y-52.705
X217.805Y-43.18
X217.805Y-44.45
X217.805Y-51.435
X217.805Y-52.705
X217.805Y-53.975
X217.805Y-55.245
X217.805Y-56.515
X219.075Y-43.18
X219.075Y-44.45
X222.25Y-19.685
X222.25Y-20.955
X223.52Y-19.685
X223.52Y-20.955
X224.79Y-33.02
X224.79Y-34.29
X225.425Y-27.94
X225.425Y-29.21
X225.425Y-30.48
X225.425Y-61.595
X225.425Y-62.865
X226.06Y-33.02
X226.06Y-34.29
X226.695Y-27.94
X226.695Y-29.21
X226.695Y-30.48
X226.695Y-52.07
X226.695Y-53.34
X226.695Y-54.61
X226.695Y-61.595
X227.965Y-27.94
X227.965Y-29.21
X227.965Y-30.48
X227.965Y-52.07
X227.965Y-53.34
X227.965Y-54.61
X229.215Y-51.987
X229.235Y-27.94
X229.235Y-29.21
X229.235Y-30.48
X229.235Y-53.34
X229.235Y-54.61
X231.14Y-34.925
X232.41Y-20.32
X232.41Y-21.59
X232.41Y-34.925
X234.315Y-71.12
X235.585Y-71.12
X240.03Y-31.75
X240.03Y-33.02
X240.03Y-34.29
T2
X198.755Y-55.88
X198.755Y-66.675
X200.555Y-50.88
X200.555Y-61.675
T3
X185.06Y-50.855
X185.06Y-53.395
X185.06Y-55.935
X185.06Y-62.285
X185.06Y-64.825
X185.06Y-67.365
X192.68Y-50.855
X192.68Y-55.935
X192.68Y-62.285
X192.68Y-67.365
T4
X158.745Y-19.055
X158.745Y-21.595
X158.745Y-24.135
X158.745Y-26.675
X158.745Y-29.215
X158.745Y-31.755
X158.745Y-34.295
X158.745Y-36.835
X158.745Y-39.375
X158.745Y-41.915
X158.745Y-44.455
X158.745Y-46.995
X158.745Y-49.535
X158.745Y-52.075
X158.745Y-54.615
X158.745Y-57.155
X158.745Y-59.695
X158.745Y-62.235
X158.745Y-64.775
X158.745Y-67.315
X161.285Y-19.055
X161.285Y-21.595
X161.285Y-24.135
X161.285Y-26.675
X161.285Y-29.215
X161.285Y-31.755
X161.285Y-34.295
X161.285Y-36.835
X161.285Y-39.375
X161.285Y-41.915
X161.285Y-44.455
X161.285Y-46.995
X161.285Y-49.535
X161.285Y-52.075
X161.285Y-54.615
X161.285Y-57.155
X161.285Y-59.695
X161.285Y-62.235
X161.285Y-64.775
X161.285Y-67.315
X234.97Y-19.08
X234.97Y-21.62
X234.97Y-24.16
X234.97Y-26.7
X234.97Y-29.24
X234.97Y-31.78
X234.97Y-34.32
X234.97Y-36.86
X234.97Y-39.4
X234.97Y-41.94
X234.97Y-44.48
X234.97Y-47.02
X234.97Y-49.56
X234.97Y-52.1
X234.97Y-54.64
X234.97Y-57.18
X234.97Y-59.72
X234.97Y-62.26
X234.97Y-64.8
X234.97Y-67.34
X237.51Y-19.08
X237.51Y-21.62
X237.51Y-24.16
X237.51Y-26.7
X237.51Y-29.24
X237.51Y-31.78
X237.51Y-34.32
X237.51Y-36.86
X237.51Y-39.4
X237.51Y-41.94
X237.51Y-44.48
X237.51Y-47.02
X237.51Y-49.56
X237.51Y-52.1
X237.51Y-54.64
X237.51Y-57.18
X237.51Y-59.72
X237.51Y-62.26
X237.51Y-64.8
X237.51Y-67.34
T5
X205.03Y-51.475
X205.03Y-54.015
X205.03Y-56.555
X205.03Y-62.905
X205.03Y-65.445
X205.03Y-67.985
T6
X175.26Y-20.32
X187.96Y-20.32
X192.405Y-20.32
X205.105Y-20.32
T7
X166.91Y-19.05
X170.91Y-19.05
X171.3Y-29.26
X171.3Y-33.06
X171.3Y-38.06
X171.3Y-43.06
X184.3Y-28.06
X184.3Y-33.06
X184.3Y-38.06
X184.3Y-43.06
T2
X196.555Y-29.21G85X200.955Y-29.21
G05
X196.555Y-41.91G85X200.955Y-41.91
G05
X214.335Y-29.21G85X218.735Y-29.21
G05
X214.335Y-41.91G85X218.735Y-41.91
G05
T0
M30
