G04 #@! TF.GenerationSoftware,KiCad,Pcbnew,(6.0.2)*
G04 #@! TF.CreationDate,2022-03-12T22:50:08+09:00*
G04 #@! TF.ProjectId,ACBoard,4143426f-6172-4642-9e6b-696361645f70,rev?*
G04 #@! TF.SameCoordinates,Original*
G04 #@! TF.FileFunction,Legend,Top*
G04 #@! TF.FilePolarity,Positive*
%FSLAX46Y46*%
G04 Gerber Fmt 4.6, Leading zero omitted, Abs format (unit mm)*
G04 Created by KiCad (PCBNEW (6.0.2)) date 2022-03-12 22:50:08*
%MOMM*%
%LPD*%
G01*
G04 APERTURE LIST*
G04 Aperture macros list*
%AMRoundRect*
0 Rectangle with rounded corners*
0 $1 Rounding radius*
0 $2 $3 $4 $5 $6 $7 $8 $9 X,Y pos of 4 corners*
0 Add a 4 corners polygon primitive as box body*
4,1,4,$2,$3,$4,$5,$6,$7,$8,$9,$2,$3,0*
0 Add four circle primitives for the rounded corners*
1,1,$1+$1,$2,$3*
1,1,$1+$1,$4,$5*
1,1,$1+$1,$6,$7*
1,1,$1+$1,$8,$9*
0 Add four rect primitives between the rounded corners*
20,1,$1+$1,$2,$3,$4,$5,0*
20,1,$1+$1,$4,$5,$6,$7,0*
20,1,$1+$1,$6,$7,$8,$9,0*
20,1,$1+$1,$8,$9,$2,$3,0*%
G04 Aperture macros list end*
%ADD10C,0.150000*%
%ADD11C,0.120000*%
%ADD12C,0.127000*%
%ADD13C,0.200000*%
%ADD14C,0.300000*%
%ADD15C,0.100000*%
%ADD16RoundRect,0.237500X0.250000X0.237500X-0.250000X0.237500X-0.250000X-0.237500X0.250000X-0.237500X0*%
%ADD17R,1.600000X1.600000*%
%ADD18O,1.600000X1.600000*%
%ADD19C,4.000000*%
%ADD20O,3.500000X3.500000*%
%ADD21R,2.000000X1.905000*%
%ADD22O,2.000000X1.905000*%
%ADD23RoundRect,0.250000X-0.475000X0.337500X-0.475000X-0.337500X0.475000X-0.337500X0.475000X0.337500X0*%
%ADD24RoundRect,0.042000X-0.258000X0.943000X-0.258000X-0.943000X0.258000X-0.943000X0.258000X0.943000X0*%
%ADD25RoundRect,0.237500X0.237500X-0.250000X0.237500X0.250000X-0.237500X0.250000X-0.237500X-0.250000X0*%
%ADD26O,6.000000X1.000000*%
%ADD27RoundRect,0.237500X-0.237500X0.250000X-0.237500X-0.250000X0.237500X-0.250000X0.237500X0.250000X0*%
%ADD28C,2.000000*%
%ADD29R,13.000000X9.000000*%
%ADD30R,2.800000X2.800000*%
%ADD31O,2.800000X2.800000*%
%ADD32R,2.250000X2.250000*%
%ADD33C,2.250000*%
%ADD34RoundRect,0.100000X-0.100000X0.217500X-0.100000X-0.217500X0.100000X-0.217500X0.100000X0.217500X0*%
%ADD35C,1.600000*%
%ADD36RoundRect,0.250000X0.412500X0.650000X-0.412500X0.650000X-0.412500X-0.650000X0.412500X-0.650000X0*%
%ADD37R,1.700000X1.700000*%
%ADD38O,1.700000X1.700000*%
G04 APERTURE END LIST*
D10*
X183613333Y-60182380D02*
X183280000Y-59706190D01*
X183041904Y-60182380D02*
X183041904Y-59182380D01*
X183422857Y-59182380D01*
X183518095Y-59230000D01*
X183565714Y-59277619D01*
X183613333Y-59372857D01*
X183613333Y-59515714D01*
X183565714Y-59610952D01*
X183518095Y-59658571D01*
X183422857Y-59706190D01*
X183041904Y-59706190D01*
X183994285Y-59277619D02*
X184041904Y-59230000D01*
X184137142Y-59182380D01*
X184375238Y-59182380D01*
X184470476Y-59230000D01*
X184518095Y-59277619D01*
X184565714Y-59372857D01*
X184565714Y-59468095D01*
X184518095Y-59610952D01*
X183946666Y-60182380D01*
X184565714Y-60182380D01*
X188108095Y-47977380D02*
X188108095Y-48786904D01*
X188155714Y-48882142D01*
X188203333Y-48929761D01*
X188298571Y-48977380D01*
X188489047Y-48977380D01*
X188584285Y-48929761D01*
X188631904Y-48882142D01*
X188679523Y-48786904D01*
X188679523Y-47977380D01*
X189679523Y-48977380D02*
X189108095Y-48977380D01*
X189393809Y-48977380D02*
X189393809Y-47977380D01*
X189298571Y-48120238D01*
X189203333Y-48215476D01*
X189108095Y-48263095D01*
X217178095Y-20272380D02*
X217178095Y-19272380D01*
X217416190Y-19272380D01*
X217559047Y-19320000D01*
X217654285Y-19415238D01*
X217701904Y-19510476D01*
X217749523Y-19700952D01*
X217749523Y-19843809D01*
X217701904Y-20034285D01*
X217654285Y-20129523D01*
X217559047Y-20224761D01*
X217416190Y-20272380D01*
X217178095Y-20272380D01*
X218178095Y-20272380D02*
X218178095Y-19272380D01*
X218178095Y-19748571D02*
X218749523Y-19748571D01*
X218749523Y-20272380D02*
X218749523Y-19272380D01*
X219178095Y-19367619D02*
X219225714Y-19320000D01*
X219320952Y-19272380D01*
X219559047Y-19272380D01*
X219654285Y-19320000D01*
X219701904Y-19367619D01*
X219749523Y-19462857D01*
X219749523Y-19558095D01*
X219701904Y-19700952D01*
X219130476Y-20272380D01*
X219749523Y-20272380D01*
X226062380Y-54753095D02*
X225062380Y-54753095D01*
X225062380Y-54515000D01*
X225110000Y-54372142D01*
X225205238Y-54276904D01*
X225300476Y-54229285D01*
X225490952Y-54181666D01*
X225633809Y-54181666D01*
X225824285Y-54229285D01*
X225919523Y-54276904D01*
X226014761Y-54372142D01*
X226062380Y-54515000D01*
X226062380Y-54753095D01*
X226062380Y-53229285D02*
X226062380Y-53800714D01*
X226062380Y-53515000D02*
X225062380Y-53515000D01*
X225205238Y-53610238D01*
X225300476Y-53705476D01*
X225348095Y-53800714D01*
X167997142Y-51646666D02*
X168044761Y-51694285D01*
X168092380Y-51837142D01*
X168092380Y-51932380D01*
X168044761Y-52075238D01*
X167949523Y-52170476D01*
X167854285Y-52218095D01*
X167663809Y-52265714D01*
X167520952Y-52265714D01*
X167330476Y-52218095D01*
X167235238Y-52170476D01*
X167140000Y-52075238D01*
X167092380Y-51932380D01*
X167092380Y-51837142D01*
X167140000Y-51694285D01*
X167187619Y-51646666D01*
X168092380Y-50694285D02*
X168092380Y-51265714D01*
X168092380Y-50980000D02*
X167092380Y-50980000D01*
X167235238Y-51075238D01*
X167330476Y-51170476D01*
X167378095Y-51265714D01*
X176979380Y-58206904D02*
X177788904Y-58206904D01*
X177884142Y-58159285D01*
X177931761Y-58111666D01*
X177979380Y-58016428D01*
X177979380Y-57825952D01*
X177931761Y-57730714D01*
X177884142Y-57683095D01*
X177788904Y-57635476D01*
X176979380Y-57635476D01*
X176979380Y-57254523D02*
X176979380Y-56635476D01*
X177360333Y-56968809D01*
X177360333Y-56825952D01*
X177407952Y-56730714D01*
X177455571Y-56683095D01*
X177550809Y-56635476D01*
X177788904Y-56635476D01*
X177884142Y-56683095D01*
X177931761Y-56730714D01*
X177979380Y-56825952D01*
X177979380Y-57111666D01*
X177931761Y-57206904D01*
X177884142Y-57254523D01*
X183613333Y-48752380D02*
X183280000Y-48276190D01*
X183041904Y-48752380D02*
X183041904Y-47752380D01*
X183422857Y-47752380D01*
X183518095Y-47800000D01*
X183565714Y-47847619D01*
X183613333Y-47942857D01*
X183613333Y-48085714D01*
X183565714Y-48180952D01*
X183518095Y-48228571D01*
X183422857Y-48276190D01*
X183041904Y-48276190D01*
X184565714Y-48752380D02*
X183994285Y-48752380D01*
X184280000Y-48752380D02*
X184280000Y-47752380D01*
X184184761Y-47895238D01*
X184089523Y-47990476D01*
X183994285Y-48038095D01*
X178092380Y-51646666D02*
X177616190Y-51980000D01*
X178092380Y-52218095D02*
X177092380Y-52218095D01*
X177092380Y-51837142D01*
X177140000Y-51741904D01*
X177187619Y-51694285D01*
X177282857Y-51646666D01*
X177425714Y-51646666D01*
X177520952Y-51694285D01*
X177568571Y-51741904D01*
X177616190Y-51837142D01*
X177616190Y-52218095D01*
X177092380Y-50741904D02*
X177092380Y-51218095D01*
X177568571Y-51265714D01*
X177520952Y-51218095D01*
X177473333Y-51122857D01*
X177473333Y-50884761D01*
X177520952Y-50789523D01*
X177568571Y-50741904D01*
X177663809Y-50694285D01*
X177901904Y-50694285D01*
X177997142Y-50741904D01*
X178044761Y-50789523D01*
X178092380Y-50884761D01*
X178092380Y-51122857D01*
X178044761Y-51218095D01*
X177997142Y-51265714D01*
X187707380Y-35893333D02*
X188421666Y-35893333D01*
X188564523Y-35940952D01*
X188659761Y-36036190D01*
X188707380Y-36179047D01*
X188707380Y-36274285D01*
X188040714Y-34988571D02*
X188707380Y-34988571D01*
X187659761Y-35226666D02*
X188374047Y-35464761D01*
X188374047Y-34845714D01*
X197092380Y-64341666D02*
X196616190Y-64675000D01*
X197092380Y-64913095D02*
X196092380Y-64913095D01*
X196092380Y-64532142D01*
X196140000Y-64436904D01*
X196187619Y-64389285D01*
X196282857Y-64341666D01*
X196425714Y-64341666D01*
X196520952Y-64389285D01*
X196568571Y-64436904D01*
X196616190Y-64532142D01*
X196616190Y-64913095D01*
X196425714Y-63484523D02*
X197092380Y-63484523D01*
X196044761Y-63722619D02*
X196759047Y-63960714D01*
X196759047Y-63341666D01*
X197092380Y-53546666D02*
X196616190Y-53880000D01*
X197092380Y-54118095D02*
X196092380Y-54118095D01*
X196092380Y-53737142D01*
X196140000Y-53641904D01*
X196187619Y-53594285D01*
X196282857Y-53546666D01*
X196425714Y-53546666D01*
X196520952Y-53594285D01*
X196568571Y-53641904D01*
X196616190Y-53737142D01*
X196616190Y-54118095D01*
X196092380Y-53213333D02*
X196092380Y-52594285D01*
X196473333Y-52927619D01*
X196473333Y-52784761D01*
X196520952Y-52689523D01*
X196568571Y-52641904D01*
X196663809Y-52594285D01*
X196901904Y-52594285D01*
X196997142Y-52641904D01*
X197044761Y-52689523D01*
X197092380Y-52784761D01*
X197092380Y-53070476D01*
X197044761Y-53165714D01*
X196997142Y-53213333D01*
X226062380Y-66183095D02*
X225062380Y-66183095D01*
X225062380Y-65945000D01*
X225110000Y-65802142D01*
X225205238Y-65706904D01*
X225300476Y-65659285D01*
X225490952Y-65611666D01*
X225633809Y-65611666D01*
X225824285Y-65659285D01*
X225919523Y-65706904D01*
X226014761Y-65802142D01*
X226062380Y-65945000D01*
X226062380Y-66183095D01*
X225157619Y-65230714D02*
X225110000Y-65183095D01*
X225062380Y-65087857D01*
X225062380Y-64849761D01*
X225110000Y-64754523D01*
X225157619Y-64706904D01*
X225252857Y-64659285D01*
X225348095Y-64659285D01*
X225490952Y-64706904D01*
X226062380Y-65278333D01*
X226062380Y-64659285D01*
X168576666Y-18502380D02*
X168576666Y-19216666D01*
X168529047Y-19359523D01*
X168433809Y-19454761D01*
X168290952Y-19502380D01*
X168195714Y-19502380D01*
X168957619Y-18502380D02*
X169576666Y-18502380D01*
X169243333Y-18883333D01*
X169386190Y-18883333D01*
X169481428Y-18930952D01*
X169529047Y-18978571D01*
X169576666Y-19073809D01*
X169576666Y-19311904D01*
X169529047Y-19407142D01*
X169481428Y-19454761D01*
X169386190Y-19502380D01*
X169100476Y-19502380D01*
X169005238Y-19454761D01*
X168957619Y-19407142D01*
X224928095Y-58277380D02*
X224928095Y-57277380D01*
X224928095Y-57753571D02*
X225499523Y-57753571D01*
X225499523Y-58277380D02*
X225499523Y-57277380D01*
X225928095Y-57372619D02*
X225975714Y-57325000D01*
X226070952Y-57277380D01*
X226309047Y-57277380D01*
X226404285Y-57325000D01*
X226451904Y-57372619D01*
X226499523Y-57467857D01*
X226499523Y-57563095D01*
X226451904Y-57705952D01*
X225880476Y-58277380D01*
X226499523Y-58277380D01*
X198016904Y-20772380D02*
X198016904Y-19772380D01*
X198255000Y-19772380D01*
X198397857Y-19820000D01*
X198493095Y-19915238D01*
X198540714Y-20010476D01*
X198588333Y-20200952D01*
X198588333Y-20343809D01*
X198540714Y-20534285D01*
X198493095Y-20629523D01*
X198397857Y-20724761D01*
X198255000Y-20772380D01*
X198016904Y-20772380D01*
X199493095Y-19772380D02*
X199016904Y-19772380D01*
X198969285Y-20248571D01*
X199016904Y-20200952D01*
X199112142Y-20153333D01*
X199350238Y-20153333D01*
X199445476Y-20200952D01*
X199493095Y-20248571D01*
X199540714Y-20343809D01*
X199540714Y-20581904D01*
X199493095Y-20677142D01*
X199445476Y-20724761D01*
X199350238Y-20772380D01*
X199112142Y-20772380D01*
X199016904Y-20724761D01*
X198969285Y-20677142D01*
X192143095Y-18372380D02*
X192143095Y-17372380D01*
X192714523Y-18372380D02*
X192285952Y-17800952D01*
X192714523Y-17372380D02*
X192143095Y-17943809D01*
X206462380Y-42878333D02*
X207176666Y-42878333D01*
X207319523Y-42925952D01*
X207414761Y-43021190D01*
X207462380Y-43164047D01*
X207462380Y-43259285D01*
X206462380Y-41925952D02*
X206462380Y-42402142D01*
X206938571Y-42449761D01*
X206890952Y-42402142D01*
X206843333Y-42306904D01*
X206843333Y-42068809D01*
X206890952Y-41973571D01*
X206938571Y-41925952D01*
X207033809Y-41878333D01*
X207271904Y-41878333D01*
X207367142Y-41925952D01*
X207414761Y-41973571D01*
X207462380Y-42068809D01*
X207462380Y-42306904D01*
X207414761Y-42402142D01*
X207367142Y-42449761D01*
X188108095Y-59407380D02*
X188108095Y-60216904D01*
X188155714Y-60312142D01*
X188203333Y-60359761D01*
X188298571Y-60407380D01*
X188489047Y-60407380D01*
X188584285Y-60359761D01*
X188631904Y-60312142D01*
X188679523Y-60216904D01*
X188679523Y-59407380D01*
X189108095Y-59502619D02*
X189155714Y-59455000D01*
X189250952Y-59407380D01*
X189489047Y-59407380D01*
X189584285Y-59455000D01*
X189631904Y-59502619D01*
X189679523Y-59597857D01*
X189679523Y-59693095D01*
X189631904Y-59835952D01*
X189060476Y-60407380D01*
X189679523Y-60407380D01*
X168783095Y-22947380D02*
X169354523Y-22947380D01*
X169068809Y-23947380D02*
X169068809Y-22947380D01*
X170211666Y-23947380D02*
X169640238Y-23947380D01*
X169925952Y-23947380D02*
X169925952Y-22947380D01*
X169830714Y-23090238D01*
X169735476Y-23185476D01*
X169640238Y-23233095D01*
X182062380Y-54758095D02*
X181062380Y-54758095D01*
X181062380Y-54520000D01*
X181110000Y-54377142D01*
X181205238Y-54281904D01*
X181300476Y-54234285D01*
X181490952Y-54186666D01*
X181633809Y-54186666D01*
X181824285Y-54234285D01*
X181919523Y-54281904D01*
X182014761Y-54377142D01*
X182062380Y-54520000D01*
X182062380Y-54758095D01*
X181062380Y-53853333D02*
X181062380Y-53234285D01*
X181443333Y-53567619D01*
X181443333Y-53424761D01*
X181490952Y-53329523D01*
X181538571Y-53281904D01*
X181633809Y-53234285D01*
X181871904Y-53234285D01*
X181967142Y-53281904D01*
X182014761Y-53329523D01*
X182062380Y-53424761D01*
X182062380Y-53710476D01*
X182014761Y-53805714D01*
X181967142Y-53853333D01*
X203007380Y-53975238D02*
X202531190Y-54308571D01*
X203007380Y-54546666D02*
X202007380Y-54546666D01*
X202007380Y-54165714D01*
X202055000Y-54070476D01*
X202102619Y-54022857D01*
X202197857Y-53975238D01*
X202340714Y-53975238D01*
X202435952Y-54022857D01*
X202483571Y-54070476D01*
X202531190Y-54165714D01*
X202531190Y-54546666D01*
X202007380Y-53689523D02*
X203007380Y-53356190D01*
X202007380Y-53022857D01*
X203007380Y-52165714D02*
X203007380Y-52737142D01*
X203007380Y-52451428D02*
X202007380Y-52451428D01*
X202150238Y-52546666D01*
X202245476Y-52641904D01*
X202293095Y-52737142D01*
X227338095Y-20272380D02*
X227338095Y-19272380D01*
X227576190Y-19272380D01*
X227719047Y-19320000D01*
X227814285Y-19415238D01*
X227861904Y-19510476D01*
X227909523Y-19700952D01*
X227909523Y-19843809D01*
X227861904Y-20034285D01*
X227814285Y-20129523D01*
X227719047Y-20224761D01*
X227576190Y-20272380D01*
X227338095Y-20272380D01*
X228338095Y-20272380D02*
X228338095Y-19272380D01*
X228338095Y-19748571D02*
X228909523Y-19748571D01*
X228909523Y-20272380D02*
X228909523Y-19272380D01*
X229861904Y-19272380D02*
X229385714Y-19272380D01*
X229338095Y-19748571D01*
X229385714Y-19700952D01*
X229480952Y-19653333D01*
X229719047Y-19653333D01*
X229814285Y-19700952D01*
X229861904Y-19748571D01*
X229909523Y-19843809D01*
X229909523Y-20081904D01*
X229861904Y-20177142D01*
X229814285Y-20224761D01*
X229719047Y-20272380D01*
X229480952Y-20272380D01*
X229385714Y-20224761D01*
X229338095Y-20177142D01*
X173823333Y-65752142D02*
X173775714Y-65799761D01*
X173632857Y-65847380D01*
X173537619Y-65847380D01*
X173394761Y-65799761D01*
X173299523Y-65704523D01*
X173251904Y-65609285D01*
X173204285Y-65418809D01*
X173204285Y-65275952D01*
X173251904Y-65085476D01*
X173299523Y-64990238D01*
X173394761Y-64895000D01*
X173537619Y-64847380D01*
X173632857Y-64847380D01*
X173775714Y-64895000D01*
X173823333Y-64942619D01*
X174204285Y-64942619D02*
X174251904Y-64895000D01*
X174347142Y-64847380D01*
X174585238Y-64847380D01*
X174680476Y-64895000D01*
X174728095Y-64942619D01*
X174775714Y-65037857D01*
X174775714Y-65133095D01*
X174728095Y-65275952D01*
X174156666Y-65847380D01*
X174775714Y-65847380D01*
X224928095Y-49387380D02*
X224928095Y-48387380D01*
X224928095Y-48863571D02*
X225499523Y-48863571D01*
X225499523Y-49387380D02*
X225499523Y-48387380D01*
X226499523Y-49387380D02*
X225928095Y-49387380D01*
X226213809Y-49387380D02*
X226213809Y-48387380D01*
X226118571Y-48530238D01*
X226023333Y-48625476D01*
X225928095Y-48673095D01*
X227338095Y-66492380D02*
X227338095Y-65492380D01*
X227576190Y-65492380D01*
X227719047Y-65540000D01*
X227814285Y-65635238D01*
X227861904Y-65730476D01*
X227909523Y-65920952D01*
X227909523Y-66063809D01*
X227861904Y-66254285D01*
X227814285Y-66349523D01*
X227719047Y-66444761D01*
X227576190Y-66492380D01*
X227338095Y-66492380D01*
X228338095Y-66492380D02*
X228338095Y-65492380D01*
X228338095Y-65968571D02*
X228909523Y-65968571D01*
X228909523Y-66492380D02*
X228909523Y-65492380D01*
X229290476Y-65492380D02*
X229909523Y-65492380D01*
X229576190Y-65873333D01*
X229719047Y-65873333D01*
X229814285Y-65920952D01*
X229861904Y-65968571D01*
X229909523Y-66063809D01*
X229909523Y-66301904D01*
X229861904Y-66397142D01*
X229814285Y-66444761D01*
X229719047Y-66492380D01*
X229433333Y-66492380D01*
X229338095Y-66444761D01*
X229290476Y-66397142D01*
X171902380Y-51646666D02*
X171426190Y-51980000D01*
X171902380Y-52218095D02*
X170902380Y-52218095D01*
X170902380Y-51837142D01*
X170950000Y-51741904D01*
X170997619Y-51694285D01*
X171092857Y-51646666D01*
X171235714Y-51646666D01*
X171330952Y-51694285D01*
X171378571Y-51741904D01*
X171426190Y-51837142D01*
X171426190Y-52218095D01*
X170902380Y-51313333D02*
X170902380Y-50646666D01*
X171902380Y-51075238D01*
X166378095Y-65992380D02*
X166378095Y-64992380D01*
X166616190Y-64992380D01*
X166759047Y-65040000D01*
X166854285Y-65135238D01*
X166901904Y-65230476D01*
X166949523Y-65420952D01*
X166949523Y-65563809D01*
X166901904Y-65754285D01*
X166854285Y-65849523D01*
X166759047Y-65944761D01*
X166616190Y-65992380D01*
X166378095Y-65992380D01*
X167378095Y-65992380D02*
X167378095Y-64992380D01*
X167378095Y-65468571D02*
X167949523Y-65468571D01*
X167949523Y-65992380D02*
X167949523Y-64992380D01*
X168854285Y-65325714D02*
X168854285Y-65992380D01*
X168616190Y-64944761D02*
X168378095Y-65659047D01*
X168997142Y-65659047D01*
X203007380Y-64770238D02*
X202531190Y-65103571D01*
X203007380Y-65341666D02*
X202007380Y-65341666D01*
X202007380Y-64960714D01*
X202055000Y-64865476D01*
X202102619Y-64817857D01*
X202197857Y-64770238D01*
X202340714Y-64770238D01*
X202435952Y-64817857D01*
X202483571Y-64865476D01*
X202531190Y-64960714D01*
X202531190Y-65341666D01*
X202007380Y-64484523D02*
X203007380Y-64151190D01*
X202007380Y-63817857D01*
X202102619Y-63532142D02*
X202055000Y-63484523D01*
X202007380Y-63389285D01*
X202007380Y-63151190D01*
X202055000Y-63055952D01*
X202102619Y-63008333D01*
X202197857Y-62960714D01*
X202293095Y-62960714D01*
X202435952Y-63008333D01*
X203007380Y-63579761D01*
X203007380Y-62960714D01*
X232076666Y-17232380D02*
X232076666Y-17946666D01*
X232029047Y-18089523D01*
X231933809Y-18184761D01*
X231790952Y-18232380D01*
X231695714Y-18232380D01*
X233076666Y-18232380D02*
X232505238Y-18232380D01*
X232790952Y-18232380D02*
X232790952Y-17232380D01*
X232695714Y-17375238D01*
X232600476Y-17470476D01*
X232505238Y-17518095D01*
X164766666Y-22312380D02*
X164766666Y-23026666D01*
X164719047Y-23169523D01*
X164623809Y-23264761D01*
X164480952Y-23312380D01*
X164385714Y-23312380D01*
X165195238Y-22407619D02*
X165242857Y-22360000D01*
X165338095Y-22312380D01*
X165576190Y-22312380D01*
X165671428Y-22360000D01*
X165719047Y-22407619D01*
X165766666Y-22502857D01*
X165766666Y-22598095D01*
X165719047Y-22740952D01*
X165147619Y-23312380D01*
X165766666Y-23312380D01*
X180871904Y-20772380D02*
X180871904Y-19772380D01*
X181110000Y-19772380D01*
X181252857Y-19820000D01*
X181348095Y-19915238D01*
X181395714Y-20010476D01*
X181443333Y-20200952D01*
X181443333Y-20343809D01*
X181395714Y-20534285D01*
X181348095Y-20629523D01*
X181252857Y-20724761D01*
X181110000Y-20772380D01*
X180871904Y-20772380D01*
X182300476Y-20105714D02*
X182300476Y-20772380D01*
X182062380Y-19724761D02*
X181824285Y-20439047D01*
X182443333Y-20439047D01*
X174998095Y-18372380D02*
X174998095Y-17372380D01*
X175569523Y-18372380D02*
X175140952Y-17800952D01*
X175569523Y-17372380D02*
X174998095Y-17943809D01*
X174917380Y-51646666D02*
X174441190Y-51980000D01*
X174917380Y-52218095D02*
X173917380Y-52218095D01*
X173917380Y-51837142D01*
X173965000Y-51741904D01*
X174012619Y-51694285D01*
X174107857Y-51646666D01*
X174250714Y-51646666D01*
X174345952Y-51694285D01*
X174393571Y-51741904D01*
X174441190Y-51837142D01*
X174441190Y-52218095D01*
X173917380Y-50789523D02*
X173917380Y-50980000D01*
X173965000Y-51075238D01*
X174012619Y-51122857D01*
X174155476Y-51218095D01*
X174345952Y-51265714D01*
X174726904Y-51265714D01*
X174822142Y-51218095D01*
X174869761Y-51170476D01*
X174917380Y-51075238D01*
X174917380Y-50884761D01*
X174869761Y-50789523D01*
X174822142Y-50741904D01*
X174726904Y-50694285D01*
X174488809Y-50694285D01*
X174393571Y-50741904D01*
X174345952Y-50789523D01*
X174298333Y-50884761D01*
X174298333Y-51075238D01*
X174345952Y-51170476D01*
X174393571Y-51218095D01*
X174488809Y-51265714D01*
D11*
X186574724Y-59207500D02*
X186065276Y-59207500D01*
X186574724Y-60252500D02*
X186065276Y-60252500D01*
X187870000Y-49525000D02*
X186220000Y-49525000D01*
X186220000Y-57265000D02*
X191520000Y-57265000D01*
X191520000Y-49525000D02*
X189870000Y-49525000D01*
X186220000Y-49525000D02*
X186220000Y-57265000D01*
X191520000Y-57265000D02*
X191520000Y-49525000D01*
X187870000Y-49525000D02*
G75*
G03*
X189870000Y-49525000I1000000J0D01*
G01*
X208720000Y-48895000D02*
X208720000Y-59135000D01*
X208720000Y-54015000D02*
X206180000Y-54015000D01*
X208720000Y-51475000D02*
X206180000Y-51475000D01*
X208720000Y-56555000D02*
X206180000Y-56555000D01*
X224610000Y-48895000D02*
X208720000Y-48895000D01*
X224610000Y-48895000D02*
X224610000Y-59135000D01*
X224610000Y-59135000D02*
X208720000Y-59135000D01*
X168810000Y-51218748D02*
X168810000Y-51741252D01*
X170280000Y-51218748D02*
X170280000Y-51741252D01*
D12*
X171465000Y-55880000D02*
X171465000Y-59780000D01*
X176515000Y-55880000D02*
X176515000Y-59780000D01*
D13*
X176395000Y-53790000D02*
G75*
G03*
X176395000Y-53790000I-100000J0D01*
G01*
D11*
X186574724Y-48822500D02*
X186065276Y-48822500D01*
X186574724Y-47777500D02*
X186065276Y-47777500D01*
X179592500Y-51734724D02*
X179592500Y-51225276D01*
X178547500Y-51734724D02*
X178547500Y-51225276D01*
X192755000Y-45560000D02*
X204755000Y-45560000D01*
X204755000Y-45560000D02*
X204755000Y-25560000D01*
X204755000Y-25560000D02*
X192755000Y-25560000D01*
X192755000Y-25560000D02*
X192755000Y-45560000D01*
X195732500Y-63920276D02*
X195732500Y-64429724D01*
X194687500Y-63920276D02*
X194687500Y-64429724D01*
X194687500Y-53125276D02*
X194687500Y-53634724D01*
X195732500Y-53125276D02*
X195732500Y-53634724D01*
X208720000Y-65445000D02*
X206180000Y-65445000D01*
X208720000Y-62905000D02*
X206180000Y-62905000D01*
X208720000Y-67985000D02*
X206180000Y-67985000D01*
X224610000Y-60325000D02*
X208720000Y-60325000D01*
X224610000Y-60325000D02*
X224610000Y-70565000D01*
X208720000Y-60325000D02*
X208720000Y-70565000D01*
X224610000Y-70565000D02*
X208720000Y-70565000D01*
X195520000Y-18350000D02*
X195520000Y-22290000D01*
X203465000Y-20320000D02*
X203325000Y-20320000D01*
X203325000Y-18350000D02*
X194185000Y-18350000D01*
X195760000Y-18350000D02*
X195760000Y-22290000D01*
X194045000Y-20320000D02*
X194185000Y-20320000D01*
X195640000Y-18350000D02*
X195640000Y-22290000D01*
X194185000Y-22290000D02*
X203325000Y-22290000D01*
X194185000Y-18350000D02*
X194185000Y-22290000D01*
X203325000Y-22290000D02*
X203325000Y-18350000D01*
X210535000Y-45560000D02*
X222535000Y-45560000D01*
X222535000Y-45560000D02*
X222535000Y-25560000D01*
X222535000Y-25560000D02*
X210535000Y-25560000D01*
X210535000Y-25560000D02*
X210535000Y-45560000D01*
X187870000Y-60955000D02*
X186220000Y-60955000D01*
X186220000Y-60955000D02*
X186220000Y-68695000D01*
X186220000Y-68695000D02*
X191520000Y-68695000D01*
X191520000Y-60955000D02*
X189870000Y-60955000D01*
X191520000Y-68695000D02*
X191520000Y-60955000D01*
X187870000Y-60955000D02*
G75*
G03*
X189870000Y-60955000I1000000J0D01*
G01*
D12*
X165800000Y-46310000D02*
X165800000Y-24810000D01*
X165800000Y-24810000D02*
X189800000Y-24810000D01*
X189800000Y-24810000D02*
X189800000Y-46310000D01*
X189800000Y-46310000D02*
X165800000Y-46310000D01*
D14*
X164782841Y-28760000D02*
G75*
G03*
X164782841Y-28760000I-282841J0D01*
G01*
D15*
X181660000Y-50445000D02*
G75*
G03*
X181660000Y-50445000I-50000J0D01*
G01*
D10*
X197755000Y-57880000D02*
X201555000Y-57880000D01*
X197755000Y-48880000D02*
X201555000Y-48880000D01*
X197755000Y-57880000D02*
X197755000Y-48880000D01*
X201555000Y-57880000D02*
X201555000Y-48880000D01*
D11*
X174701252Y-62635000D02*
X173278748Y-62635000D01*
X174701252Y-64455000D02*
X173278748Y-64455000D01*
X172197500Y-51225276D02*
X172197500Y-51734724D01*
X173242500Y-51225276D02*
X173242500Y-51734724D01*
D10*
X201555000Y-68675000D02*
X201555000Y-59675000D01*
X197755000Y-68675000D02*
X197755000Y-59675000D01*
X197755000Y-68675000D02*
X201555000Y-68675000D01*
X197755000Y-59675000D02*
X201555000Y-59675000D01*
D11*
X236240000Y-17750000D02*
X236240000Y-20350000D01*
X238840000Y-20350000D02*
X238840000Y-68670000D01*
X236240000Y-20350000D02*
X238840000Y-20350000D01*
X237510000Y-17750000D02*
X238840000Y-17750000D01*
X233640000Y-17750000D02*
X236240000Y-17750000D01*
X233640000Y-68670000D02*
X238840000Y-68670000D01*
X233640000Y-17750000D02*
X233640000Y-68670000D01*
X238840000Y-17750000D02*
X238840000Y-19080000D01*
X157415000Y-20325000D02*
X160015000Y-20325000D01*
X160015000Y-17725000D02*
X162615000Y-17725000D01*
X160015000Y-20325000D02*
X160015000Y-17725000D01*
X162615000Y-17725000D02*
X162615000Y-68645000D01*
X157415000Y-17725000D02*
X158745000Y-17725000D01*
X157415000Y-68645000D02*
X162615000Y-68645000D01*
X157415000Y-19055000D02*
X157415000Y-17725000D01*
X157415000Y-20325000D02*
X157415000Y-68645000D01*
X176900000Y-20320000D02*
X177040000Y-20320000D01*
X186180000Y-22290000D02*
X186180000Y-18350000D01*
X177040000Y-18350000D02*
X177040000Y-22290000D01*
X178615000Y-18350000D02*
X178615000Y-22290000D01*
X178495000Y-18350000D02*
X178495000Y-22290000D01*
X178375000Y-18350000D02*
X178375000Y-22290000D01*
X177040000Y-22290000D02*
X186180000Y-22290000D01*
X186320000Y-20320000D02*
X186180000Y-20320000D01*
X186180000Y-18350000D02*
X177040000Y-18350000D01*
X176417500Y-51734724D02*
X176417500Y-51225276D01*
X175372500Y-51734724D02*
X175372500Y-51225276D01*
%LPC*%
D16*
X187232500Y-59730000D03*
X185407500Y-59730000D03*
D17*
X185060000Y-50855000D03*
D18*
X185060000Y-53395000D03*
X185060000Y-55935000D03*
X192680000Y-55935000D03*
X192680000Y-50855000D03*
D19*
X218440000Y-20320000D03*
D20*
X221690000Y-54015000D03*
D21*
X205030000Y-51475000D03*
D22*
X205030000Y-54015000D03*
X205030000Y-56555000D03*
D23*
X169545000Y-50442500D03*
X169545000Y-52517500D03*
D24*
X175895000Y-55360000D03*
X174625000Y-55360000D03*
X173355000Y-55360000D03*
X172085000Y-55360000D03*
X172085000Y-60300000D03*
X173355000Y-60300000D03*
X174625000Y-60300000D03*
X175895000Y-60300000D03*
D16*
X187232500Y-48300000D03*
X185407500Y-48300000D03*
D25*
X179070000Y-52392500D03*
X179070000Y-50567500D03*
D26*
X198755000Y-41910000D03*
X198755000Y-29210000D03*
D27*
X195210000Y-63262500D03*
X195210000Y-65087500D03*
X195210000Y-52467500D03*
X195210000Y-54292500D03*
D20*
X221690000Y-65445000D03*
D21*
X205030000Y-62905000D03*
D22*
X205030000Y-65445000D03*
X205030000Y-67985000D03*
D28*
X166910000Y-19050000D03*
X170910000Y-19050000D03*
D29*
X216165000Y-65445000D03*
D30*
X192405000Y-20320000D03*
D31*
X205105000Y-20320000D03*
D26*
X216535000Y-41910000D03*
X216535000Y-29210000D03*
D17*
X185060000Y-62285000D03*
D18*
X185060000Y-64825000D03*
X185060000Y-67365000D03*
X192680000Y-67365000D03*
X192680000Y-62285000D03*
D32*
X171300000Y-29260000D03*
D33*
X171300000Y-33060000D03*
X171300000Y-38060000D03*
X171300000Y-43060000D03*
X184300000Y-43060000D03*
X184300000Y-38060000D03*
X184300000Y-33060000D03*
X184300000Y-28060000D03*
D34*
X181610000Y-51072500D03*
X181610000Y-51887500D03*
D35*
X198755000Y-55880000D03*
X200555000Y-50880000D03*
D19*
X228600000Y-20320000D03*
D36*
X175552500Y-63545000D03*
X172427500Y-63545000D03*
D29*
X216165000Y-54015000D03*
D19*
X228600000Y-66040000D03*
D27*
X172720000Y-50567500D03*
X172720000Y-52392500D03*
D19*
X167640000Y-66040000D03*
D35*
X198755000Y-66675000D03*
X200555000Y-61675000D03*
D37*
X237510000Y-19080000D03*
D38*
X234970000Y-19080000D03*
X237510000Y-21620000D03*
X234970000Y-21620000D03*
X237510000Y-24160000D03*
X234970000Y-24160000D03*
X237510000Y-26700000D03*
X234970000Y-26700000D03*
X237510000Y-29240000D03*
X234970000Y-29240000D03*
X237510000Y-31780000D03*
X234970000Y-31780000D03*
X237510000Y-34320000D03*
X234970000Y-34320000D03*
X237510000Y-36860000D03*
X234970000Y-36860000D03*
X237510000Y-39400000D03*
X234970000Y-39400000D03*
X237510000Y-41940000D03*
X234970000Y-41940000D03*
X237510000Y-44480000D03*
X234970000Y-44480000D03*
X237510000Y-47020000D03*
X234970000Y-47020000D03*
X237510000Y-49560000D03*
X234970000Y-49560000D03*
X237510000Y-52100000D03*
X234970000Y-52100000D03*
X237510000Y-54640000D03*
X234970000Y-54640000D03*
X237510000Y-57180000D03*
X234970000Y-57180000D03*
X237510000Y-59720000D03*
X234970000Y-59720000D03*
X237510000Y-62260000D03*
X234970000Y-62260000D03*
X237510000Y-64800000D03*
X234970000Y-64800000D03*
X237510000Y-67340000D03*
X234970000Y-67340000D03*
D37*
X158745000Y-19055000D03*
D38*
X161285000Y-19055000D03*
X158745000Y-21595000D03*
X161285000Y-21595000D03*
X158745000Y-24135000D03*
X161285000Y-24135000D03*
X158745000Y-26675000D03*
X161285000Y-26675000D03*
X158745000Y-29215000D03*
X161285000Y-29215000D03*
X158745000Y-31755000D03*
X161285000Y-31755000D03*
X158745000Y-34295000D03*
X161285000Y-34295000D03*
X158745000Y-36835000D03*
X161285000Y-36835000D03*
X158745000Y-39375000D03*
X161285000Y-39375000D03*
X158745000Y-41915000D03*
X161285000Y-41915000D03*
X158745000Y-44455000D03*
X161285000Y-44455000D03*
X158745000Y-46995000D03*
X161285000Y-46995000D03*
X158745000Y-49535000D03*
X161285000Y-49535000D03*
X158745000Y-52075000D03*
X161285000Y-52075000D03*
X158745000Y-54615000D03*
X161285000Y-54615000D03*
X158745000Y-57155000D03*
X161285000Y-57155000D03*
X158745000Y-59695000D03*
X161285000Y-59695000D03*
X158745000Y-62235000D03*
X161285000Y-62235000D03*
X158745000Y-64775000D03*
X161285000Y-64775000D03*
X158745000Y-67315000D03*
X161285000Y-67315000D03*
D30*
X175260000Y-20320000D03*
D31*
X187960000Y-20320000D03*
D25*
X175895000Y-52392500D03*
X175895000Y-50567500D03*
M02*
