G04 #@! TF.GenerationSoftware,KiCad,Pcbnew,(6.0.2)*
G04 #@! TF.CreationDate,2022-03-12T22:50:08+09:00*
G04 #@! TF.ProjectId,ACBoard,4143426f-6172-4642-9e6b-696361645f70,rev?*
G04 #@! TF.SameCoordinates,Original*
G04 #@! TF.FileFunction,Legend,Bot*
G04 #@! TF.FilePolarity,Positive*
%FSLAX46Y46*%
G04 Gerber Fmt 4.6, Leading zero omitted, Abs format (unit mm)*
G04 Created by KiCad (PCBNEW (6.0.2)) date 2022-03-12 22:50:08*
%MOMM*%
%LPD*%
G01*
G04 APERTURE LIST*
%ADD10R,1.600000X1.600000*%
%ADD11O,1.600000X1.600000*%
%ADD12C,4.000000*%
%ADD13O,3.500000X3.500000*%
%ADD14R,2.000000X1.905000*%
%ADD15O,2.000000X1.905000*%
%ADD16O,6.000000X1.000000*%
%ADD17C,2.000000*%
%ADD18R,2.800000X2.800000*%
%ADD19O,2.800000X2.800000*%
%ADD20R,2.250000X2.250000*%
%ADD21C,2.250000*%
%ADD22C,1.600000*%
%ADD23R,1.700000X1.700000*%
%ADD24O,1.700000X1.700000*%
G04 APERTURE END LIST*
%LPC*%
D10*
X185060000Y-50855000D03*
D11*
X185060000Y-53395000D03*
X185060000Y-55935000D03*
X192680000Y-55935000D03*
X192680000Y-50855000D03*
D12*
X218440000Y-20320000D03*
D13*
X221690000Y-54015000D03*
D14*
X205030000Y-51475000D03*
D15*
X205030000Y-54015000D03*
X205030000Y-56555000D03*
D16*
X198755000Y-41910000D03*
X198755000Y-29210000D03*
D13*
X221690000Y-65445000D03*
D14*
X205030000Y-62905000D03*
D15*
X205030000Y-65445000D03*
X205030000Y-67985000D03*
D17*
X166910000Y-19050000D03*
X170910000Y-19050000D03*
D18*
X192405000Y-20320000D03*
D19*
X205105000Y-20320000D03*
D16*
X216535000Y-41910000D03*
X216535000Y-29210000D03*
D10*
X185060000Y-62285000D03*
D11*
X185060000Y-64825000D03*
X185060000Y-67365000D03*
X192680000Y-67365000D03*
X192680000Y-62285000D03*
D20*
X171300000Y-29260000D03*
D21*
X171300000Y-33060000D03*
X171300000Y-38060000D03*
X171300000Y-43060000D03*
X184300000Y-43060000D03*
X184300000Y-38060000D03*
X184300000Y-33060000D03*
X184300000Y-28060000D03*
D22*
X198755000Y-55880000D03*
X200555000Y-50880000D03*
D12*
X228600000Y-20320000D03*
X228600000Y-66040000D03*
X167640000Y-66040000D03*
D22*
X198755000Y-66675000D03*
X200555000Y-61675000D03*
D23*
X237510000Y-19080000D03*
D24*
X234970000Y-19080000D03*
X237510000Y-21620000D03*
X234970000Y-21620000D03*
X237510000Y-24160000D03*
X234970000Y-24160000D03*
X237510000Y-26700000D03*
X234970000Y-26700000D03*
X237510000Y-29240000D03*
X234970000Y-29240000D03*
X237510000Y-31780000D03*
X234970000Y-31780000D03*
X237510000Y-34320000D03*
X234970000Y-34320000D03*
X237510000Y-36860000D03*
X234970000Y-36860000D03*
X237510000Y-39400000D03*
X234970000Y-39400000D03*
X237510000Y-41940000D03*
X234970000Y-41940000D03*
X237510000Y-44480000D03*
X234970000Y-44480000D03*
X237510000Y-47020000D03*
X234970000Y-47020000D03*
X237510000Y-49560000D03*
X234970000Y-49560000D03*
X237510000Y-52100000D03*
X234970000Y-52100000D03*
X237510000Y-54640000D03*
X234970000Y-54640000D03*
X237510000Y-57180000D03*
X234970000Y-57180000D03*
X237510000Y-59720000D03*
X234970000Y-59720000D03*
X237510000Y-62260000D03*
X234970000Y-62260000D03*
X237510000Y-64800000D03*
X234970000Y-64800000D03*
X237510000Y-67340000D03*
X234970000Y-67340000D03*
D23*
X158745000Y-19055000D03*
D24*
X161285000Y-19055000D03*
X158745000Y-21595000D03*
X161285000Y-21595000D03*
X158745000Y-24135000D03*
X161285000Y-24135000D03*
X158745000Y-26675000D03*
X161285000Y-26675000D03*
X158745000Y-29215000D03*
X161285000Y-29215000D03*
X158745000Y-31755000D03*
X161285000Y-31755000D03*
X158745000Y-34295000D03*
X161285000Y-34295000D03*
X158745000Y-36835000D03*
X161285000Y-36835000D03*
X158745000Y-39375000D03*
X161285000Y-39375000D03*
X158745000Y-41915000D03*
X161285000Y-41915000D03*
X158745000Y-44455000D03*
X161285000Y-44455000D03*
X158745000Y-46995000D03*
X161285000Y-46995000D03*
X158745000Y-49535000D03*
X161285000Y-49535000D03*
X158745000Y-52075000D03*
X161285000Y-52075000D03*
X158745000Y-54615000D03*
X161285000Y-54615000D03*
X158745000Y-57155000D03*
X161285000Y-57155000D03*
X158745000Y-59695000D03*
X161285000Y-59695000D03*
X158745000Y-62235000D03*
X161285000Y-62235000D03*
X158745000Y-64775000D03*
X161285000Y-64775000D03*
X158745000Y-67315000D03*
X161285000Y-67315000D03*
D18*
X175260000Y-20320000D03*
D19*
X187960000Y-20320000D03*
M02*
