%FSLAX45Y45*%
G04 Gerber Fmt 4.5, Leading zero omitted, Abs format (unit mm)*
G04 Created by KiCad (PCBNEW (6.0.2)) date 2022-03-12 22:50:12*
%MOMM*%
%LPD*%
G01*
G04 APERTURE LIST*
%TA.AperFunction,Profile*%
%ADD10C,0.100000*%
%TD*%
%ADD11C,0.200000*%
%ADD12C,0.040000*%
%ADD13C,0.060000*%
%ADD14C,0.080000*%
%ADD15C,0.100000*%
%ADD16C,0.110000*%
%ADD17C,0.140000*%
%ADD18C,0.150000*%
G04 APERTURE END LIST*
D10*
X24130000Y-7366000D02*
X15494000Y-7366000D01*
X15494000Y-7366000D02*
X15494000Y-1524000D01*
X15494000Y-1524000D02*
X24130000Y-1524000D01*
X24130000Y-1524000D02*
X24130000Y-7366000D01*
D11*
D12*
X15855000Y-7092000D02*
X15895000Y-7132000D01*
X15895000Y-7092000D02*
X15855000Y-7132000D01*
X15982000Y-7092000D02*
X16022000Y-7132000D01*
X16022000Y-7092000D02*
X15982000Y-7132000D01*
X16363000Y-6330000D02*
X16403000Y-6370000D01*
X16403000Y-6330000D02*
X16363000Y-6370000D01*
X16426500Y-3790000D02*
X16466500Y-3830000D01*
X16466500Y-3790000D02*
X16426500Y-3830000D01*
X16490000Y-6330000D02*
X16530000Y-6370000D01*
X16530000Y-6330000D02*
X16490000Y-6370000D01*
X16490000Y-6457000D02*
X16530000Y-6497000D01*
X16530000Y-6457000D02*
X16490000Y-6497000D01*
X16553500Y-3790000D02*
X16593500Y-3830000D01*
X16593500Y-3790000D02*
X16553500Y-3830000D01*
X16680500Y-3790000D02*
X16720500Y-3830000D01*
X16720500Y-3790000D02*
X16680500Y-3830000D01*
X16680500Y-4234500D02*
X16720500Y-4274500D01*
X16720500Y-4234500D02*
X16680500Y-4274500D01*
X16680500Y-4361500D02*
X16720500Y-4401500D01*
X16720500Y-4361500D02*
X16680500Y-4401500D01*
X16807500Y-3790000D02*
X16847500Y-3830000D01*
X16847500Y-3790000D02*
X16807500Y-3830000D01*
X16807500Y-4234500D02*
X16847500Y-4274500D01*
X16847500Y-4234500D02*
X16807500Y-4274500D01*
X16807500Y-4361500D02*
X16847500Y-4401500D01*
X16847500Y-4361500D02*
X16807500Y-4401500D01*
X16934500Y-5949000D02*
X16974500Y-5989000D01*
X16974500Y-5949000D02*
X16934500Y-5989000D01*
X16998000Y-6076000D02*
X17038000Y-6116000D01*
X17038000Y-6076000D02*
X16998000Y-6116000D01*
X16998000Y-6838000D02*
X17038000Y-6878000D01*
X17038000Y-6838000D02*
X16998000Y-6878000D01*
X17125000Y-6711000D02*
X17165000Y-6751000D01*
X17165000Y-6711000D02*
X17125000Y-6751000D01*
X17125000Y-6838000D02*
X17165000Y-6878000D01*
X17165000Y-6838000D02*
X17125000Y-6878000D01*
X17252000Y-6838000D02*
X17292000Y-6878000D01*
X17292000Y-6838000D02*
X17252000Y-6878000D01*
X17442500Y-2837500D02*
X17482500Y-2877500D01*
X17482500Y-2837500D02*
X17442500Y-2877500D01*
X17442500Y-2964500D02*
X17482500Y-3004500D01*
X17482500Y-2964500D02*
X17442500Y-3004500D01*
X17569500Y-2837500D02*
X17609500Y-2877500D01*
X17609500Y-2837500D02*
X17569500Y-2877500D01*
X17569500Y-2964500D02*
X17609500Y-3004500D01*
X17609500Y-2964500D02*
X17569500Y-3004500D01*
X17696500Y-6647500D02*
X17736500Y-6687500D01*
X17736500Y-6647500D02*
X17696500Y-6687500D01*
X17696500Y-6774500D02*
X17736500Y-6814500D01*
X17736500Y-6774500D02*
X17696500Y-6814500D01*
X17823500Y-5631500D02*
X17863500Y-5671500D01*
X17863500Y-5631500D02*
X17823500Y-5671500D01*
X17823500Y-5758500D02*
X17863500Y-5798500D01*
X17863500Y-5758500D02*
X17823500Y-5798500D01*
X17823500Y-5885500D02*
X17863500Y-5925500D01*
X17863500Y-5885500D02*
X17823500Y-5925500D01*
X17823500Y-6647500D02*
X17863500Y-6687500D01*
X17863500Y-6647500D02*
X17823500Y-6687500D01*
X17823500Y-6774500D02*
X17863500Y-6814500D01*
X17863500Y-6774500D02*
X17823500Y-6814500D01*
X17885230Y-4606960D02*
X17925230Y-4646960D01*
X17925230Y-4606960D02*
X17885230Y-4646960D01*
X17950500Y-3790000D02*
X17990500Y-3830000D01*
X17990500Y-3790000D02*
X17950500Y-3830000D01*
X17950500Y-5631500D02*
X17990500Y-5671500D01*
X17990500Y-5631500D02*
X17950500Y-5671500D01*
X17950500Y-5758500D02*
X17990500Y-5798500D01*
X17990500Y-5758500D02*
X17950500Y-5798500D01*
X17950500Y-5885500D02*
X17990500Y-5925500D01*
X17990500Y-5885500D02*
X17950500Y-5925500D01*
X18014000Y-2393000D02*
X18054000Y-2433000D01*
X18054000Y-2393000D02*
X18014000Y-2433000D01*
X18077500Y-3790000D02*
X18117500Y-3830000D01*
X18117500Y-3790000D02*
X18077500Y-3830000D01*
X18141000Y-2012000D02*
X18181000Y-2052000D01*
X18181000Y-2012000D02*
X18141000Y-2052000D01*
X18141000Y-2139000D02*
X18181000Y-2179000D01*
X18181000Y-2139000D02*
X18141000Y-2179000D01*
X18141000Y-2393000D02*
X18181000Y-2433000D01*
X18181000Y-2393000D02*
X18141000Y-2433000D01*
X18268000Y-2012000D02*
X18308000Y-2052000D01*
X18308000Y-2012000D02*
X18268000Y-2052000D01*
X18268000Y-2139000D02*
X18308000Y-2179000D01*
X18308000Y-2139000D02*
X18268000Y-2179000D01*
X18776000Y-2774000D02*
X18816000Y-2814000D01*
X18816000Y-2774000D02*
X18776000Y-2814000D01*
X18776000Y-3282000D02*
X18816000Y-3322000D01*
X18816000Y-3282000D02*
X18776000Y-3322000D01*
X18776000Y-3409000D02*
X18816000Y-3449000D01*
X18816000Y-3409000D02*
X18776000Y-3449000D01*
X18776000Y-3790000D02*
X18816000Y-3830000D01*
X18816000Y-3790000D02*
X18776000Y-3830000D01*
X18776000Y-5314000D02*
X18816000Y-5354000D01*
X18816000Y-5314000D02*
X18776000Y-5354000D01*
X18776000Y-5441000D02*
X18816000Y-5481000D01*
X18816000Y-5441000D02*
X18776000Y-5481000D01*
X18776000Y-5568000D02*
X18816000Y-5608000D01*
X18816000Y-5568000D02*
X18776000Y-5608000D01*
X18903000Y-2774000D02*
X18943000Y-2814000D01*
X18943000Y-2774000D02*
X18903000Y-2814000D01*
X18903000Y-3282000D02*
X18943000Y-3322000D01*
X18943000Y-3282000D02*
X18903000Y-3322000D01*
X18903000Y-3409000D02*
X18943000Y-3449000D01*
X18943000Y-3409000D02*
X18903000Y-3449000D01*
X18903000Y-3790000D02*
X18943000Y-3830000D01*
X18943000Y-3790000D02*
X18903000Y-3830000D01*
X18903000Y-5314000D02*
X18943000Y-5354000D01*
X18943000Y-5314000D02*
X18903000Y-5354000D01*
X18903000Y-5441000D02*
X18943000Y-5481000D01*
X18943000Y-5441000D02*
X18903000Y-5481000D01*
X18903000Y-5568000D02*
X18943000Y-5608000D01*
X18943000Y-5568000D02*
X18903000Y-5608000D01*
X19030000Y-2774000D02*
X19070000Y-2814000D01*
X19070000Y-2774000D02*
X19030000Y-2814000D01*
X19030000Y-3282000D02*
X19070000Y-3322000D01*
X19070000Y-3282000D02*
X19030000Y-3322000D01*
X19030000Y-3409000D02*
X19070000Y-3449000D01*
X19070000Y-3409000D02*
X19030000Y-3449000D01*
X19030000Y-3790000D02*
X19070000Y-3830000D01*
X19070000Y-3790000D02*
X19030000Y-3830000D01*
X19284000Y-4361500D02*
X19324000Y-4401500D01*
X19324000Y-4361500D02*
X19284000Y-4401500D01*
X19284000Y-4488500D02*
X19324000Y-4528500D01*
X19324000Y-4488500D02*
X19284000Y-4528500D01*
X19411000Y-4361500D02*
X19451000Y-4401500D01*
X19451000Y-4361500D02*
X19411000Y-4401500D01*
X19411000Y-4488500D02*
X19451000Y-4528500D01*
X19451000Y-4488500D02*
X19411000Y-4528500D01*
X19474500Y-5695000D02*
X19514500Y-5735000D01*
X19514500Y-5695000D02*
X19474500Y-5735000D01*
X19474500Y-5822000D02*
X19514500Y-5862000D01*
X19514500Y-5822000D02*
X19474500Y-5862000D01*
X19538000Y-4361500D02*
X19578000Y-4401500D01*
X19578000Y-4361500D02*
X19538000Y-4401500D01*
X19538000Y-4488500D02*
X19578000Y-4528500D01*
X19578000Y-4488500D02*
X19538000Y-4528500D01*
X19601500Y-5695000D02*
X19641500Y-5735000D01*
X19641500Y-5695000D02*
X19601500Y-5735000D01*
X19601500Y-5822000D02*
X19641500Y-5862000D01*
X19641500Y-5822000D02*
X19601500Y-5862000D01*
X19665000Y-4361500D02*
X19705000Y-4401500D01*
X19705000Y-4361500D02*
X19665000Y-4401500D01*
X19665000Y-4488500D02*
X19705000Y-4528500D01*
X19705000Y-4488500D02*
X19665000Y-4528500D01*
X19855500Y-2012000D02*
X19895500Y-2052000D01*
X19895500Y-2012000D02*
X19855500Y-2052000D01*
X19982500Y-2012000D02*
X20022500Y-2052000D01*
X20022500Y-2012000D02*
X19982500Y-2052000D01*
X20871500Y-5060000D02*
X20911500Y-5100000D01*
X20911500Y-5060000D02*
X20871500Y-5100000D01*
X20871500Y-5187000D02*
X20911500Y-5227000D01*
X20911500Y-5187000D02*
X20871500Y-5227000D01*
X20871500Y-5314000D02*
X20911500Y-5354000D01*
X20911500Y-5314000D02*
X20871500Y-5354000D01*
X20998500Y-5060000D02*
X21038500Y-5100000D01*
X21038500Y-5060000D02*
X20998500Y-5100000D01*
X20998500Y-5187000D02*
X21038500Y-5227000D01*
X21038500Y-5187000D02*
X20998500Y-5227000D01*
X20998500Y-5314000D02*
X21038500Y-5354000D01*
X21038500Y-5314000D02*
X20998500Y-5354000D01*
X21058000Y-6524500D02*
X21098000Y-6564500D01*
X21098000Y-6524500D02*
X21058000Y-6564500D01*
X21062000Y-6139500D02*
X21102000Y-6179500D01*
X21102000Y-6139500D02*
X21062000Y-6179500D01*
X21062000Y-6266500D02*
X21102000Y-6306500D01*
X21102000Y-6266500D02*
X21062000Y-6306500D01*
X21062000Y-6393500D02*
X21102000Y-6433500D01*
X21102000Y-6393500D02*
X21062000Y-6433500D01*
X21062000Y-6647500D02*
X21102000Y-6687500D01*
X21102000Y-6647500D02*
X21062000Y-6687500D01*
X21125500Y-1948500D02*
X21165500Y-1988500D01*
X21165500Y-1948500D02*
X21125500Y-1988500D01*
X21125500Y-2075500D02*
X21165500Y-2115500D01*
X21165500Y-2075500D02*
X21125500Y-2115500D01*
X21185000Y-6524500D02*
X21225000Y-6564500D01*
X21225000Y-6524500D02*
X21185000Y-6564500D01*
X21189000Y-6139500D02*
X21229000Y-6179500D01*
X21229000Y-6139500D02*
X21189000Y-6179500D01*
X21189000Y-6266500D02*
X21229000Y-6306500D01*
X21229000Y-6266500D02*
X21189000Y-6306500D01*
X21189000Y-6393500D02*
X21229000Y-6433500D01*
X21229000Y-6393500D02*
X21189000Y-6433500D01*
X21189000Y-6647500D02*
X21229000Y-6687500D01*
X21229000Y-6647500D02*
X21189000Y-6687500D01*
X21252500Y-1948500D02*
X21292500Y-1988500D01*
X21292500Y-1948500D02*
X21252500Y-1988500D01*
X21252500Y-2075500D02*
X21292500Y-2115500D01*
X21292500Y-2075500D02*
X21252500Y-2115500D01*
X21312000Y-6524500D02*
X21352000Y-6564500D01*
X21352000Y-6524500D02*
X21312000Y-6564500D01*
X21316000Y-6139500D02*
X21356000Y-6179500D01*
X21356000Y-6139500D02*
X21316000Y-6179500D01*
X21316000Y-6266500D02*
X21356000Y-6306500D01*
X21356000Y-6266500D02*
X21316000Y-6306500D01*
X21316000Y-6647500D02*
X21356000Y-6687500D01*
X21356000Y-6647500D02*
X21316000Y-6687500D01*
X21379500Y-3345500D02*
X21419500Y-3385500D01*
X21419500Y-3345500D02*
X21379500Y-3385500D01*
X21506500Y-3345500D02*
X21546500Y-3385500D01*
X21546500Y-3345500D02*
X21506500Y-3385500D01*
X21506500Y-5123500D02*
X21546500Y-5163500D01*
X21546500Y-5123500D02*
X21506500Y-5163500D01*
X21506500Y-5250500D02*
X21546500Y-5290500D01*
X21546500Y-5250500D02*
X21506500Y-5290500D01*
X21506500Y-5377500D02*
X21546500Y-5417500D01*
X21546500Y-5377500D02*
X21506500Y-5417500D01*
X21506500Y-5504500D02*
X21546500Y-5544500D01*
X21546500Y-5504500D02*
X21506500Y-5544500D01*
X21506500Y-5631500D02*
X21546500Y-5671500D01*
X21546500Y-5631500D02*
X21506500Y-5671500D01*
X21633500Y-3345500D02*
X21673500Y-3385500D01*
X21673500Y-3345500D02*
X21633500Y-3385500D01*
X21633500Y-4298000D02*
X21673500Y-4338000D01*
X21673500Y-4298000D02*
X21633500Y-4338000D01*
X21633500Y-4425000D02*
X21673500Y-4465000D01*
X21673500Y-4425000D02*
X21633500Y-4465000D01*
X21633500Y-5123500D02*
X21673500Y-5163500D01*
X21673500Y-5123500D02*
X21633500Y-5163500D01*
X21633500Y-5250500D02*
X21673500Y-5290500D01*
X21673500Y-5250500D02*
X21633500Y-5290500D01*
X21760500Y-4298000D02*
X21800500Y-4338000D01*
X21800500Y-4298000D02*
X21760500Y-4338000D01*
X21760500Y-4425000D02*
X21800500Y-4465000D01*
X21800500Y-4425000D02*
X21760500Y-4465000D01*
X21760500Y-5123500D02*
X21800500Y-5163500D01*
X21800500Y-5123500D02*
X21760500Y-5163500D01*
X21760500Y-5250500D02*
X21800500Y-5290500D01*
X21800500Y-5250500D02*
X21760500Y-5290500D01*
X21760500Y-5377500D02*
X21800500Y-5417500D01*
X21800500Y-5377500D02*
X21760500Y-5417500D01*
X21760500Y-5504500D02*
X21800500Y-5544500D01*
X21800500Y-5504500D02*
X21760500Y-5544500D01*
X21760500Y-5631500D02*
X21800500Y-5671500D01*
X21800500Y-5631500D02*
X21760500Y-5671500D01*
X21887500Y-4298000D02*
X21927500Y-4338000D01*
X21927500Y-4298000D02*
X21887500Y-4338000D01*
X21887500Y-4425000D02*
X21927500Y-4465000D01*
X21927500Y-4425000D02*
X21887500Y-4465000D01*
X22205000Y-1948500D02*
X22245000Y-1988500D01*
X22245000Y-1948500D02*
X22205000Y-1988500D01*
X22205000Y-2075500D02*
X22245000Y-2115500D01*
X22245000Y-2075500D02*
X22205000Y-2115500D01*
X22332000Y-1948500D02*
X22372000Y-1988500D01*
X22372000Y-1948500D02*
X22332000Y-1988500D01*
X22332000Y-2075500D02*
X22372000Y-2115500D01*
X22372000Y-2075500D02*
X22332000Y-2115500D01*
X22459000Y-3282000D02*
X22499000Y-3322000D01*
X22499000Y-3282000D02*
X22459000Y-3322000D01*
X22459000Y-3409000D02*
X22499000Y-3449000D01*
X22499000Y-3409000D02*
X22459000Y-3449000D01*
X22522500Y-2774000D02*
X22562500Y-2814000D01*
X22562500Y-2774000D02*
X22522500Y-2814000D01*
X22522500Y-2901000D02*
X22562500Y-2941000D01*
X22562500Y-2901000D02*
X22522500Y-2941000D01*
X22522500Y-3028000D02*
X22562500Y-3068000D01*
X22562500Y-3028000D02*
X22522500Y-3068000D01*
X22522500Y-6139500D02*
X22562500Y-6179500D01*
X22562500Y-6139500D02*
X22522500Y-6179500D01*
X22522500Y-6266500D02*
X22562500Y-6306500D01*
X22562500Y-6266500D02*
X22522500Y-6306500D01*
X22586000Y-3282000D02*
X22626000Y-3322000D01*
X22626000Y-3282000D02*
X22586000Y-3322000D01*
X22586000Y-3409000D02*
X22626000Y-3449000D01*
X22626000Y-3409000D02*
X22586000Y-3449000D01*
X22649500Y-2774000D02*
X22689500Y-2814000D01*
X22689500Y-2774000D02*
X22649500Y-2814000D01*
X22649500Y-2901000D02*
X22689500Y-2941000D01*
X22689500Y-2901000D02*
X22649500Y-2941000D01*
X22649500Y-3028000D02*
X22689500Y-3068000D01*
X22689500Y-3028000D02*
X22649500Y-3068000D01*
X22649500Y-5187000D02*
X22689500Y-5227000D01*
X22689500Y-5187000D02*
X22649500Y-5227000D01*
X22649500Y-5314000D02*
X22689500Y-5354000D01*
X22689500Y-5314000D02*
X22649500Y-5354000D01*
X22649500Y-5441000D02*
X22689500Y-5481000D01*
X22689500Y-5441000D02*
X22649500Y-5481000D01*
X22649500Y-6139500D02*
X22689500Y-6179500D01*
X22689500Y-6139500D02*
X22649500Y-6179500D01*
X22776500Y-2774000D02*
X22816500Y-2814000D01*
X22816500Y-2774000D02*
X22776500Y-2814000D01*
X22776500Y-2901000D02*
X22816500Y-2941000D01*
X22816500Y-2901000D02*
X22776500Y-2941000D01*
X22776500Y-3028000D02*
X22816500Y-3068000D01*
X22816500Y-3028000D02*
X22776500Y-3068000D01*
X22776500Y-5187000D02*
X22816500Y-5227000D01*
X22816500Y-5187000D02*
X22776500Y-5227000D01*
X22776500Y-5314000D02*
X22816500Y-5354000D01*
X22816500Y-5314000D02*
X22776500Y-5354000D01*
X22776500Y-5441000D02*
X22816500Y-5481000D01*
X22816500Y-5441000D02*
X22776500Y-5481000D01*
X22901534Y-5178673D02*
X22941534Y-5218673D01*
X22941534Y-5178673D02*
X22901534Y-5218673D01*
X22903500Y-2774000D02*
X22943500Y-2814000D01*
X22943500Y-2774000D02*
X22903500Y-2814000D01*
X22903500Y-2901000D02*
X22943500Y-2941000D01*
X22943500Y-2901000D02*
X22903500Y-2941000D01*
X22903500Y-3028000D02*
X22943500Y-3068000D01*
X22943500Y-3028000D02*
X22903500Y-3068000D01*
X22903500Y-5314000D02*
X22943500Y-5354000D01*
X22943500Y-5314000D02*
X22903500Y-5354000D01*
X22903500Y-5441000D02*
X22943500Y-5481000D01*
X22943500Y-5441000D02*
X22903500Y-5481000D01*
X23094000Y-3472500D02*
X23134000Y-3512500D01*
X23134000Y-3472500D02*
X23094000Y-3512500D01*
X23221000Y-2012000D02*
X23261000Y-2052000D01*
X23261000Y-2012000D02*
X23221000Y-2052000D01*
X23221000Y-2139000D02*
X23261000Y-2179000D01*
X23261000Y-2139000D02*
X23221000Y-2179000D01*
X23221000Y-3472500D02*
X23261000Y-3512500D01*
X23261000Y-3472500D02*
X23221000Y-3512500D01*
X23411500Y-7092000D02*
X23451500Y-7132000D01*
X23451500Y-7092000D02*
X23411500Y-7132000D01*
X23538500Y-7092000D02*
X23578500Y-7132000D01*
X23578500Y-7092000D02*
X23538500Y-7132000D01*
X23983000Y-3155000D02*
X24023000Y-3195000D01*
X24023000Y-3155000D02*
X23983000Y-3195000D01*
X23983000Y-3282000D02*
X24023000Y-3322000D01*
X24023000Y-3282000D02*
X23983000Y-3322000D01*
X23983000Y-3409000D02*
X24023000Y-3449000D01*
X24023000Y-3409000D02*
X23983000Y-3449000D01*
D13*
X19905500Y-2921000D02*
G75*
G03*
X19905500Y-2921000I-30000J0D01*
G01*
D11*
X19655500Y-2941000D02*
X20095500Y-2941000D01*
X19655500Y-2901000D02*
X20095500Y-2901000D01*
X20095500Y-2941000D02*
G75*
G03*
X20095500Y-2901000I0J20000D01*
G01*
X19655500Y-2901000D02*
G75*
G03*
X19655500Y-2941000I0J-20000D01*
G01*
D13*
X19905500Y-4191000D02*
G75*
G03*
X19905500Y-4191000I-30000J0D01*
G01*
D11*
X19655500Y-4211000D02*
X20095500Y-4211000D01*
X19655500Y-4171000D02*
X20095500Y-4171000D01*
X20095500Y-4211000D02*
G75*
G03*
X20095500Y-4171000I0J20000D01*
G01*
X19655500Y-4171000D02*
G75*
G03*
X19655500Y-4211000I0J-20000D01*
G01*
D13*
X19905500Y-5588000D02*
G75*
G03*
X19905500Y-5588000I-30000J0D01*
G01*
X19905500Y-6667500D02*
G75*
G03*
X19905500Y-6667500I-30000J0D01*
G01*
X20085500Y-5088000D02*
G75*
G03*
X20085500Y-5088000I-30000J0D01*
G01*
X20085500Y-6167500D02*
G75*
G03*
X20085500Y-6167500I-30000J0D01*
G01*
X21683500Y-2921000D02*
G75*
G03*
X21683500Y-2921000I-30000J0D01*
G01*
D11*
X21433500Y-2941000D02*
X21873500Y-2941000D01*
X21433500Y-2901000D02*
X21873500Y-2901000D01*
X21873500Y-2941000D02*
G75*
G03*
X21873500Y-2901000I0J20000D01*
G01*
X21433500Y-2901000D02*
G75*
G03*
X21433500Y-2941000I0J-20000D01*
G01*
D13*
X21683500Y-4191000D02*
G75*
G03*
X21683500Y-4191000I-30000J0D01*
G01*
D11*
X21433500Y-4211000D02*
X21873500Y-4211000D01*
X21433500Y-4171000D02*
X21873500Y-4171000D01*
X21873500Y-4211000D02*
G75*
G03*
X21873500Y-4171000I0J20000D01*
G01*
X21433500Y-4171000D02*
G75*
G03*
X21433500Y-4211000I0J-20000D01*
G01*
D14*
X18506000Y-5045500D02*
X18506000Y-5125500D01*
X18466000Y-5085500D02*
X18546000Y-5085500D01*
X18506000Y-5299500D02*
X18506000Y-5379500D01*
X18466000Y-5339500D02*
X18546000Y-5339500D01*
X18506000Y-5553500D02*
X18506000Y-5633500D01*
X18466000Y-5593500D02*
X18546000Y-5593500D01*
X18506000Y-6188500D02*
X18506000Y-6268500D01*
X18466000Y-6228500D02*
X18546000Y-6228500D01*
X18506000Y-6442500D02*
X18506000Y-6522500D01*
X18466000Y-6482500D02*
X18546000Y-6482500D01*
X18506000Y-6696500D02*
X18506000Y-6776500D01*
X18466000Y-6736500D02*
X18546000Y-6736500D01*
X19268000Y-5045500D02*
X19268000Y-5125500D01*
X19228000Y-5085500D02*
X19308000Y-5085500D01*
X19268000Y-5553500D02*
X19268000Y-5633500D01*
X19228000Y-5593500D02*
X19308000Y-5593500D01*
X19268000Y-6188500D02*
X19268000Y-6268500D01*
X19228000Y-6228500D02*
X19308000Y-6228500D01*
X19268000Y-6696500D02*
X19268000Y-6776500D01*
X19228000Y-6736500D02*
X19308000Y-6736500D01*
D15*
X15909856Y-1940856D02*
X15909856Y-1870144D01*
X15839144Y-1870144D01*
X15839144Y-1940856D01*
X15909856Y-1940856D01*
X15909856Y-2194856D02*
X15909856Y-2124144D01*
X15839144Y-2124144D01*
X15839144Y-2194856D01*
X15909856Y-2194856D01*
X15909856Y-2448856D02*
X15909856Y-2378144D01*
X15839144Y-2378144D01*
X15839144Y-2448856D01*
X15909856Y-2448856D01*
X15909856Y-2702856D02*
X15909856Y-2632144D01*
X15839144Y-2632144D01*
X15839144Y-2702856D01*
X15909856Y-2702856D01*
X15909856Y-2956856D02*
X15909856Y-2886144D01*
X15839144Y-2886144D01*
X15839144Y-2956856D01*
X15909856Y-2956856D01*
X15909856Y-3210856D02*
X15909856Y-3140144D01*
X15839144Y-3140144D01*
X15839144Y-3210856D01*
X15909856Y-3210856D01*
X15909856Y-3464856D02*
X15909856Y-3394144D01*
X15839144Y-3394144D01*
X15839144Y-3464856D01*
X15909856Y-3464856D01*
X15909856Y-3718856D02*
X15909856Y-3648144D01*
X15839144Y-3648144D01*
X15839144Y-3718856D01*
X15909856Y-3718856D01*
X15909856Y-3972856D02*
X15909856Y-3902144D01*
X15839144Y-3902144D01*
X15839144Y-3972856D01*
X15909856Y-3972856D01*
X15909856Y-4226856D02*
X15909856Y-4156144D01*
X15839144Y-4156144D01*
X15839144Y-4226856D01*
X15909856Y-4226856D01*
X15909856Y-4480856D02*
X15909856Y-4410144D01*
X15839144Y-4410144D01*
X15839144Y-4480856D01*
X15909856Y-4480856D01*
X15909856Y-4734856D02*
X15909856Y-4664144D01*
X15839144Y-4664144D01*
X15839144Y-4734856D01*
X15909856Y-4734856D01*
X15909856Y-4988856D02*
X15909856Y-4918144D01*
X15839144Y-4918144D01*
X15839144Y-4988856D01*
X15909856Y-4988856D01*
X15909856Y-5242856D02*
X15909856Y-5172144D01*
X15839144Y-5172144D01*
X15839144Y-5242856D01*
X15909856Y-5242856D01*
X15909856Y-5496856D02*
X15909856Y-5426144D01*
X15839144Y-5426144D01*
X15839144Y-5496856D01*
X15909856Y-5496856D01*
X15909856Y-5750856D02*
X15909856Y-5680144D01*
X15839144Y-5680144D01*
X15839144Y-5750856D01*
X15909856Y-5750856D01*
X15909856Y-6004856D02*
X15909856Y-5934144D01*
X15839144Y-5934144D01*
X15839144Y-6004856D01*
X15909856Y-6004856D01*
X15909856Y-6258856D02*
X15909856Y-6188144D01*
X15839144Y-6188144D01*
X15839144Y-6258856D01*
X15909856Y-6258856D01*
X15909856Y-6512856D02*
X15909856Y-6442144D01*
X15839144Y-6442144D01*
X15839144Y-6512856D01*
X15909856Y-6512856D01*
X15909856Y-6766856D02*
X15909856Y-6696144D01*
X15839144Y-6696144D01*
X15839144Y-6766856D01*
X15909856Y-6766856D01*
X16163856Y-1940856D02*
X16163856Y-1870144D01*
X16093144Y-1870144D01*
X16093144Y-1940856D01*
X16163856Y-1940856D01*
X16163856Y-2194856D02*
X16163856Y-2124144D01*
X16093144Y-2124144D01*
X16093144Y-2194856D01*
X16163856Y-2194856D01*
X16163856Y-2448856D02*
X16163856Y-2378144D01*
X16093144Y-2378144D01*
X16093144Y-2448856D01*
X16163856Y-2448856D01*
X16163856Y-2702856D02*
X16163856Y-2632144D01*
X16093144Y-2632144D01*
X16093144Y-2702856D01*
X16163856Y-2702856D01*
X16163856Y-2956856D02*
X16163856Y-2886144D01*
X16093144Y-2886144D01*
X16093144Y-2956856D01*
X16163856Y-2956856D01*
X16163856Y-3210856D02*
X16163856Y-3140144D01*
X16093144Y-3140144D01*
X16093144Y-3210856D01*
X16163856Y-3210856D01*
X16163856Y-3464856D02*
X16163856Y-3394144D01*
X16093144Y-3394144D01*
X16093144Y-3464856D01*
X16163856Y-3464856D01*
X16163856Y-3718856D02*
X16163856Y-3648144D01*
X16093144Y-3648144D01*
X16093144Y-3718856D01*
X16163856Y-3718856D01*
X16163856Y-3972856D02*
X16163856Y-3902144D01*
X16093144Y-3902144D01*
X16093144Y-3972856D01*
X16163856Y-3972856D01*
X16163856Y-4226856D02*
X16163856Y-4156144D01*
X16093144Y-4156144D01*
X16093144Y-4226856D01*
X16163856Y-4226856D01*
X16163856Y-4480856D02*
X16163856Y-4410144D01*
X16093144Y-4410144D01*
X16093144Y-4480856D01*
X16163856Y-4480856D01*
X16163856Y-4734856D02*
X16163856Y-4664144D01*
X16093144Y-4664144D01*
X16093144Y-4734856D01*
X16163856Y-4734856D01*
X16163856Y-4988856D02*
X16163856Y-4918144D01*
X16093144Y-4918144D01*
X16093144Y-4988856D01*
X16163856Y-4988856D01*
X16163856Y-5242856D02*
X16163856Y-5172144D01*
X16093144Y-5172144D01*
X16093144Y-5242856D01*
X16163856Y-5242856D01*
X16163856Y-5496856D02*
X16163856Y-5426144D01*
X16093144Y-5426144D01*
X16093144Y-5496856D01*
X16163856Y-5496856D01*
X16163856Y-5750856D02*
X16163856Y-5680144D01*
X16093144Y-5680144D01*
X16093144Y-5750856D01*
X16163856Y-5750856D01*
X16163856Y-6004856D02*
X16163856Y-5934144D01*
X16093144Y-5934144D01*
X16093144Y-6004856D01*
X16163856Y-6004856D01*
X16163856Y-6258856D02*
X16163856Y-6188144D01*
X16093144Y-6188144D01*
X16093144Y-6258856D01*
X16163856Y-6258856D01*
X16163856Y-6512856D02*
X16163856Y-6442144D01*
X16093144Y-6442144D01*
X16093144Y-6512856D01*
X16163856Y-6512856D01*
X16163856Y-6766856D02*
X16163856Y-6696144D01*
X16093144Y-6696144D01*
X16093144Y-6766856D01*
X16163856Y-6766856D01*
X23532356Y-1943356D02*
X23532356Y-1872644D01*
X23461644Y-1872644D01*
X23461644Y-1943356D01*
X23532356Y-1943356D01*
X23532356Y-2197356D02*
X23532356Y-2126644D01*
X23461644Y-2126644D01*
X23461644Y-2197356D01*
X23532356Y-2197356D01*
X23532356Y-2451356D02*
X23532356Y-2380644D01*
X23461644Y-2380644D01*
X23461644Y-2451356D01*
X23532356Y-2451356D01*
X23532356Y-2705356D02*
X23532356Y-2634644D01*
X23461644Y-2634644D01*
X23461644Y-2705356D01*
X23532356Y-2705356D01*
X23532356Y-2959356D02*
X23532356Y-2888644D01*
X23461644Y-2888644D01*
X23461644Y-2959356D01*
X23532356Y-2959356D01*
X23532356Y-3213356D02*
X23532356Y-3142644D01*
X23461644Y-3142644D01*
X23461644Y-3213356D01*
X23532356Y-3213356D01*
X23532356Y-3467356D02*
X23532356Y-3396644D01*
X23461644Y-3396644D01*
X23461644Y-3467356D01*
X23532356Y-3467356D01*
X23532356Y-3721356D02*
X23532356Y-3650644D01*
X23461644Y-3650644D01*
X23461644Y-3721356D01*
X23532356Y-3721356D01*
X23532356Y-3975356D02*
X23532356Y-3904644D01*
X23461644Y-3904644D01*
X23461644Y-3975356D01*
X23532356Y-3975356D01*
X23532356Y-4229356D02*
X23532356Y-4158644D01*
X23461644Y-4158644D01*
X23461644Y-4229356D01*
X23532356Y-4229356D01*
X23532356Y-4483356D02*
X23532356Y-4412644D01*
X23461644Y-4412644D01*
X23461644Y-4483356D01*
X23532356Y-4483356D01*
X23532356Y-4737356D02*
X23532356Y-4666644D01*
X23461644Y-4666644D01*
X23461644Y-4737356D01*
X23532356Y-4737356D01*
X23532356Y-4991356D02*
X23532356Y-4920644D01*
X23461644Y-4920644D01*
X23461644Y-4991356D01*
X23532356Y-4991356D01*
X23532356Y-5245356D02*
X23532356Y-5174644D01*
X23461644Y-5174644D01*
X23461644Y-5245356D01*
X23532356Y-5245356D01*
X23532356Y-5499356D02*
X23532356Y-5428644D01*
X23461644Y-5428644D01*
X23461644Y-5499356D01*
X23532356Y-5499356D01*
X23532356Y-5753356D02*
X23532356Y-5682644D01*
X23461644Y-5682644D01*
X23461644Y-5753356D01*
X23532356Y-5753356D01*
X23532356Y-6007356D02*
X23532356Y-5936644D01*
X23461644Y-5936644D01*
X23461644Y-6007356D01*
X23532356Y-6007356D01*
X23532356Y-6261356D02*
X23532356Y-6190644D01*
X23461644Y-6190644D01*
X23461644Y-6261356D01*
X23532356Y-6261356D01*
X23532356Y-6515356D02*
X23532356Y-6444644D01*
X23461644Y-6444644D01*
X23461644Y-6515356D01*
X23532356Y-6515356D01*
X23532356Y-6769356D02*
X23532356Y-6698644D01*
X23461644Y-6698644D01*
X23461644Y-6769356D01*
X23532356Y-6769356D01*
X23786356Y-1943356D02*
X23786356Y-1872644D01*
X23715644Y-1872644D01*
X23715644Y-1943356D01*
X23786356Y-1943356D01*
X23786356Y-2197356D02*
X23786356Y-2126644D01*
X23715644Y-2126644D01*
X23715644Y-2197356D01*
X23786356Y-2197356D01*
X23786356Y-2451356D02*
X23786356Y-2380644D01*
X23715644Y-2380644D01*
X23715644Y-2451356D01*
X23786356Y-2451356D01*
X23786356Y-2705356D02*
X23786356Y-2634644D01*
X23715644Y-2634644D01*
X23715644Y-2705356D01*
X23786356Y-2705356D01*
X23786356Y-2959356D02*
X23786356Y-2888644D01*
X23715644Y-2888644D01*
X23715644Y-2959356D01*
X23786356Y-2959356D01*
X23786356Y-3213356D02*
X23786356Y-3142644D01*
X23715644Y-3142644D01*
X23715644Y-3213356D01*
X23786356Y-3213356D01*
X23786356Y-3467356D02*
X23786356Y-3396644D01*
X23715644Y-3396644D01*
X23715644Y-3467356D01*
X23786356Y-3467356D01*
X23786356Y-3721356D02*
X23786356Y-3650644D01*
X23715644Y-3650644D01*
X23715644Y-3721356D01*
X23786356Y-3721356D01*
X23786356Y-3975356D02*
X23786356Y-3904644D01*
X23715644Y-3904644D01*
X23715644Y-3975356D01*
X23786356Y-3975356D01*
X23786356Y-4229356D02*
X23786356Y-4158644D01*
X23715644Y-4158644D01*
X23715644Y-4229356D01*
X23786356Y-4229356D01*
X23786356Y-4483356D02*
X23786356Y-4412644D01*
X23715644Y-4412644D01*
X23715644Y-4483356D01*
X23786356Y-4483356D01*
X23786356Y-4737356D02*
X23786356Y-4666644D01*
X23715644Y-4666644D01*
X23715644Y-4737356D01*
X23786356Y-4737356D01*
X23786356Y-4991356D02*
X23786356Y-4920644D01*
X23715644Y-4920644D01*
X23715644Y-4991356D01*
X23786356Y-4991356D01*
X23786356Y-5245356D02*
X23786356Y-5174644D01*
X23715644Y-5174644D01*
X23715644Y-5245356D01*
X23786356Y-5245356D01*
X23786356Y-5499356D02*
X23786356Y-5428644D01*
X23715644Y-5428644D01*
X23715644Y-5499356D01*
X23786356Y-5499356D01*
X23786356Y-5753356D02*
X23786356Y-5682644D01*
X23715644Y-5682644D01*
X23715644Y-5753356D01*
X23786356Y-5753356D01*
X23786356Y-6007356D02*
X23786356Y-5936644D01*
X23715644Y-5936644D01*
X23715644Y-6007356D01*
X23786356Y-6007356D01*
X23786356Y-6261356D02*
X23786356Y-6190644D01*
X23715644Y-6190644D01*
X23715644Y-6261356D01*
X23786356Y-6261356D01*
X23786356Y-6515356D02*
X23786356Y-6444644D01*
X23715644Y-6444644D01*
X23715644Y-6515356D01*
X23786356Y-6515356D01*
X23786356Y-6769356D02*
X23786356Y-6698644D01*
X23715644Y-6698644D01*
X23715644Y-6769356D01*
X23786356Y-6769356D01*
D16*
X20503000Y-5202500D02*
X20558000Y-5147500D01*
X20503000Y-5092500D01*
X20448000Y-5147500D01*
X20503000Y-5202500D01*
X20503000Y-5456500D02*
X20558000Y-5401500D01*
X20503000Y-5346500D01*
X20448000Y-5401500D01*
X20503000Y-5456500D01*
X20503000Y-5710500D02*
X20558000Y-5655500D01*
X20503000Y-5600500D01*
X20448000Y-5655500D01*
X20503000Y-5710500D01*
X20503000Y-6345500D02*
X20558000Y-6290500D01*
X20503000Y-6235500D01*
X20448000Y-6290500D01*
X20503000Y-6345500D01*
X20503000Y-6599500D02*
X20558000Y-6544500D01*
X20503000Y-6489500D01*
X20448000Y-6544500D01*
X20503000Y-6599500D01*
X20503000Y-6853500D02*
X20558000Y-6798500D01*
X20503000Y-6743500D01*
X20448000Y-6798500D01*
X20503000Y-6853500D01*
D17*
X17456000Y-1962000D02*
X17596000Y-2102000D01*
X17596000Y-1962000D02*
X17456000Y-2102000D01*
X17596000Y-2032000D02*
G75*
G03*
X17596000Y-2032000I-70000J0D01*
G01*
X18726000Y-1962000D02*
X18866000Y-2102000D01*
X18866000Y-1962000D02*
X18726000Y-2102000D01*
X18866000Y-2032000D02*
G75*
G03*
X18866000Y-2032000I-70000J0D01*
G01*
X19170500Y-1962000D02*
X19310500Y-2102000D01*
X19310500Y-1962000D02*
X19170500Y-2102000D01*
X19310500Y-2032000D02*
G75*
G03*
X19310500Y-2032000I-70000J0D01*
G01*
X20440500Y-1962000D02*
X20580500Y-2102000D01*
X20580500Y-1962000D02*
X20440500Y-2102000D01*
X20580500Y-2032000D02*
G75*
G03*
X20580500Y-2032000I-70000J0D01*
G01*
D18*
X16616000Y-1830000D02*
X16766000Y-1980000D01*
X16766000Y-1830000D02*
X16616000Y-1980000D01*
X16691000Y-1830000D02*
X16691000Y-1980000D01*
X16616000Y-1905000D02*
X16766000Y-1905000D01*
X17016000Y-1830000D02*
X17166000Y-1980000D01*
X17166000Y-1830000D02*
X17016000Y-1980000D01*
X17091000Y-1830000D02*
X17091000Y-1980000D01*
X17016000Y-1905000D02*
X17166000Y-1905000D01*
X17055000Y-2851000D02*
X17205000Y-3001000D01*
X17205000Y-2851000D02*
X17055000Y-3001000D01*
X17130000Y-2851000D02*
X17130000Y-3001000D01*
X17055000Y-2926000D02*
X17205000Y-2926000D01*
X17055000Y-3231000D02*
X17205000Y-3381000D01*
X17205000Y-3231000D02*
X17055000Y-3381000D01*
X17130000Y-3231000D02*
X17130000Y-3381000D01*
X17055000Y-3306000D02*
X17205000Y-3306000D01*
X17055000Y-3731000D02*
X17205000Y-3881000D01*
X17205000Y-3731000D02*
X17055000Y-3881000D01*
X17130000Y-3731000D02*
X17130000Y-3881000D01*
X17055000Y-3806000D02*
X17205000Y-3806000D01*
X17055000Y-4231000D02*
X17205000Y-4381000D01*
X17205000Y-4231000D02*
X17055000Y-4381000D01*
X17130000Y-4231000D02*
X17130000Y-4381000D01*
X17055000Y-4306000D02*
X17205000Y-4306000D01*
X18355000Y-2731000D02*
X18505000Y-2881000D01*
X18505000Y-2731000D02*
X18355000Y-2881000D01*
X18430000Y-2731000D02*
X18430000Y-2881000D01*
X18355000Y-2806000D02*
X18505000Y-2806000D01*
X18355000Y-3231000D02*
X18505000Y-3381000D01*
X18505000Y-3231000D02*
X18355000Y-3381000D01*
X18430000Y-3231000D02*
X18430000Y-3381000D01*
X18355000Y-3306000D02*
X18505000Y-3306000D01*
X18355000Y-3731000D02*
X18505000Y-3881000D01*
X18505000Y-3731000D02*
X18355000Y-3881000D01*
X18430000Y-3731000D02*
X18430000Y-3881000D01*
X18355000Y-3806000D02*
X18505000Y-3806000D01*
X18355000Y-4231000D02*
X18505000Y-4381000D01*
X18505000Y-4231000D02*
X18355000Y-4381000D01*
X18430000Y-4231000D02*
X18430000Y-4381000D01*
X18355000Y-4306000D02*
X18505000Y-4306000D01*
D11*
X15746619Y-7681476D02*
X15746619Y-7481476D01*
X15794238Y-7481476D01*
X15822809Y-7491000D01*
X15841857Y-7510048D01*
X15851381Y-7529095D01*
X15860905Y-7567190D01*
X15860905Y-7595762D01*
X15851381Y-7633857D01*
X15841857Y-7652905D01*
X15822809Y-7671952D01*
X15794238Y-7681476D01*
X15746619Y-7681476D01*
X15946619Y-7681476D02*
X15946619Y-7548143D01*
X15946619Y-7586238D02*
X15956143Y-7567190D01*
X15965667Y-7557667D01*
X15984714Y-7548143D01*
X16003762Y-7548143D01*
X16070428Y-7681476D02*
X16070428Y-7548143D01*
X16070428Y-7481476D02*
X16060905Y-7491000D01*
X16070428Y-7500524D01*
X16079952Y-7491000D01*
X16070428Y-7481476D01*
X16070428Y-7500524D01*
X16194238Y-7681476D02*
X16175190Y-7671952D01*
X16165667Y-7652905D01*
X16165667Y-7481476D01*
X16299000Y-7681476D02*
X16279952Y-7671952D01*
X16270428Y-7652905D01*
X16270428Y-7481476D01*
X16527571Y-7681476D02*
X16527571Y-7481476D01*
X16594238Y-7624333D01*
X16660905Y-7481476D01*
X16660905Y-7681476D01*
X16841857Y-7681476D02*
X16841857Y-7576714D01*
X16832333Y-7557667D01*
X16813286Y-7548143D01*
X16775190Y-7548143D01*
X16756143Y-7557667D01*
X16841857Y-7671952D02*
X16822810Y-7681476D01*
X16775190Y-7681476D01*
X16756143Y-7671952D01*
X16746619Y-7652905D01*
X16746619Y-7633857D01*
X16756143Y-7614809D01*
X16775190Y-7605286D01*
X16822810Y-7605286D01*
X16841857Y-7595762D01*
X16937095Y-7548143D02*
X16937095Y-7748143D01*
X16937095Y-7557667D02*
X16956143Y-7548143D01*
X16994238Y-7548143D01*
X17013286Y-7557667D01*
X17022810Y-7567190D01*
X17032333Y-7586238D01*
X17032333Y-7643381D01*
X17022810Y-7662428D01*
X17013286Y-7671952D01*
X16994238Y-7681476D01*
X16956143Y-7681476D01*
X16937095Y-7671952D01*
X17118048Y-7662428D02*
X17127571Y-7671952D01*
X17118048Y-7681476D01*
X17108524Y-7671952D01*
X17118048Y-7662428D01*
X17118048Y-7681476D01*
X17118048Y-7557667D02*
X17127571Y-7567190D01*
X17118048Y-7576714D01*
X17108524Y-7567190D01*
X17118048Y-7557667D01*
X17118048Y-7576714D01*
D12*
X15449000Y-7991000D02*
X15489000Y-8031000D01*
X15489000Y-7991000D02*
X15449000Y-8031000D01*
D11*
X15784714Y-7901476D02*
X15803762Y-7901476D01*
X15822809Y-7911000D01*
X15832333Y-7920524D01*
X15841857Y-7939571D01*
X15851381Y-7977667D01*
X15851381Y-8025286D01*
X15841857Y-8063381D01*
X15832333Y-8082428D01*
X15822809Y-8091952D01*
X15803762Y-8101476D01*
X15784714Y-8101476D01*
X15765667Y-8091952D01*
X15756143Y-8082428D01*
X15746619Y-8063381D01*
X15737095Y-8025286D01*
X15737095Y-7977667D01*
X15746619Y-7939571D01*
X15756143Y-7920524D01*
X15765667Y-7911000D01*
X15784714Y-7901476D01*
X15937095Y-8082428D02*
X15946619Y-8091952D01*
X15937095Y-8101476D01*
X15927571Y-8091952D01*
X15937095Y-8082428D01*
X15937095Y-8101476D01*
X16118048Y-7968143D02*
X16118048Y-8101476D01*
X16070428Y-7891952D02*
X16022809Y-8034809D01*
X16146619Y-8034809D01*
X16260905Y-7901476D02*
X16279952Y-7901476D01*
X16299000Y-7911000D01*
X16308524Y-7920524D01*
X16318048Y-7939571D01*
X16327571Y-7977667D01*
X16327571Y-8025286D01*
X16318048Y-8063381D01*
X16308524Y-8082428D01*
X16299000Y-8091952D01*
X16279952Y-8101476D01*
X16260905Y-8101476D01*
X16241857Y-8091952D01*
X16232333Y-8082428D01*
X16222809Y-8063381D01*
X16213286Y-8025286D01*
X16213286Y-7977667D01*
X16222809Y-7939571D01*
X16232333Y-7920524D01*
X16241857Y-7911000D01*
X16260905Y-7901476D01*
X16451381Y-7901476D02*
X16470428Y-7901476D01*
X16489476Y-7911000D01*
X16499000Y-7920524D01*
X16508524Y-7939571D01*
X16518048Y-7977667D01*
X16518048Y-8025286D01*
X16508524Y-8063381D01*
X16499000Y-8082428D01*
X16489476Y-8091952D01*
X16470428Y-8101476D01*
X16451381Y-8101476D01*
X16432333Y-8091952D01*
X16422809Y-8082428D01*
X16413286Y-8063381D01*
X16403762Y-8025286D01*
X16403762Y-7977667D01*
X16413286Y-7939571D01*
X16422809Y-7920524D01*
X16432333Y-7911000D01*
X16451381Y-7901476D01*
X16603762Y-8101476D02*
X16603762Y-7968143D01*
X16603762Y-7987190D02*
X16613286Y-7977667D01*
X16632333Y-7968143D01*
X16660905Y-7968143D01*
X16679952Y-7977667D01*
X16689476Y-7996714D01*
X16689476Y-8101476D01*
X16689476Y-7996714D02*
X16699000Y-7977667D01*
X16718048Y-7968143D01*
X16746619Y-7968143D01*
X16765667Y-7977667D01*
X16775190Y-7996714D01*
X16775190Y-8101476D01*
X16870429Y-8101476D02*
X16870429Y-7968143D01*
X16870429Y-7987190D02*
X16879952Y-7977667D01*
X16899000Y-7968143D01*
X16927571Y-7968143D01*
X16946619Y-7977667D01*
X16956143Y-7996714D01*
X16956143Y-8101476D01*
X16956143Y-7996714D02*
X16965667Y-7977667D01*
X16984714Y-7968143D01*
X17013286Y-7968143D01*
X17032333Y-7977667D01*
X17041857Y-7996714D01*
X17041857Y-8101476D01*
X17432333Y-7891952D02*
X17260905Y-8149095D01*
X17689476Y-7901476D02*
X17708524Y-7901476D01*
X17727571Y-7911000D01*
X17737095Y-7920524D01*
X17746619Y-7939571D01*
X17756143Y-7977667D01*
X17756143Y-8025286D01*
X17746619Y-8063381D01*
X17737095Y-8082428D01*
X17727571Y-8091952D01*
X17708524Y-8101476D01*
X17689476Y-8101476D01*
X17670429Y-8091952D01*
X17660905Y-8082428D01*
X17651381Y-8063381D01*
X17641857Y-8025286D01*
X17641857Y-7977667D01*
X17651381Y-7939571D01*
X17660905Y-7920524D01*
X17670429Y-7911000D01*
X17689476Y-7901476D01*
X17841857Y-8082428D02*
X17851381Y-8091952D01*
X17841857Y-8101476D01*
X17832333Y-8091952D01*
X17841857Y-8082428D01*
X17841857Y-8101476D01*
X17975190Y-7901476D02*
X17994238Y-7901476D01*
X18013286Y-7911000D01*
X18022810Y-7920524D01*
X18032333Y-7939571D01*
X18041857Y-7977667D01*
X18041857Y-8025286D01*
X18032333Y-8063381D01*
X18022810Y-8082428D01*
X18013286Y-8091952D01*
X17994238Y-8101476D01*
X17975190Y-8101476D01*
X17956143Y-8091952D01*
X17946619Y-8082428D01*
X17937095Y-8063381D01*
X17927571Y-8025286D01*
X17927571Y-7977667D01*
X17937095Y-7939571D01*
X17946619Y-7920524D01*
X17956143Y-7911000D01*
X17975190Y-7901476D01*
X18232333Y-8101476D02*
X18118048Y-8101476D01*
X18175190Y-8101476D02*
X18175190Y-7901476D01*
X18156143Y-7930048D01*
X18137095Y-7949095D01*
X18118048Y-7958619D01*
X18413286Y-7901476D02*
X18318048Y-7901476D01*
X18308524Y-7996714D01*
X18318048Y-7987190D01*
X18337095Y-7977667D01*
X18384714Y-7977667D01*
X18403762Y-7987190D01*
X18413286Y-7996714D01*
X18422810Y-8015762D01*
X18422810Y-8063381D01*
X18413286Y-8082428D01*
X18403762Y-8091952D01*
X18384714Y-8101476D01*
X18337095Y-8101476D01*
X18318048Y-8091952D01*
X18308524Y-8082428D01*
X18489476Y-7901476D02*
X18622810Y-7901476D01*
X18537095Y-8101476D01*
X18689476Y-7901476D02*
X18689476Y-7939571D01*
X18765667Y-7901476D02*
X18765667Y-7939571D01*
X19060905Y-8177667D02*
X19051381Y-8168143D01*
X19032333Y-8139571D01*
X19022810Y-8120524D01*
X19013286Y-8091952D01*
X19003762Y-8044333D01*
X19003762Y-8006238D01*
X19013286Y-7958619D01*
X19022810Y-7930048D01*
X19032333Y-7911000D01*
X19051381Y-7882428D01*
X19060905Y-7872905D01*
X19241857Y-8101476D02*
X19127571Y-8101476D01*
X19184714Y-8101476D02*
X19184714Y-7901476D01*
X19165667Y-7930048D01*
X19146619Y-7949095D01*
X19127571Y-7958619D01*
X19413286Y-7901476D02*
X19375190Y-7901476D01*
X19356143Y-7911000D01*
X19346619Y-7920524D01*
X19327571Y-7949095D01*
X19318048Y-7987190D01*
X19318048Y-8063381D01*
X19327571Y-8082428D01*
X19337095Y-8091952D01*
X19356143Y-8101476D01*
X19394238Y-8101476D01*
X19413286Y-8091952D01*
X19422810Y-8082428D01*
X19432333Y-8063381D01*
X19432333Y-8015762D01*
X19422810Y-7996714D01*
X19413286Y-7987190D01*
X19394238Y-7977667D01*
X19356143Y-7977667D01*
X19337095Y-7987190D01*
X19327571Y-7996714D01*
X19318048Y-8015762D01*
X19556143Y-7901476D02*
X19575190Y-7901476D01*
X19594238Y-7911000D01*
X19603762Y-7920524D01*
X19613286Y-7939571D01*
X19622810Y-7977667D01*
X19622810Y-8025286D01*
X19613286Y-8063381D01*
X19603762Y-8082428D01*
X19594238Y-8091952D01*
X19575190Y-8101476D01*
X19556143Y-8101476D01*
X19537095Y-8091952D01*
X19527571Y-8082428D01*
X19518048Y-8063381D01*
X19508524Y-8025286D01*
X19508524Y-7977667D01*
X19518048Y-7939571D01*
X19527571Y-7920524D01*
X19537095Y-7911000D01*
X19556143Y-7901476D01*
X19860905Y-8101476D02*
X19860905Y-7901476D01*
X19946619Y-8101476D02*
X19946619Y-7996714D01*
X19937095Y-7977667D01*
X19918048Y-7968143D01*
X19889476Y-7968143D01*
X19870429Y-7977667D01*
X19860905Y-7987190D01*
X20070429Y-8101476D02*
X20051381Y-8091952D01*
X20041857Y-8082428D01*
X20032333Y-8063381D01*
X20032333Y-8006238D01*
X20041857Y-7987190D01*
X20051381Y-7977667D01*
X20070429Y-7968143D01*
X20099000Y-7968143D01*
X20118048Y-7977667D01*
X20127571Y-7987190D01*
X20137095Y-8006238D01*
X20137095Y-8063381D01*
X20127571Y-8082428D01*
X20118048Y-8091952D01*
X20099000Y-8101476D01*
X20070429Y-8101476D01*
X20251381Y-8101476D02*
X20232333Y-8091952D01*
X20222810Y-8072905D01*
X20222810Y-7901476D01*
X20403762Y-8091952D02*
X20384714Y-8101476D01*
X20346619Y-8101476D01*
X20327571Y-8091952D01*
X20318048Y-8072905D01*
X20318048Y-7996714D01*
X20327571Y-7977667D01*
X20346619Y-7968143D01*
X20384714Y-7968143D01*
X20403762Y-7977667D01*
X20413286Y-7996714D01*
X20413286Y-8015762D01*
X20318048Y-8034809D01*
X20489476Y-8091952D02*
X20508524Y-8101476D01*
X20546619Y-8101476D01*
X20565667Y-8091952D01*
X20575190Y-8072905D01*
X20575190Y-8063381D01*
X20565667Y-8044333D01*
X20546619Y-8034809D01*
X20518048Y-8034809D01*
X20499000Y-8025286D01*
X20489476Y-8006238D01*
X20489476Y-7996714D01*
X20499000Y-7977667D01*
X20518048Y-7968143D01*
X20546619Y-7968143D01*
X20565667Y-7977667D01*
X20641857Y-8177667D02*
X20651381Y-8168143D01*
X20670429Y-8139571D01*
X20679952Y-8120524D01*
X20689476Y-8091952D01*
X20699000Y-8044333D01*
X20699000Y-8006238D01*
X20689476Y-7958619D01*
X20679952Y-7930048D01*
X20670429Y-7911000D01*
X20651381Y-7882428D01*
X20641857Y-7872905D01*
D13*
X15489000Y-8275000D02*
G75*
G03*
X15489000Y-8275000I-30000J0D01*
G01*
D11*
X15784714Y-8165476D02*
X15803762Y-8165476D01*
X15822809Y-8175000D01*
X15832333Y-8184524D01*
X15841857Y-8203571D01*
X15851381Y-8241667D01*
X15851381Y-8289286D01*
X15841857Y-8327381D01*
X15832333Y-8346428D01*
X15822809Y-8355952D01*
X15803762Y-8365476D01*
X15784714Y-8365476D01*
X15765667Y-8355952D01*
X15756143Y-8346428D01*
X15746619Y-8327381D01*
X15737095Y-8289286D01*
X15737095Y-8241667D01*
X15746619Y-8203571D01*
X15756143Y-8184524D01*
X15765667Y-8175000D01*
X15784714Y-8165476D01*
X15937095Y-8346428D02*
X15946619Y-8355952D01*
X15937095Y-8365476D01*
X15927571Y-8355952D01*
X15937095Y-8346428D01*
X15937095Y-8365476D01*
X16118048Y-8165476D02*
X16079952Y-8165476D01*
X16060905Y-8175000D01*
X16051381Y-8184524D01*
X16032333Y-8213095D01*
X16022809Y-8251190D01*
X16022809Y-8327381D01*
X16032333Y-8346428D01*
X16041857Y-8355952D01*
X16060905Y-8365476D01*
X16099000Y-8365476D01*
X16118048Y-8355952D01*
X16127571Y-8346428D01*
X16137095Y-8327381D01*
X16137095Y-8279762D01*
X16127571Y-8260714D01*
X16118048Y-8251190D01*
X16099000Y-8241667D01*
X16060905Y-8241667D01*
X16041857Y-8251190D01*
X16032333Y-8260714D01*
X16022809Y-8279762D01*
X16260905Y-8165476D02*
X16279952Y-8165476D01*
X16299000Y-8175000D01*
X16308524Y-8184524D01*
X16318048Y-8203571D01*
X16327571Y-8241667D01*
X16327571Y-8289286D01*
X16318048Y-8327381D01*
X16308524Y-8346428D01*
X16299000Y-8355952D01*
X16279952Y-8365476D01*
X16260905Y-8365476D01*
X16241857Y-8355952D01*
X16232333Y-8346428D01*
X16222809Y-8327381D01*
X16213286Y-8289286D01*
X16213286Y-8241667D01*
X16222809Y-8203571D01*
X16232333Y-8184524D01*
X16241857Y-8175000D01*
X16260905Y-8165476D01*
X16451381Y-8165476D02*
X16470428Y-8165476D01*
X16489476Y-8175000D01*
X16499000Y-8184524D01*
X16508524Y-8203571D01*
X16518048Y-8241667D01*
X16518048Y-8289286D01*
X16508524Y-8327381D01*
X16499000Y-8346428D01*
X16489476Y-8355952D01*
X16470428Y-8365476D01*
X16451381Y-8365476D01*
X16432333Y-8355952D01*
X16422809Y-8346428D01*
X16413286Y-8327381D01*
X16403762Y-8289286D01*
X16403762Y-8241667D01*
X16413286Y-8203571D01*
X16422809Y-8184524D01*
X16432333Y-8175000D01*
X16451381Y-8165476D01*
X16603762Y-8365476D02*
X16603762Y-8232143D01*
X16603762Y-8251190D02*
X16613286Y-8241667D01*
X16632333Y-8232143D01*
X16660905Y-8232143D01*
X16679952Y-8241667D01*
X16689476Y-8260714D01*
X16689476Y-8365476D01*
X16689476Y-8260714D02*
X16699000Y-8241667D01*
X16718048Y-8232143D01*
X16746619Y-8232143D01*
X16765667Y-8241667D01*
X16775190Y-8260714D01*
X16775190Y-8365476D01*
X16870429Y-8365476D02*
X16870429Y-8232143D01*
X16870429Y-8251190D02*
X16879952Y-8241667D01*
X16899000Y-8232143D01*
X16927571Y-8232143D01*
X16946619Y-8241667D01*
X16956143Y-8260714D01*
X16956143Y-8365476D01*
X16956143Y-8260714D02*
X16965667Y-8241667D01*
X16984714Y-8232143D01*
X17013286Y-8232143D01*
X17032333Y-8241667D01*
X17041857Y-8260714D01*
X17041857Y-8365476D01*
X17432333Y-8155952D02*
X17260905Y-8413095D01*
X17689476Y-8165476D02*
X17708524Y-8165476D01*
X17727571Y-8175000D01*
X17737095Y-8184524D01*
X17746619Y-8203571D01*
X17756143Y-8241667D01*
X17756143Y-8289286D01*
X17746619Y-8327381D01*
X17737095Y-8346428D01*
X17727571Y-8355952D01*
X17708524Y-8365476D01*
X17689476Y-8365476D01*
X17670429Y-8355952D01*
X17660905Y-8346428D01*
X17651381Y-8327381D01*
X17641857Y-8289286D01*
X17641857Y-8241667D01*
X17651381Y-8203571D01*
X17660905Y-8184524D01*
X17670429Y-8175000D01*
X17689476Y-8165476D01*
X17841857Y-8346428D02*
X17851381Y-8355952D01*
X17841857Y-8365476D01*
X17832333Y-8355952D01*
X17841857Y-8346428D01*
X17841857Y-8365476D01*
X17975190Y-8165476D02*
X17994238Y-8165476D01*
X18013286Y-8175000D01*
X18022810Y-8184524D01*
X18032333Y-8203571D01*
X18041857Y-8241667D01*
X18041857Y-8289286D01*
X18032333Y-8327381D01*
X18022810Y-8346428D01*
X18013286Y-8355952D01*
X17994238Y-8365476D01*
X17975190Y-8365476D01*
X17956143Y-8355952D01*
X17946619Y-8346428D01*
X17937095Y-8327381D01*
X17927571Y-8289286D01*
X17927571Y-8241667D01*
X17937095Y-8203571D01*
X17946619Y-8184524D01*
X17956143Y-8175000D01*
X17975190Y-8165476D01*
X18118048Y-8184524D02*
X18127571Y-8175000D01*
X18146619Y-8165476D01*
X18194238Y-8165476D01*
X18213286Y-8175000D01*
X18222810Y-8184524D01*
X18232333Y-8203571D01*
X18232333Y-8222619D01*
X18222810Y-8251190D01*
X18108524Y-8365476D01*
X18232333Y-8365476D01*
X18299000Y-8165476D02*
X18422810Y-8165476D01*
X18356143Y-8241667D01*
X18384714Y-8241667D01*
X18403762Y-8251190D01*
X18413286Y-8260714D01*
X18422810Y-8279762D01*
X18422810Y-8327381D01*
X18413286Y-8346428D01*
X18403762Y-8355952D01*
X18384714Y-8365476D01*
X18327571Y-8365476D01*
X18308524Y-8355952D01*
X18299000Y-8346428D01*
X18594238Y-8165476D02*
X18556143Y-8165476D01*
X18537095Y-8175000D01*
X18527571Y-8184524D01*
X18508524Y-8213095D01*
X18499000Y-8251190D01*
X18499000Y-8327381D01*
X18508524Y-8346428D01*
X18518048Y-8355952D01*
X18537095Y-8365476D01*
X18575190Y-8365476D01*
X18594238Y-8355952D01*
X18603762Y-8346428D01*
X18613286Y-8327381D01*
X18613286Y-8279762D01*
X18603762Y-8260714D01*
X18594238Y-8251190D01*
X18575190Y-8241667D01*
X18537095Y-8241667D01*
X18518048Y-8251190D01*
X18508524Y-8260714D01*
X18499000Y-8279762D01*
X18689476Y-8165476D02*
X18689476Y-8203571D01*
X18765667Y-8165476D02*
X18765667Y-8203571D01*
X19060905Y-8441667D02*
X19051381Y-8432143D01*
X19032333Y-8403571D01*
X19022810Y-8384524D01*
X19013286Y-8355952D01*
X19003762Y-8308333D01*
X19003762Y-8270238D01*
X19013286Y-8222619D01*
X19022810Y-8194048D01*
X19032333Y-8175000D01*
X19051381Y-8146428D01*
X19060905Y-8136905D01*
X19222810Y-8232143D02*
X19222810Y-8365476D01*
X19175190Y-8155952D02*
X19127571Y-8298809D01*
X19251381Y-8298809D01*
X19479952Y-8365476D02*
X19479952Y-8165476D01*
X19565667Y-8365476D02*
X19565667Y-8260714D01*
X19556143Y-8241667D01*
X19537095Y-8232143D01*
X19508524Y-8232143D01*
X19489476Y-8241667D01*
X19479952Y-8251190D01*
X19689476Y-8365476D02*
X19670429Y-8355952D01*
X19660905Y-8346428D01*
X19651381Y-8327381D01*
X19651381Y-8270238D01*
X19660905Y-8251190D01*
X19670429Y-8241667D01*
X19689476Y-8232143D01*
X19718048Y-8232143D01*
X19737095Y-8241667D01*
X19746619Y-8251190D01*
X19756143Y-8270238D01*
X19756143Y-8327381D01*
X19746619Y-8346428D01*
X19737095Y-8355952D01*
X19718048Y-8365476D01*
X19689476Y-8365476D01*
X19870429Y-8365476D02*
X19851381Y-8355952D01*
X19841857Y-8336905D01*
X19841857Y-8165476D01*
X20022810Y-8355952D02*
X20003762Y-8365476D01*
X19965667Y-8365476D01*
X19946619Y-8355952D01*
X19937095Y-8336905D01*
X19937095Y-8260714D01*
X19946619Y-8241667D01*
X19965667Y-8232143D01*
X20003762Y-8232143D01*
X20022810Y-8241667D01*
X20032333Y-8260714D01*
X20032333Y-8279762D01*
X19937095Y-8298809D01*
X20108524Y-8355952D02*
X20127571Y-8365476D01*
X20165667Y-8365476D01*
X20184714Y-8355952D01*
X20194238Y-8336905D01*
X20194238Y-8327381D01*
X20184714Y-8308333D01*
X20165667Y-8298809D01*
X20137095Y-8298809D01*
X20118048Y-8289286D01*
X20108524Y-8270238D01*
X20108524Y-8260714D01*
X20118048Y-8241667D01*
X20137095Y-8232143D01*
X20165667Y-8232143D01*
X20184714Y-8241667D01*
X20432333Y-8289286D02*
X20584714Y-8289286D01*
X20508524Y-8365476D02*
X20508524Y-8213095D01*
X20918048Y-8232143D02*
X20918048Y-8365476D01*
X20870429Y-8155952D02*
X20822810Y-8298809D01*
X20946619Y-8298809D01*
X21165667Y-8355952D02*
X21184714Y-8365476D01*
X21222810Y-8365476D01*
X21241857Y-8355952D01*
X21251381Y-8336905D01*
X21251381Y-8327381D01*
X21241857Y-8308333D01*
X21222810Y-8298809D01*
X21194238Y-8298809D01*
X21175190Y-8289286D01*
X21165667Y-8270238D01*
X21165667Y-8260714D01*
X21175190Y-8241667D01*
X21194238Y-8232143D01*
X21222810Y-8232143D01*
X21241857Y-8241667D01*
X21365667Y-8365476D02*
X21346619Y-8355952D01*
X21337095Y-8336905D01*
X21337095Y-8165476D01*
X21470429Y-8365476D02*
X21451381Y-8355952D01*
X21441857Y-8346428D01*
X21432333Y-8327381D01*
X21432333Y-8270238D01*
X21441857Y-8251190D01*
X21451381Y-8241667D01*
X21470429Y-8232143D01*
X21499000Y-8232143D01*
X21518048Y-8241667D01*
X21527571Y-8251190D01*
X21537095Y-8270238D01*
X21537095Y-8327381D01*
X21527571Y-8346428D01*
X21518048Y-8355952D01*
X21499000Y-8365476D01*
X21470429Y-8365476D01*
X21594238Y-8232143D02*
X21670429Y-8232143D01*
X21622810Y-8165476D02*
X21622810Y-8336905D01*
X21632333Y-8355952D01*
X21651381Y-8365476D01*
X21670429Y-8365476D01*
X21727571Y-8355952D02*
X21746619Y-8365476D01*
X21784714Y-8365476D01*
X21803762Y-8355952D01*
X21813286Y-8336905D01*
X21813286Y-8327381D01*
X21803762Y-8308333D01*
X21784714Y-8298809D01*
X21756143Y-8298809D01*
X21737095Y-8289286D01*
X21727571Y-8270238D01*
X21727571Y-8260714D01*
X21737095Y-8241667D01*
X21756143Y-8232143D01*
X21784714Y-8232143D01*
X21803762Y-8241667D01*
X21879952Y-8441667D02*
X21889476Y-8432143D01*
X21908524Y-8403571D01*
X21918048Y-8384524D01*
X21927571Y-8355952D01*
X21937095Y-8308333D01*
X21937095Y-8270238D01*
X21927571Y-8222619D01*
X21918048Y-8194048D01*
X21908524Y-8175000D01*
X21889476Y-8146428D01*
X21879952Y-8136905D01*
D14*
X15449000Y-8499000D02*
X15449000Y-8579000D01*
X15409000Y-8539000D02*
X15489000Y-8539000D01*
D11*
X15784714Y-8429476D02*
X15803762Y-8429476D01*
X15822809Y-8439000D01*
X15832333Y-8448524D01*
X15841857Y-8467571D01*
X15851381Y-8505667D01*
X15851381Y-8553286D01*
X15841857Y-8591381D01*
X15832333Y-8610429D01*
X15822809Y-8619952D01*
X15803762Y-8629476D01*
X15784714Y-8629476D01*
X15765667Y-8619952D01*
X15756143Y-8610429D01*
X15746619Y-8591381D01*
X15737095Y-8553286D01*
X15737095Y-8505667D01*
X15746619Y-8467571D01*
X15756143Y-8448524D01*
X15765667Y-8439000D01*
X15784714Y-8429476D01*
X15937095Y-8610429D02*
X15946619Y-8619952D01*
X15937095Y-8629476D01*
X15927571Y-8619952D01*
X15937095Y-8610429D01*
X15937095Y-8629476D01*
X16060905Y-8515190D02*
X16041857Y-8505667D01*
X16032333Y-8496143D01*
X16022809Y-8477095D01*
X16022809Y-8467571D01*
X16032333Y-8448524D01*
X16041857Y-8439000D01*
X16060905Y-8429476D01*
X16099000Y-8429476D01*
X16118048Y-8439000D01*
X16127571Y-8448524D01*
X16137095Y-8467571D01*
X16137095Y-8477095D01*
X16127571Y-8496143D01*
X16118048Y-8505667D01*
X16099000Y-8515190D01*
X16060905Y-8515190D01*
X16041857Y-8524714D01*
X16032333Y-8534238D01*
X16022809Y-8553286D01*
X16022809Y-8591381D01*
X16032333Y-8610429D01*
X16041857Y-8619952D01*
X16060905Y-8629476D01*
X16099000Y-8629476D01*
X16118048Y-8619952D01*
X16127571Y-8610429D01*
X16137095Y-8591381D01*
X16137095Y-8553286D01*
X16127571Y-8534238D01*
X16118048Y-8524714D01*
X16099000Y-8515190D01*
X16260905Y-8429476D02*
X16279952Y-8429476D01*
X16299000Y-8439000D01*
X16308524Y-8448524D01*
X16318048Y-8467571D01*
X16327571Y-8505667D01*
X16327571Y-8553286D01*
X16318048Y-8591381D01*
X16308524Y-8610429D01*
X16299000Y-8619952D01*
X16279952Y-8629476D01*
X16260905Y-8629476D01*
X16241857Y-8619952D01*
X16232333Y-8610429D01*
X16222809Y-8591381D01*
X16213286Y-8553286D01*
X16213286Y-8505667D01*
X16222809Y-8467571D01*
X16232333Y-8448524D01*
X16241857Y-8439000D01*
X16260905Y-8429476D01*
X16451381Y-8429476D02*
X16470428Y-8429476D01*
X16489476Y-8439000D01*
X16499000Y-8448524D01*
X16508524Y-8467571D01*
X16518048Y-8505667D01*
X16518048Y-8553286D01*
X16508524Y-8591381D01*
X16499000Y-8610429D01*
X16489476Y-8619952D01*
X16470428Y-8629476D01*
X16451381Y-8629476D01*
X16432333Y-8619952D01*
X16422809Y-8610429D01*
X16413286Y-8591381D01*
X16403762Y-8553286D01*
X16403762Y-8505667D01*
X16413286Y-8467571D01*
X16422809Y-8448524D01*
X16432333Y-8439000D01*
X16451381Y-8429476D01*
X16603762Y-8629476D02*
X16603762Y-8496143D01*
X16603762Y-8515190D02*
X16613286Y-8505667D01*
X16632333Y-8496143D01*
X16660905Y-8496143D01*
X16679952Y-8505667D01*
X16689476Y-8524714D01*
X16689476Y-8629476D01*
X16689476Y-8524714D02*
X16699000Y-8505667D01*
X16718048Y-8496143D01*
X16746619Y-8496143D01*
X16765667Y-8505667D01*
X16775190Y-8524714D01*
X16775190Y-8629476D01*
X16870429Y-8629476D02*
X16870429Y-8496143D01*
X16870429Y-8515190D02*
X16879952Y-8505667D01*
X16899000Y-8496143D01*
X16927571Y-8496143D01*
X16946619Y-8505667D01*
X16956143Y-8524714D01*
X16956143Y-8629476D01*
X16956143Y-8524714D02*
X16965667Y-8505667D01*
X16984714Y-8496143D01*
X17013286Y-8496143D01*
X17032333Y-8505667D01*
X17041857Y-8524714D01*
X17041857Y-8629476D01*
X17432333Y-8419952D02*
X17260905Y-8677095D01*
X17689476Y-8429476D02*
X17708524Y-8429476D01*
X17727571Y-8439000D01*
X17737095Y-8448524D01*
X17746619Y-8467571D01*
X17756143Y-8505667D01*
X17756143Y-8553286D01*
X17746619Y-8591381D01*
X17737095Y-8610429D01*
X17727571Y-8619952D01*
X17708524Y-8629476D01*
X17689476Y-8629476D01*
X17670429Y-8619952D01*
X17660905Y-8610429D01*
X17651381Y-8591381D01*
X17641857Y-8553286D01*
X17641857Y-8505667D01*
X17651381Y-8467571D01*
X17660905Y-8448524D01*
X17670429Y-8439000D01*
X17689476Y-8429476D01*
X17841857Y-8610429D02*
X17851381Y-8619952D01*
X17841857Y-8629476D01*
X17832333Y-8619952D01*
X17841857Y-8610429D01*
X17841857Y-8629476D01*
X17975190Y-8429476D02*
X17994238Y-8429476D01*
X18013286Y-8439000D01*
X18022810Y-8448524D01*
X18032333Y-8467571D01*
X18041857Y-8505667D01*
X18041857Y-8553286D01*
X18032333Y-8591381D01*
X18022810Y-8610429D01*
X18013286Y-8619952D01*
X17994238Y-8629476D01*
X17975190Y-8629476D01*
X17956143Y-8619952D01*
X17946619Y-8610429D01*
X17937095Y-8591381D01*
X17927571Y-8553286D01*
X17927571Y-8505667D01*
X17937095Y-8467571D01*
X17946619Y-8448524D01*
X17956143Y-8439000D01*
X17975190Y-8429476D01*
X18108524Y-8429476D02*
X18232333Y-8429476D01*
X18165667Y-8505667D01*
X18194238Y-8505667D01*
X18213286Y-8515190D01*
X18222810Y-8524714D01*
X18232333Y-8543762D01*
X18232333Y-8591381D01*
X18222810Y-8610429D01*
X18213286Y-8619952D01*
X18194238Y-8629476D01*
X18137095Y-8629476D01*
X18118048Y-8619952D01*
X18108524Y-8610429D01*
X18422810Y-8629476D02*
X18308524Y-8629476D01*
X18365667Y-8629476D02*
X18365667Y-8429476D01*
X18346619Y-8458048D01*
X18327571Y-8477095D01*
X18308524Y-8486619D01*
X18603762Y-8429476D02*
X18508524Y-8429476D01*
X18499000Y-8524714D01*
X18508524Y-8515190D01*
X18527571Y-8505667D01*
X18575190Y-8505667D01*
X18594238Y-8515190D01*
X18603762Y-8524714D01*
X18613286Y-8543762D01*
X18613286Y-8591381D01*
X18603762Y-8610429D01*
X18594238Y-8619952D01*
X18575190Y-8629476D01*
X18527571Y-8629476D01*
X18508524Y-8619952D01*
X18499000Y-8610429D01*
X18689476Y-8429476D02*
X18689476Y-8467571D01*
X18765667Y-8429476D02*
X18765667Y-8467571D01*
X19060905Y-8705667D02*
X19051381Y-8696143D01*
X19032333Y-8667571D01*
X19022810Y-8648524D01*
X19013286Y-8619952D01*
X19003762Y-8572333D01*
X19003762Y-8534238D01*
X19013286Y-8486619D01*
X19022810Y-8458048D01*
X19032333Y-8439000D01*
X19051381Y-8410429D01*
X19060905Y-8400905D01*
X19241857Y-8629476D02*
X19127571Y-8629476D01*
X19184714Y-8629476D02*
X19184714Y-8429476D01*
X19165667Y-8458048D01*
X19146619Y-8477095D01*
X19127571Y-8486619D01*
X19365667Y-8429476D02*
X19384714Y-8429476D01*
X19403762Y-8439000D01*
X19413286Y-8448524D01*
X19422810Y-8467571D01*
X19432333Y-8505667D01*
X19432333Y-8553286D01*
X19422810Y-8591381D01*
X19413286Y-8610429D01*
X19403762Y-8619952D01*
X19384714Y-8629476D01*
X19365667Y-8629476D01*
X19346619Y-8619952D01*
X19337095Y-8610429D01*
X19327571Y-8591381D01*
X19318048Y-8553286D01*
X19318048Y-8505667D01*
X19327571Y-8467571D01*
X19337095Y-8448524D01*
X19346619Y-8439000D01*
X19365667Y-8429476D01*
X19670429Y-8629476D02*
X19670429Y-8429476D01*
X19756143Y-8629476D02*
X19756143Y-8524714D01*
X19746619Y-8505667D01*
X19727571Y-8496143D01*
X19699000Y-8496143D01*
X19679952Y-8505667D01*
X19670429Y-8515190D01*
X19879952Y-8629476D02*
X19860905Y-8619952D01*
X19851381Y-8610429D01*
X19841857Y-8591381D01*
X19841857Y-8534238D01*
X19851381Y-8515190D01*
X19860905Y-8505667D01*
X19879952Y-8496143D01*
X19908524Y-8496143D01*
X19927571Y-8505667D01*
X19937095Y-8515190D01*
X19946619Y-8534238D01*
X19946619Y-8591381D01*
X19937095Y-8610429D01*
X19927571Y-8619952D01*
X19908524Y-8629476D01*
X19879952Y-8629476D01*
X20060905Y-8629476D02*
X20041857Y-8619952D01*
X20032333Y-8600905D01*
X20032333Y-8429476D01*
X20213286Y-8619952D02*
X20194238Y-8629476D01*
X20156143Y-8629476D01*
X20137095Y-8619952D01*
X20127571Y-8600905D01*
X20127571Y-8524714D01*
X20137095Y-8505667D01*
X20156143Y-8496143D01*
X20194238Y-8496143D01*
X20213286Y-8505667D01*
X20222810Y-8524714D01*
X20222810Y-8543762D01*
X20127571Y-8562810D01*
X20299000Y-8619952D02*
X20318048Y-8629476D01*
X20356143Y-8629476D01*
X20375190Y-8619952D01*
X20384714Y-8600905D01*
X20384714Y-8591381D01*
X20375190Y-8572333D01*
X20356143Y-8562810D01*
X20327571Y-8562810D01*
X20308524Y-8553286D01*
X20299000Y-8534238D01*
X20299000Y-8524714D01*
X20308524Y-8505667D01*
X20327571Y-8496143D01*
X20356143Y-8496143D01*
X20375190Y-8505667D01*
X20451381Y-8705667D02*
X20460905Y-8696143D01*
X20479952Y-8667571D01*
X20489476Y-8648524D01*
X20499000Y-8619952D01*
X20508524Y-8572333D01*
X20508524Y-8534238D01*
X20499000Y-8486619D01*
X20489476Y-8458048D01*
X20479952Y-8439000D01*
X20460905Y-8410429D01*
X20451381Y-8400905D01*
D15*
X15474356Y-8838356D02*
X15474356Y-8767644D01*
X15403644Y-8767644D01*
X15403644Y-8838356D01*
X15474356Y-8838356D01*
D11*
X15851381Y-8893476D02*
X15737095Y-8893476D01*
X15794238Y-8893476D02*
X15794238Y-8693476D01*
X15775190Y-8722048D01*
X15756143Y-8741095D01*
X15737095Y-8750619D01*
X15937095Y-8874429D02*
X15946619Y-8883952D01*
X15937095Y-8893476D01*
X15927571Y-8883952D01*
X15937095Y-8874429D01*
X15937095Y-8893476D01*
X16070428Y-8693476D02*
X16089476Y-8693476D01*
X16108524Y-8703000D01*
X16118048Y-8712524D01*
X16127571Y-8731571D01*
X16137095Y-8769667D01*
X16137095Y-8817286D01*
X16127571Y-8855381D01*
X16118048Y-8874429D01*
X16108524Y-8883952D01*
X16089476Y-8893476D01*
X16070428Y-8893476D01*
X16051381Y-8883952D01*
X16041857Y-8874429D01*
X16032333Y-8855381D01*
X16022809Y-8817286D01*
X16022809Y-8769667D01*
X16032333Y-8731571D01*
X16041857Y-8712524D01*
X16051381Y-8703000D01*
X16070428Y-8693476D01*
X16260905Y-8693476D02*
X16279952Y-8693476D01*
X16299000Y-8703000D01*
X16308524Y-8712524D01*
X16318048Y-8731571D01*
X16327571Y-8769667D01*
X16327571Y-8817286D01*
X16318048Y-8855381D01*
X16308524Y-8874429D01*
X16299000Y-8883952D01*
X16279952Y-8893476D01*
X16260905Y-8893476D01*
X16241857Y-8883952D01*
X16232333Y-8874429D01*
X16222809Y-8855381D01*
X16213286Y-8817286D01*
X16213286Y-8769667D01*
X16222809Y-8731571D01*
X16232333Y-8712524D01*
X16241857Y-8703000D01*
X16260905Y-8693476D01*
X16451381Y-8693476D02*
X16470428Y-8693476D01*
X16489476Y-8703000D01*
X16499000Y-8712524D01*
X16508524Y-8731571D01*
X16518048Y-8769667D01*
X16518048Y-8817286D01*
X16508524Y-8855381D01*
X16499000Y-8874429D01*
X16489476Y-8883952D01*
X16470428Y-8893476D01*
X16451381Y-8893476D01*
X16432333Y-8883952D01*
X16422809Y-8874429D01*
X16413286Y-8855381D01*
X16403762Y-8817286D01*
X16403762Y-8769667D01*
X16413286Y-8731571D01*
X16422809Y-8712524D01*
X16432333Y-8703000D01*
X16451381Y-8693476D01*
X16603762Y-8893476D02*
X16603762Y-8760143D01*
X16603762Y-8779190D02*
X16613286Y-8769667D01*
X16632333Y-8760143D01*
X16660905Y-8760143D01*
X16679952Y-8769667D01*
X16689476Y-8788714D01*
X16689476Y-8893476D01*
X16689476Y-8788714D02*
X16699000Y-8769667D01*
X16718048Y-8760143D01*
X16746619Y-8760143D01*
X16765667Y-8769667D01*
X16775190Y-8788714D01*
X16775190Y-8893476D01*
X16870429Y-8893476D02*
X16870429Y-8760143D01*
X16870429Y-8779190D02*
X16879952Y-8769667D01*
X16899000Y-8760143D01*
X16927571Y-8760143D01*
X16946619Y-8769667D01*
X16956143Y-8788714D01*
X16956143Y-8893476D01*
X16956143Y-8788714D02*
X16965667Y-8769667D01*
X16984714Y-8760143D01*
X17013286Y-8760143D01*
X17032333Y-8769667D01*
X17041857Y-8788714D01*
X17041857Y-8893476D01*
X17432333Y-8683952D02*
X17260905Y-8941095D01*
X17689476Y-8693476D02*
X17708524Y-8693476D01*
X17727571Y-8703000D01*
X17737095Y-8712524D01*
X17746619Y-8731571D01*
X17756143Y-8769667D01*
X17756143Y-8817286D01*
X17746619Y-8855381D01*
X17737095Y-8874429D01*
X17727571Y-8883952D01*
X17708524Y-8893476D01*
X17689476Y-8893476D01*
X17670429Y-8883952D01*
X17660905Y-8874429D01*
X17651381Y-8855381D01*
X17641857Y-8817286D01*
X17641857Y-8769667D01*
X17651381Y-8731571D01*
X17660905Y-8712524D01*
X17670429Y-8703000D01*
X17689476Y-8693476D01*
X17841857Y-8874429D02*
X17851381Y-8883952D01*
X17841857Y-8893476D01*
X17832333Y-8883952D01*
X17841857Y-8874429D01*
X17841857Y-8893476D01*
X17975190Y-8693476D02*
X17994238Y-8693476D01*
X18013286Y-8703000D01*
X18022810Y-8712524D01*
X18032333Y-8731571D01*
X18041857Y-8769667D01*
X18041857Y-8817286D01*
X18032333Y-8855381D01*
X18022810Y-8874429D01*
X18013286Y-8883952D01*
X17994238Y-8893476D01*
X17975190Y-8893476D01*
X17956143Y-8883952D01*
X17946619Y-8874429D01*
X17937095Y-8855381D01*
X17927571Y-8817286D01*
X17927571Y-8769667D01*
X17937095Y-8731571D01*
X17946619Y-8712524D01*
X17956143Y-8703000D01*
X17975190Y-8693476D01*
X18108524Y-8693476D02*
X18232333Y-8693476D01*
X18165667Y-8769667D01*
X18194238Y-8769667D01*
X18213286Y-8779190D01*
X18222810Y-8788714D01*
X18232333Y-8807762D01*
X18232333Y-8855381D01*
X18222810Y-8874429D01*
X18213286Y-8883952D01*
X18194238Y-8893476D01*
X18137095Y-8893476D01*
X18118048Y-8883952D01*
X18108524Y-8874429D01*
X18327571Y-8893476D02*
X18365667Y-8893476D01*
X18384714Y-8883952D01*
X18394238Y-8874429D01*
X18413286Y-8845857D01*
X18422810Y-8807762D01*
X18422810Y-8731571D01*
X18413286Y-8712524D01*
X18403762Y-8703000D01*
X18384714Y-8693476D01*
X18346619Y-8693476D01*
X18327571Y-8703000D01*
X18318048Y-8712524D01*
X18308524Y-8731571D01*
X18308524Y-8779190D01*
X18318048Y-8798238D01*
X18327571Y-8807762D01*
X18346619Y-8817286D01*
X18384714Y-8817286D01*
X18403762Y-8807762D01*
X18413286Y-8798238D01*
X18422810Y-8779190D01*
X18594238Y-8760143D02*
X18594238Y-8893476D01*
X18546619Y-8683952D02*
X18499000Y-8826810D01*
X18622810Y-8826810D01*
X18689476Y-8693476D02*
X18689476Y-8731571D01*
X18765667Y-8693476D02*
X18765667Y-8731571D01*
X19060905Y-8969667D02*
X19051381Y-8960143D01*
X19032333Y-8931571D01*
X19022810Y-8912524D01*
X19013286Y-8883952D01*
X19003762Y-8836333D01*
X19003762Y-8798238D01*
X19013286Y-8750619D01*
X19022810Y-8722048D01*
X19032333Y-8703000D01*
X19051381Y-8674429D01*
X19060905Y-8664905D01*
X19165667Y-8779190D02*
X19146619Y-8769667D01*
X19137095Y-8760143D01*
X19127571Y-8741095D01*
X19127571Y-8731571D01*
X19137095Y-8712524D01*
X19146619Y-8703000D01*
X19165667Y-8693476D01*
X19203762Y-8693476D01*
X19222810Y-8703000D01*
X19232333Y-8712524D01*
X19241857Y-8731571D01*
X19241857Y-8741095D01*
X19232333Y-8760143D01*
X19222810Y-8769667D01*
X19203762Y-8779190D01*
X19165667Y-8779190D01*
X19146619Y-8788714D01*
X19137095Y-8798238D01*
X19127571Y-8817286D01*
X19127571Y-8855381D01*
X19137095Y-8874429D01*
X19146619Y-8883952D01*
X19165667Y-8893476D01*
X19203762Y-8893476D01*
X19222810Y-8883952D01*
X19232333Y-8874429D01*
X19241857Y-8855381D01*
X19241857Y-8817286D01*
X19232333Y-8798238D01*
X19222810Y-8788714D01*
X19203762Y-8779190D01*
X19365667Y-8693476D02*
X19384714Y-8693476D01*
X19403762Y-8703000D01*
X19413286Y-8712524D01*
X19422810Y-8731571D01*
X19432333Y-8769667D01*
X19432333Y-8817286D01*
X19422810Y-8855381D01*
X19413286Y-8874429D01*
X19403762Y-8883952D01*
X19384714Y-8893476D01*
X19365667Y-8893476D01*
X19346619Y-8883952D01*
X19337095Y-8874429D01*
X19327571Y-8855381D01*
X19318048Y-8817286D01*
X19318048Y-8769667D01*
X19327571Y-8731571D01*
X19337095Y-8712524D01*
X19346619Y-8703000D01*
X19365667Y-8693476D01*
X19670429Y-8893476D02*
X19670429Y-8693476D01*
X19756143Y-8893476D02*
X19756143Y-8788714D01*
X19746619Y-8769667D01*
X19727571Y-8760143D01*
X19699000Y-8760143D01*
X19679952Y-8769667D01*
X19670429Y-8779190D01*
X19879952Y-8893476D02*
X19860905Y-8883952D01*
X19851381Y-8874429D01*
X19841857Y-8855381D01*
X19841857Y-8798238D01*
X19851381Y-8779190D01*
X19860905Y-8769667D01*
X19879952Y-8760143D01*
X19908524Y-8760143D01*
X19927571Y-8769667D01*
X19937095Y-8779190D01*
X19946619Y-8798238D01*
X19946619Y-8855381D01*
X19937095Y-8874429D01*
X19927571Y-8883952D01*
X19908524Y-8893476D01*
X19879952Y-8893476D01*
X20060905Y-8893476D02*
X20041857Y-8883952D01*
X20032333Y-8864905D01*
X20032333Y-8693476D01*
X20213286Y-8883952D02*
X20194238Y-8893476D01*
X20156143Y-8893476D01*
X20137095Y-8883952D01*
X20127571Y-8864905D01*
X20127571Y-8788714D01*
X20137095Y-8769667D01*
X20156143Y-8760143D01*
X20194238Y-8760143D01*
X20213286Y-8769667D01*
X20222810Y-8788714D01*
X20222810Y-8807762D01*
X20127571Y-8826810D01*
X20299000Y-8883952D02*
X20318048Y-8893476D01*
X20356143Y-8893476D01*
X20375190Y-8883952D01*
X20384714Y-8864905D01*
X20384714Y-8855381D01*
X20375190Y-8836333D01*
X20356143Y-8826810D01*
X20327571Y-8826810D01*
X20308524Y-8817286D01*
X20299000Y-8798238D01*
X20299000Y-8788714D01*
X20308524Y-8769667D01*
X20327571Y-8760143D01*
X20356143Y-8760143D01*
X20375190Y-8769667D01*
X20451381Y-8969667D02*
X20460905Y-8960143D01*
X20479952Y-8931571D01*
X20489476Y-8912524D01*
X20499000Y-8883952D01*
X20508524Y-8836333D01*
X20508524Y-8798238D01*
X20499000Y-8750619D01*
X20489476Y-8722048D01*
X20479952Y-8703000D01*
X20460905Y-8674429D01*
X20451381Y-8664905D01*
D16*
X15434000Y-9122000D02*
X15489000Y-9067000D01*
X15434000Y-9012000D01*
X15379000Y-9067000D01*
X15434000Y-9122000D01*
D11*
X15851381Y-9157476D02*
X15737095Y-9157476D01*
X15794238Y-9157476D02*
X15794238Y-8957476D01*
X15775190Y-8986048D01*
X15756143Y-9005095D01*
X15737095Y-9014619D01*
X15937095Y-9138429D02*
X15946619Y-9147952D01*
X15937095Y-9157476D01*
X15927571Y-9147952D01*
X15937095Y-9138429D01*
X15937095Y-9157476D01*
X16137095Y-9157476D02*
X16022809Y-9157476D01*
X16079952Y-9157476D02*
X16079952Y-8957476D01*
X16060905Y-8986048D01*
X16041857Y-9005095D01*
X16022809Y-9014619D01*
X16260905Y-8957476D02*
X16279952Y-8957476D01*
X16299000Y-8967000D01*
X16308524Y-8976524D01*
X16318048Y-8995571D01*
X16327571Y-9033667D01*
X16327571Y-9081286D01*
X16318048Y-9119381D01*
X16308524Y-9138429D01*
X16299000Y-9147952D01*
X16279952Y-9157476D01*
X16260905Y-9157476D01*
X16241857Y-9147952D01*
X16232333Y-9138429D01*
X16222809Y-9119381D01*
X16213286Y-9081286D01*
X16213286Y-9033667D01*
X16222809Y-8995571D01*
X16232333Y-8976524D01*
X16241857Y-8967000D01*
X16260905Y-8957476D01*
X16451381Y-8957476D02*
X16470428Y-8957476D01*
X16489476Y-8967000D01*
X16499000Y-8976524D01*
X16508524Y-8995571D01*
X16518048Y-9033667D01*
X16518048Y-9081286D01*
X16508524Y-9119381D01*
X16499000Y-9138429D01*
X16489476Y-9147952D01*
X16470428Y-9157476D01*
X16451381Y-9157476D01*
X16432333Y-9147952D01*
X16422809Y-9138429D01*
X16413286Y-9119381D01*
X16403762Y-9081286D01*
X16403762Y-9033667D01*
X16413286Y-8995571D01*
X16422809Y-8976524D01*
X16432333Y-8967000D01*
X16451381Y-8957476D01*
X16603762Y-9157476D02*
X16603762Y-9024143D01*
X16603762Y-9043190D02*
X16613286Y-9033667D01*
X16632333Y-9024143D01*
X16660905Y-9024143D01*
X16679952Y-9033667D01*
X16689476Y-9052714D01*
X16689476Y-9157476D01*
X16689476Y-9052714D02*
X16699000Y-9033667D01*
X16718048Y-9024143D01*
X16746619Y-9024143D01*
X16765667Y-9033667D01*
X16775190Y-9052714D01*
X16775190Y-9157476D01*
X16870429Y-9157476D02*
X16870429Y-9024143D01*
X16870429Y-9043190D02*
X16879952Y-9033667D01*
X16899000Y-9024143D01*
X16927571Y-9024143D01*
X16946619Y-9033667D01*
X16956143Y-9052714D01*
X16956143Y-9157476D01*
X16956143Y-9052714D02*
X16965667Y-9033667D01*
X16984714Y-9024143D01*
X17013286Y-9024143D01*
X17032333Y-9033667D01*
X17041857Y-9052714D01*
X17041857Y-9157476D01*
X17432333Y-8947952D02*
X17260905Y-9205095D01*
X17689476Y-8957476D02*
X17708524Y-8957476D01*
X17727571Y-8967000D01*
X17737095Y-8976524D01*
X17746619Y-8995571D01*
X17756143Y-9033667D01*
X17756143Y-9081286D01*
X17746619Y-9119381D01*
X17737095Y-9138429D01*
X17727571Y-9147952D01*
X17708524Y-9157476D01*
X17689476Y-9157476D01*
X17670429Y-9147952D01*
X17660905Y-9138429D01*
X17651381Y-9119381D01*
X17641857Y-9081286D01*
X17641857Y-9033667D01*
X17651381Y-8995571D01*
X17660905Y-8976524D01*
X17670429Y-8967000D01*
X17689476Y-8957476D01*
X17841857Y-9138429D02*
X17851381Y-9147952D01*
X17841857Y-9157476D01*
X17832333Y-9147952D01*
X17841857Y-9138429D01*
X17841857Y-9157476D01*
X17975190Y-8957476D02*
X17994238Y-8957476D01*
X18013286Y-8967000D01*
X18022810Y-8976524D01*
X18032333Y-8995571D01*
X18041857Y-9033667D01*
X18041857Y-9081286D01*
X18032333Y-9119381D01*
X18022810Y-9138429D01*
X18013286Y-9147952D01*
X17994238Y-9157476D01*
X17975190Y-9157476D01*
X17956143Y-9147952D01*
X17946619Y-9138429D01*
X17937095Y-9119381D01*
X17927571Y-9081286D01*
X17927571Y-9033667D01*
X17937095Y-8995571D01*
X17946619Y-8976524D01*
X17956143Y-8967000D01*
X17975190Y-8957476D01*
X18213286Y-9024143D02*
X18213286Y-9157476D01*
X18165667Y-8947952D02*
X18118048Y-9090810D01*
X18241857Y-9090810D01*
X18299000Y-8957476D02*
X18422810Y-8957476D01*
X18356143Y-9033667D01*
X18384714Y-9033667D01*
X18403762Y-9043190D01*
X18413286Y-9052714D01*
X18422810Y-9071762D01*
X18422810Y-9119381D01*
X18413286Y-9138429D01*
X18403762Y-9147952D01*
X18384714Y-9157476D01*
X18327571Y-9157476D01*
X18308524Y-9147952D01*
X18299000Y-9138429D01*
X18489476Y-8957476D02*
X18613286Y-8957476D01*
X18546619Y-9033667D01*
X18575190Y-9033667D01*
X18594238Y-9043190D01*
X18603762Y-9052714D01*
X18613286Y-9071762D01*
X18613286Y-9119381D01*
X18603762Y-9138429D01*
X18594238Y-9147952D01*
X18575190Y-9157476D01*
X18518048Y-9157476D01*
X18499000Y-9147952D01*
X18489476Y-9138429D01*
X18689476Y-8957476D02*
X18689476Y-8995571D01*
X18765667Y-8957476D02*
X18765667Y-8995571D01*
X19060905Y-9233667D02*
X19051381Y-9224143D01*
X19032333Y-9195571D01*
X19022810Y-9176524D01*
X19013286Y-9147952D01*
X19003762Y-9100333D01*
X19003762Y-9062238D01*
X19013286Y-9014619D01*
X19022810Y-8986048D01*
X19032333Y-8967000D01*
X19051381Y-8938429D01*
X19060905Y-8928905D01*
X19222810Y-8957476D02*
X19184714Y-8957476D01*
X19165667Y-8967000D01*
X19156143Y-8976524D01*
X19137095Y-9005095D01*
X19127571Y-9043190D01*
X19127571Y-9119381D01*
X19137095Y-9138429D01*
X19146619Y-9147952D01*
X19165667Y-9157476D01*
X19203762Y-9157476D01*
X19222810Y-9147952D01*
X19232333Y-9138429D01*
X19241857Y-9119381D01*
X19241857Y-9071762D01*
X19232333Y-9052714D01*
X19222810Y-9043190D01*
X19203762Y-9033667D01*
X19165667Y-9033667D01*
X19146619Y-9043190D01*
X19137095Y-9052714D01*
X19127571Y-9071762D01*
X19479952Y-9157476D02*
X19479952Y-8957476D01*
X19565667Y-9157476D02*
X19565667Y-9052714D01*
X19556143Y-9033667D01*
X19537095Y-9024143D01*
X19508524Y-9024143D01*
X19489476Y-9033667D01*
X19479952Y-9043190D01*
X19689476Y-9157476D02*
X19670429Y-9147952D01*
X19660905Y-9138429D01*
X19651381Y-9119381D01*
X19651381Y-9062238D01*
X19660905Y-9043190D01*
X19670429Y-9033667D01*
X19689476Y-9024143D01*
X19718048Y-9024143D01*
X19737095Y-9033667D01*
X19746619Y-9043190D01*
X19756143Y-9062238D01*
X19756143Y-9119381D01*
X19746619Y-9138429D01*
X19737095Y-9147952D01*
X19718048Y-9157476D01*
X19689476Y-9157476D01*
X19870429Y-9157476D02*
X19851381Y-9147952D01*
X19841857Y-9128905D01*
X19841857Y-8957476D01*
X20022810Y-9147952D02*
X20003762Y-9157476D01*
X19965667Y-9157476D01*
X19946619Y-9147952D01*
X19937095Y-9128905D01*
X19937095Y-9052714D01*
X19946619Y-9033667D01*
X19965667Y-9024143D01*
X20003762Y-9024143D01*
X20022810Y-9033667D01*
X20032333Y-9052714D01*
X20032333Y-9071762D01*
X19937095Y-9090810D01*
X20108524Y-9147952D02*
X20127571Y-9157476D01*
X20165667Y-9157476D01*
X20184714Y-9147952D01*
X20194238Y-9128905D01*
X20194238Y-9119381D01*
X20184714Y-9100333D01*
X20165667Y-9090810D01*
X20137095Y-9090810D01*
X20118048Y-9081286D01*
X20108524Y-9062238D01*
X20108524Y-9052714D01*
X20118048Y-9033667D01*
X20137095Y-9024143D01*
X20165667Y-9024143D01*
X20184714Y-9033667D01*
X20260905Y-9233667D02*
X20270429Y-9224143D01*
X20289476Y-9195571D01*
X20299000Y-9176524D01*
X20308524Y-9147952D01*
X20318048Y-9100333D01*
X20318048Y-9062238D01*
X20308524Y-9014619D01*
X20299000Y-8986048D01*
X20289476Y-8967000D01*
X20270429Y-8938429D01*
X20260905Y-8928905D01*
D17*
X15349000Y-9261000D02*
X15489000Y-9401000D01*
X15489000Y-9261000D02*
X15349000Y-9401000D01*
X15489000Y-9331000D02*
G75*
G03*
X15489000Y-9331000I-70000J0D01*
G01*
D11*
X15851381Y-9421476D02*
X15737095Y-9421476D01*
X15794238Y-9421476D02*
X15794238Y-9221476D01*
X15775190Y-9250048D01*
X15756143Y-9269095D01*
X15737095Y-9278619D01*
X15937095Y-9402429D02*
X15946619Y-9411952D01*
X15937095Y-9421476D01*
X15927571Y-9411952D01*
X15937095Y-9402429D01*
X15937095Y-9421476D01*
X16118048Y-9288143D02*
X16118048Y-9421476D01*
X16070428Y-9211952D02*
X16022809Y-9354810D01*
X16146619Y-9354810D01*
X16260905Y-9221476D02*
X16279952Y-9221476D01*
X16299000Y-9231000D01*
X16308524Y-9240524D01*
X16318048Y-9259571D01*
X16327571Y-9297667D01*
X16327571Y-9345286D01*
X16318048Y-9383381D01*
X16308524Y-9402429D01*
X16299000Y-9411952D01*
X16279952Y-9421476D01*
X16260905Y-9421476D01*
X16241857Y-9411952D01*
X16232333Y-9402429D01*
X16222809Y-9383381D01*
X16213286Y-9345286D01*
X16213286Y-9297667D01*
X16222809Y-9259571D01*
X16232333Y-9240524D01*
X16241857Y-9231000D01*
X16260905Y-9221476D01*
X16451381Y-9221476D02*
X16470428Y-9221476D01*
X16489476Y-9231000D01*
X16499000Y-9240524D01*
X16508524Y-9259571D01*
X16518048Y-9297667D01*
X16518048Y-9345286D01*
X16508524Y-9383381D01*
X16499000Y-9402429D01*
X16489476Y-9411952D01*
X16470428Y-9421476D01*
X16451381Y-9421476D01*
X16432333Y-9411952D01*
X16422809Y-9402429D01*
X16413286Y-9383381D01*
X16403762Y-9345286D01*
X16403762Y-9297667D01*
X16413286Y-9259571D01*
X16422809Y-9240524D01*
X16432333Y-9231000D01*
X16451381Y-9221476D01*
X16603762Y-9421476D02*
X16603762Y-9288143D01*
X16603762Y-9307190D02*
X16613286Y-9297667D01*
X16632333Y-9288143D01*
X16660905Y-9288143D01*
X16679952Y-9297667D01*
X16689476Y-9316714D01*
X16689476Y-9421476D01*
X16689476Y-9316714D02*
X16699000Y-9297667D01*
X16718048Y-9288143D01*
X16746619Y-9288143D01*
X16765667Y-9297667D01*
X16775190Y-9316714D01*
X16775190Y-9421476D01*
X16870429Y-9421476D02*
X16870429Y-9288143D01*
X16870429Y-9307190D02*
X16879952Y-9297667D01*
X16899000Y-9288143D01*
X16927571Y-9288143D01*
X16946619Y-9297667D01*
X16956143Y-9316714D01*
X16956143Y-9421476D01*
X16956143Y-9316714D02*
X16965667Y-9297667D01*
X16984714Y-9288143D01*
X17013286Y-9288143D01*
X17032333Y-9297667D01*
X17041857Y-9316714D01*
X17041857Y-9421476D01*
X17432333Y-9211952D02*
X17260905Y-9469095D01*
X17689476Y-9221476D02*
X17708524Y-9221476D01*
X17727571Y-9231000D01*
X17737095Y-9240524D01*
X17746619Y-9259571D01*
X17756143Y-9297667D01*
X17756143Y-9345286D01*
X17746619Y-9383381D01*
X17737095Y-9402429D01*
X17727571Y-9411952D01*
X17708524Y-9421476D01*
X17689476Y-9421476D01*
X17670429Y-9411952D01*
X17660905Y-9402429D01*
X17651381Y-9383381D01*
X17641857Y-9345286D01*
X17641857Y-9297667D01*
X17651381Y-9259571D01*
X17660905Y-9240524D01*
X17670429Y-9231000D01*
X17689476Y-9221476D01*
X17841857Y-9402429D02*
X17851381Y-9411952D01*
X17841857Y-9421476D01*
X17832333Y-9411952D01*
X17841857Y-9402429D01*
X17841857Y-9421476D01*
X17975190Y-9221476D02*
X17994238Y-9221476D01*
X18013286Y-9231000D01*
X18022810Y-9240524D01*
X18032333Y-9259571D01*
X18041857Y-9297667D01*
X18041857Y-9345286D01*
X18032333Y-9383381D01*
X18022810Y-9402429D01*
X18013286Y-9411952D01*
X17994238Y-9421476D01*
X17975190Y-9421476D01*
X17956143Y-9411952D01*
X17946619Y-9402429D01*
X17937095Y-9383381D01*
X17927571Y-9345286D01*
X17927571Y-9297667D01*
X17937095Y-9259571D01*
X17946619Y-9240524D01*
X17956143Y-9231000D01*
X17975190Y-9221476D01*
X18222810Y-9221476D02*
X18127571Y-9221476D01*
X18118048Y-9316714D01*
X18127571Y-9307190D01*
X18146619Y-9297667D01*
X18194238Y-9297667D01*
X18213286Y-9307190D01*
X18222810Y-9316714D01*
X18232333Y-9335762D01*
X18232333Y-9383381D01*
X18222810Y-9402429D01*
X18213286Y-9411952D01*
X18194238Y-9421476D01*
X18146619Y-9421476D01*
X18127571Y-9411952D01*
X18118048Y-9402429D01*
X18413286Y-9221476D02*
X18318048Y-9221476D01*
X18308524Y-9316714D01*
X18318048Y-9307190D01*
X18337095Y-9297667D01*
X18384714Y-9297667D01*
X18403762Y-9307190D01*
X18413286Y-9316714D01*
X18422810Y-9335762D01*
X18422810Y-9383381D01*
X18413286Y-9402429D01*
X18403762Y-9411952D01*
X18384714Y-9421476D01*
X18337095Y-9421476D01*
X18318048Y-9411952D01*
X18308524Y-9402429D01*
X18613286Y-9421476D02*
X18499000Y-9421476D01*
X18556143Y-9421476D02*
X18556143Y-9221476D01*
X18537095Y-9250048D01*
X18518048Y-9269095D01*
X18499000Y-9278619D01*
X18689476Y-9221476D02*
X18689476Y-9259571D01*
X18765667Y-9221476D02*
X18765667Y-9259571D01*
X19060905Y-9497667D02*
X19051381Y-9488143D01*
X19032333Y-9459571D01*
X19022810Y-9440524D01*
X19013286Y-9411952D01*
X19003762Y-9364333D01*
X19003762Y-9326238D01*
X19013286Y-9278619D01*
X19022810Y-9250048D01*
X19032333Y-9231000D01*
X19051381Y-9202429D01*
X19060905Y-9192905D01*
X19222810Y-9288143D02*
X19222810Y-9421476D01*
X19175190Y-9211952D02*
X19127571Y-9354810D01*
X19251381Y-9354810D01*
X19479952Y-9421476D02*
X19479952Y-9221476D01*
X19565667Y-9421476D02*
X19565667Y-9316714D01*
X19556143Y-9297667D01*
X19537095Y-9288143D01*
X19508524Y-9288143D01*
X19489476Y-9297667D01*
X19479952Y-9307190D01*
X19689476Y-9421476D02*
X19670429Y-9411952D01*
X19660905Y-9402429D01*
X19651381Y-9383381D01*
X19651381Y-9326238D01*
X19660905Y-9307190D01*
X19670429Y-9297667D01*
X19689476Y-9288143D01*
X19718048Y-9288143D01*
X19737095Y-9297667D01*
X19746619Y-9307190D01*
X19756143Y-9326238D01*
X19756143Y-9383381D01*
X19746619Y-9402429D01*
X19737095Y-9411952D01*
X19718048Y-9421476D01*
X19689476Y-9421476D01*
X19870429Y-9421476D02*
X19851381Y-9411952D01*
X19841857Y-9392905D01*
X19841857Y-9221476D01*
X20022810Y-9411952D02*
X20003762Y-9421476D01*
X19965667Y-9421476D01*
X19946619Y-9411952D01*
X19937095Y-9392905D01*
X19937095Y-9316714D01*
X19946619Y-9297667D01*
X19965667Y-9288143D01*
X20003762Y-9288143D01*
X20022810Y-9297667D01*
X20032333Y-9316714D01*
X20032333Y-9335762D01*
X19937095Y-9354810D01*
X20108524Y-9411952D02*
X20127571Y-9421476D01*
X20165667Y-9421476D01*
X20184714Y-9411952D01*
X20194238Y-9392905D01*
X20194238Y-9383381D01*
X20184714Y-9364333D01*
X20165667Y-9354810D01*
X20137095Y-9354810D01*
X20118048Y-9345286D01*
X20108524Y-9326238D01*
X20108524Y-9316714D01*
X20118048Y-9297667D01*
X20137095Y-9288143D01*
X20165667Y-9288143D01*
X20184714Y-9297667D01*
X20260905Y-9497667D02*
X20270429Y-9488143D01*
X20289476Y-9459571D01*
X20299000Y-9440524D01*
X20308524Y-9411952D01*
X20318048Y-9364333D01*
X20318048Y-9326238D01*
X20308524Y-9278619D01*
X20299000Y-9250048D01*
X20289476Y-9231000D01*
X20270429Y-9202429D01*
X20260905Y-9192905D01*
D18*
X15339000Y-9520000D02*
X15489000Y-9670000D01*
X15489000Y-9520000D02*
X15339000Y-9670000D01*
X15414000Y-9520000D02*
X15414000Y-9670000D01*
X15339000Y-9595000D02*
X15489000Y-9595000D01*
D11*
X15851381Y-9685476D02*
X15737095Y-9685476D01*
X15794238Y-9685476D02*
X15794238Y-9485476D01*
X15775190Y-9514048D01*
X15756143Y-9533095D01*
X15737095Y-9542619D01*
X15937095Y-9666429D02*
X15946619Y-9675952D01*
X15937095Y-9685476D01*
X15927571Y-9675952D01*
X15937095Y-9666429D01*
X15937095Y-9685476D01*
X16127571Y-9485476D02*
X16032333Y-9485476D01*
X16022809Y-9580714D01*
X16032333Y-9571190D01*
X16051381Y-9561667D01*
X16099000Y-9561667D01*
X16118048Y-9571190D01*
X16127571Y-9580714D01*
X16137095Y-9599762D01*
X16137095Y-9647381D01*
X16127571Y-9666429D01*
X16118048Y-9675952D01*
X16099000Y-9685476D01*
X16051381Y-9685476D01*
X16032333Y-9675952D01*
X16022809Y-9666429D01*
X16260905Y-9485476D02*
X16279952Y-9485476D01*
X16299000Y-9495000D01*
X16308524Y-9504524D01*
X16318048Y-9523571D01*
X16327571Y-9561667D01*
X16327571Y-9609286D01*
X16318048Y-9647381D01*
X16308524Y-9666429D01*
X16299000Y-9675952D01*
X16279952Y-9685476D01*
X16260905Y-9685476D01*
X16241857Y-9675952D01*
X16232333Y-9666429D01*
X16222809Y-9647381D01*
X16213286Y-9609286D01*
X16213286Y-9561667D01*
X16222809Y-9523571D01*
X16232333Y-9504524D01*
X16241857Y-9495000D01*
X16260905Y-9485476D01*
X16451381Y-9485476D02*
X16470428Y-9485476D01*
X16489476Y-9495000D01*
X16499000Y-9504524D01*
X16508524Y-9523571D01*
X16518048Y-9561667D01*
X16518048Y-9609286D01*
X16508524Y-9647381D01*
X16499000Y-9666429D01*
X16489476Y-9675952D01*
X16470428Y-9685476D01*
X16451381Y-9685476D01*
X16432333Y-9675952D01*
X16422809Y-9666429D01*
X16413286Y-9647381D01*
X16403762Y-9609286D01*
X16403762Y-9561667D01*
X16413286Y-9523571D01*
X16422809Y-9504524D01*
X16432333Y-9495000D01*
X16451381Y-9485476D01*
X16603762Y-9685476D02*
X16603762Y-9552143D01*
X16603762Y-9571190D02*
X16613286Y-9561667D01*
X16632333Y-9552143D01*
X16660905Y-9552143D01*
X16679952Y-9561667D01*
X16689476Y-9580714D01*
X16689476Y-9685476D01*
X16689476Y-9580714D02*
X16699000Y-9561667D01*
X16718048Y-9552143D01*
X16746619Y-9552143D01*
X16765667Y-9561667D01*
X16775190Y-9580714D01*
X16775190Y-9685476D01*
X16870429Y-9685476D02*
X16870429Y-9552143D01*
X16870429Y-9571190D02*
X16879952Y-9561667D01*
X16899000Y-9552143D01*
X16927571Y-9552143D01*
X16946619Y-9561667D01*
X16956143Y-9580714D01*
X16956143Y-9685476D01*
X16956143Y-9580714D02*
X16965667Y-9561667D01*
X16984714Y-9552143D01*
X17013286Y-9552143D01*
X17032333Y-9561667D01*
X17041857Y-9580714D01*
X17041857Y-9685476D01*
X17432333Y-9475952D02*
X17260905Y-9733095D01*
X17689476Y-9485476D02*
X17708524Y-9485476D01*
X17727571Y-9495000D01*
X17737095Y-9504524D01*
X17746619Y-9523571D01*
X17756143Y-9561667D01*
X17756143Y-9609286D01*
X17746619Y-9647381D01*
X17737095Y-9666429D01*
X17727571Y-9675952D01*
X17708524Y-9685476D01*
X17689476Y-9685476D01*
X17670429Y-9675952D01*
X17660905Y-9666429D01*
X17651381Y-9647381D01*
X17641857Y-9609286D01*
X17641857Y-9561667D01*
X17651381Y-9523571D01*
X17660905Y-9504524D01*
X17670429Y-9495000D01*
X17689476Y-9485476D01*
X17841857Y-9666429D02*
X17851381Y-9675952D01*
X17841857Y-9685476D01*
X17832333Y-9675952D01*
X17841857Y-9666429D01*
X17841857Y-9685476D01*
X17975190Y-9485476D02*
X17994238Y-9485476D01*
X18013286Y-9495000D01*
X18022810Y-9504524D01*
X18032333Y-9523571D01*
X18041857Y-9561667D01*
X18041857Y-9609286D01*
X18032333Y-9647381D01*
X18022810Y-9666429D01*
X18013286Y-9675952D01*
X17994238Y-9685476D01*
X17975190Y-9685476D01*
X17956143Y-9675952D01*
X17946619Y-9666429D01*
X17937095Y-9647381D01*
X17927571Y-9609286D01*
X17927571Y-9561667D01*
X17937095Y-9523571D01*
X17946619Y-9504524D01*
X17956143Y-9495000D01*
X17975190Y-9485476D01*
X18222810Y-9485476D02*
X18127571Y-9485476D01*
X18118048Y-9580714D01*
X18127571Y-9571190D01*
X18146619Y-9561667D01*
X18194238Y-9561667D01*
X18213286Y-9571190D01*
X18222810Y-9580714D01*
X18232333Y-9599762D01*
X18232333Y-9647381D01*
X18222810Y-9666429D01*
X18213286Y-9675952D01*
X18194238Y-9685476D01*
X18146619Y-9685476D01*
X18127571Y-9675952D01*
X18118048Y-9666429D01*
X18327571Y-9685476D02*
X18365667Y-9685476D01*
X18384714Y-9675952D01*
X18394238Y-9666429D01*
X18413286Y-9637857D01*
X18422810Y-9599762D01*
X18422810Y-9523571D01*
X18413286Y-9504524D01*
X18403762Y-9495000D01*
X18384714Y-9485476D01*
X18346619Y-9485476D01*
X18327571Y-9495000D01*
X18318048Y-9504524D01*
X18308524Y-9523571D01*
X18308524Y-9571190D01*
X18318048Y-9590238D01*
X18327571Y-9599762D01*
X18346619Y-9609286D01*
X18384714Y-9609286D01*
X18403762Y-9599762D01*
X18413286Y-9590238D01*
X18422810Y-9571190D01*
X18613286Y-9685476D02*
X18499000Y-9685476D01*
X18556143Y-9685476D02*
X18556143Y-9485476D01*
X18537095Y-9514048D01*
X18518048Y-9533095D01*
X18499000Y-9542619D01*
X18689476Y-9485476D02*
X18689476Y-9523571D01*
X18765667Y-9485476D02*
X18765667Y-9523571D01*
X19060905Y-9761667D02*
X19051381Y-9752143D01*
X19032333Y-9723571D01*
X19022810Y-9704524D01*
X19013286Y-9675952D01*
X19003762Y-9628333D01*
X19003762Y-9590238D01*
X19013286Y-9542619D01*
X19022810Y-9514048D01*
X19032333Y-9495000D01*
X19051381Y-9466429D01*
X19060905Y-9456905D01*
X19241857Y-9685476D02*
X19127571Y-9685476D01*
X19184714Y-9685476D02*
X19184714Y-9485476D01*
X19165667Y-9514048D01*
X19146619Y-9533095D01*
X19127571Y-9542619D01*
X19365667Y-9485476D02*
X19384714Y-9485476D01*
X19403762Y-9495000D01*
X19413286Y-9504524D01*
X19422810Y-9523571D01*
X19432333Y-9561667D01*
X19432333Y-9609286D01*
X19422810Y-9647381D01*
X19413286Y-9666429D01*
X19403762Y-9675952D01*
X19384714Y-9685476D01*
X19365667Y-9685476D01*
X19346619Y-9675952D01*
X19337095Y-9666429D01*
X19327571Y-9647381D01*
X19318048Y-9609286D01*
X19318048Y-9561667D01*
X19327571Y-9523571D01*
X19337095Y-9504524D01*
X19346619Y-9495000D01*
X19365667Y-9485476D01*
X19670429Y-9685476D02*
X19670429Y-9485476D01*
X19756143Y-9685476D02*
X19756143Y-9580714D01*
X19746619Y-9561667D01*
X19727571Y-9552143D01*
X19699000Y-9552143D01*
X19679952Y-9561667D01*
X19670429Y-9571190D01*
X19879952Y-9685476D02*
X19860905Y-9675952D01*
X19851381Y-9666429D01*
X19841857Y-9647381D01*
X19841857Y-9590238D01*
X19851381Y-9571190D01*
X19860905Y-9561667D01*
X19879952Y-9552143D01*
X19908524Y-9552143D01*
X19927571Y-9561667D01*
X19937095Y-9571190D01*
X19946619Y-9590238D01*
X19946619Y-9647381D01*
X19937095Y-9666429D01*
X19927571Y-9675952D01*
X19908524Y-9685476D01*
X19879952Y-9685476D01*
X20060905Y-9685476D02*
X20041857Y-9675952D01*
X20032333Y-9656905D01*
X20032333Y-9485476D01*
X20213286Y-9675952D02*
X20194238Y-9685476D01*
X20156143Y-9685476D01*
X20137095Y-9675952D01*
X20127571Y-9656905D01*
X20127571Y-9580714D01*
X20137095Y-9561667D01*
X20156143Y-9552143D01*
X20194238Y-9552143D01*
X20213286Y-9561667D01*
X20222810Y-9580714D01*
X20222810Y-9599762D01*
X20127571Y-9618810D01*
X20299000Y-9675952D02*
X20318048Y-9685476D01*
X20356143Y-9685476D01*
X20375190Y-9675952D01*
X20384714Y-9656905D01*
X20384714Y-9647381D01*
X20375190Y-9628333D01*
X20356143Y-9618810D01*
X20327571Y-9618810D01*
X20308524Y-9609286D01*
X20299000Y-9590238D01*
X20299000Y-9580714D01*
X20308524Y-9561667D01*
X20327571Y-9552143D01*
X20356143Y-9552143D01*
X20375190Y-9561667D01*
X20451381Y-9761667D02*
X20460905Y-9752143D01*
X20479952Y-9723571D01*
X20489476Y-9704524D01*
X20499000Y-9675952D01*
X20508524Y-9628333D01*
X20508524Y-9590238D01*
X20499000Y-9542619D01*
X20489476Y-9514048D01*
X20479952Y-9495000D01*
X20460905Y-9466429D01*
X20451381Y-9456905D01*
M02*
