%FSLAX45Y45*%
G04 Gerber Fmt 4.5, Leading zero omitted, Abs format (unit mm)*
G04 Created by KiCad (PCBNEW (6.0.2)) date 2022-03-12 22:50:12*
%MOMM*%
%LPD*%
G01*
G04 APERTURE LIST*
%TA.AperFunction,Profile*%
%ADD10C,0.100000*%
%TD*%
%ADD11C,0.200000*%
%ADD12C,0.300000*%
%ADD13C,0.350000*%
G04 APERTURE END LIST*
D10*
X24130000Y-7366000D02*
X15494000Y-7366000D01*
X15494000Y-7366000D02*
X15494000Y-1524000D01*
X15494000Y-1524000D02*
X24130000Y-1524000D01*
X24130000Y-1524000D02*
X24130000Y-7366000D01*
D11*
D12*
X16614000Y-6454000D02*
X16914000Y-6754000D01*
X16914000Y-6454000D02*
X16614000Y-6754000D01*
X21694000Y-1882000D02*
X21994000Y-2182000D01*
X21994000Y-1882000D02*
X21694000Y-2182000D01*
X22710000Y-1882000D02*
X23010000Y-2182000D01*
X23010000Y-1882000D02*
X22710000Y-2182000D01*
X22710000Y-6454000D02*
X23010000Y-6754000D01*
X23010000Y-6454000D02*
X22710000Y-6754000D01*
D13*
X22344000Y-5401500D02*
G75*
G03*
X22344000Y-5401500I-175000J0D01*
G01*
X22344000Y-6544500D02*
G75*
G03*
X22344000Y-6544500I-175000J0D01*
G01*
D11*
X15746619Y-7681476D02*
X15746619Y-7481476D01*
X15794238Y-7481476D01*
X15822809Y-7491000D01*
X15841857Y-7510048D01*
X15851381Y-7529095D01*
X15860905Y-7567190D01*
X15860905Y-7595762D01*
X15851381Y-7633857D01*
X15841857Y-7652905D01*
X15822809Y-7671952D01*
X15794238Y-7681476D01*
X15746619Y-7681476D01*
X15946619Y-7681476D02*
X15946619Y-7548143D01*
X15946619Y-7586238D02*
X15956143Y-7567190D01*
X15965667Y-7557667D01*
X15984714Y-7548143D01*
X16003762Y-7548143D01*
X16070428Y-7681476D02*
X16070428Y-7548143D01*
X16070428Y-7481476D02*
X16060905Y-7491000D01*
X16070428Y-7500524D01*
X16079952Y-7491000D01*
X16070428Y-7481476D01*
X16070428Y-7500524D01*
X16194238Y-7681476D02*
X16175190Y-7671952D01*
X16165667Y-7652905D01*
X16165667Y-7481476D01*
X16299000Y-7681476D02*
X16279952Y-7671952D01*
X16270428Y-7652905D01*
X16270428Y-7481476D01*
X16527571Y-7681476D02*
X16527571Y-7481476D01*
X16594238Y-7624333D01*
X16660905Y-7481476D01*
X16660905Y-7681476D01*
X16841857Y-7681476D02*
X16841857Y-7576714D01*
X16832333Y-7557667D01*
X16813286Y-7548143D01*
X16775190Y-7548143D01*
X16756143Y-7557667D01*
X16841857Y-7671952D02*
X16822810Y-7681476D01*
X16775190Y-7681476D01*
X16756143Y-7671952D01*
X16746619Y-7652905D01*
X16746619Y-7633857D01*
X16756143Y-7614809D01*
X16775190Y-7605286D01*
X16822810Y-7605286D01*
X16841857Y-7595762D01*
X16937095Y-7548143D02*
X16937095Y-7748143D01*
X16937095Y-7557667D02*
X16956143Y-7548143D01*
X16994238Y-7548143D01*
X17013286Y-7557667D01*
X17022810Y-7567190D01*
X17032333Y-7586238D01*
X17032333Y-7643381D01*
X17022810Y-7662428D01*
X17013286Y-7671952D01*
X16994238Y-7681476D01*
X16956143Y-7681476D01*
X16937095Y-7671952D01*
X17118048Y-7662428D02*
X17127571Y-7671952D01*
X17118048Y-7681476D01*
X17108524Y-7671952D01*
X17118048Y-7662428D01*
X17118048Y-7681476D01*
X17118048Y-7557667D02*
X17127571Y-7567190D01*
X17118048Y-7576714D01*
X17108524Y-7567190D01*
X17118048Y-7557667D01*
X17118048Y-7576714D01*
X15289000Y-7911000D02*
X15489000Y-8111000D01*
X15489000Y-7911000D02*
X15289000Y-8111000D01*
X15727571Y-7901476D02*
X15851381Y-7901476D01*
X15784714Y-7977667D01*
X15813286Y-7977667D01*
X15832333Y-7987190D01*
X15841857Y-7996714D01*
X15851381Y-8015762D01*
X15851381Y-8063381D01*
X15841857Y-8082428D01*
X15832333Y-8091952D01*
X15813286Y-8101476D01*
X15756143Y-8101476D01*
X15737095Y-8091952D01*
X15727571Y-8082428D01*
X15937095Y-8082428D02*
X15946619Y-8091952D01*
X15937095Y-8101476D01*
X15927571Y-8091952D01*
X15937095Y-8082428D01*
X15937095Y-8101476D01*
X16070428Y-7901476D02*
X16089476Y-7901476D01*
X16108524Y-7911000D01*
X16118048Y-7920524D01*
X16127571Y-7939571D01*
X16137095Y-7977667D01*
X16137095Y-8025286D01*
X16127571Y-8063381D01*
X16118048Y-8082428D01*
X16108524Y-8091952D01*
X16089476Y-8101476D01*
X16070428Y-8101476D01*
X16051381Y-8091952D01*
X16041857Y-8082428D01*
X16032333Y-8063381D01*
X16022809Y-8025286D01*
X16022809Y-7977667D01*
X16032333Y-7939571D01*
X16041857Y-7920524D01*
X16051381Y-7911000D01*
X16070428Y-7901476D01*
X16260905Y-7901476D02*
X16279952Y-7901476D01*
X16299000Y-7911000D01*
X16308524Y-7920524D01*
X16318048Y-7939571D01*
X16327571Y-7977667D01*
X16327571Y-8025286D01*
X16318048Y-8063381D01*
X16308524Y-8082428D01*
X16299000Y-8091952D01*
X16279952Y-8101476D01*
X16260905Y-8101476D01*
X16241857Y-8091952D01*
X16232333Y-8082428D01*
X16222809Y-8063381D01*
X16213286Y-8025286D01*
X16213286Y-7977667D01*
X16222809Y-7939571D01*
X16232333Y-7920524D01*
X16241857Y-7911000D01*
X16260905Y-7901476D01*
X16451381Y-7901476D02*
X16470428Y-7901476D01*
X16489476Y-7911000D01*
X16499000Y-7920524D01*
X16508524Y-7939571D01*
X16518048Y-7977667D01*
X16518048Y-8025286D01*
X16508524Y-8063381D01*
X16499000Y-8082428D01*
X16489476Y-8091952D01*
X16470428Y-8101476D01*
X16451381Y-8101476D01*
X16432333Y-8091952D01*
X16422809Y-8082428D01*
X16413286Y-8063381D01*
X16403762Y-8025286D01*
X16403762Y-7977667D01*
X16413286Y-7939571D01*
X16422809Y-7920524D01*
X16432333Y-7911000D01*
X16451381Y-7901476D01*
X16603762Y-8101476D02*
X16603762Y-7968143D01*
X16603762Y-7987190D02*
X16613286Y-7977667D01*
X16632333Y-7968143D01*
X16660905Y-7968143D01*
X16679952Y-7977667D01*
X16689476Y-7996714D01*
X16689476Y-8101476D01*
X16689476Y-7996714D02*
X16699000Y-7977667D01*
X16718048Y-7968143D01*
X16746619Y-7968143D01*
X16765667Y-7977667D01*
X16775190Y-7996714D01*
X16775190Y-8101476D01*
X16870429Y-8101476D02*
X16870429Y-7968143D01*
X16870429Y-7987190D02*
X16879952Y-7977667D01*
X16899000Y-7968143D01*
X16927571Y-7968143D01*
X16946619Y-7977667D01*
X16956143Y-7996714D01*
X16956143Y-8101476D01*
X16956143Y-7996714D02*
X16965667Y-7977667D01*
X16984714Y-7968143D01*
X17013286Y-7968143D01*
X17032333Y-7977667D01*
X17041857Y-7996714D01*
X17041857Y-8101476D01*
X17432333Y-7891952D02*
X17260905Y-8149095D01*
X17689476Y-7901476D02*
X17708524Y-7901476D01*
X17727571Y-7911000D01*
X17737095Y-7920524D01*
X17746619Y-7939571D01*
X17756143Y-7977667D01*
X17756143Y-8025286D01*
X17746619Y-8063381D01*
X17737095Y-8082428D01*
X17727571Y-8091952D01*
X17708524Y-8101476D01*
X17689476Y-8101476D01*
X17670429Y-8091952D01*
X17660905Y-8082428D01*
X17651381Y-8063381D01*
X17641857Y-8025286D01*
X17641857Y-7977667D01*
X17651381Y-7939571D01*
X17660905Y-7920524D01*
X17670429Y-7911000D01*
X17689476Y-7901476D01*
X17841857Y-8082428D02*
X17851381Y-8091952D01*
X17841857Y-8101476D01*
X17832333Y-8091952D01*
X17841857Y-8082428D01*
X17841857Y-8101476D01*
X18041857Y-8101476D02*
X17927571Y-8101476D01*
X17984714Y-8101476D02*
X17984714Y-7901476D01*
X17965667Y-7930048D01*
X17946619Y-7949095D01*
X17927571Y-7958619D01*
X18232333Y-8101476D02*
X18118048Y-8101476D01*
X18175190Y-8101476D02*
X18175190Y-7901476D01*
X18156143Y-7930048D01*
X18137095Y-7949095D01*
X18118048Y-7958619D01*
X18346619Y-7987190D02*
X18327571Y-7977667D01*
X18318048Y-7968143D01*
X18308524Y-7949095D01*
X18308524Y-7939571D01*
X18318048Y-7920524D01*
X18327571Y-7911000D01*
X18346619Y-7901476D01*
X18384714Y-7901476D01*
X18403762Y-7911000D01*
X18413286Y-7920524D01*
X18422810Y-7939571D01*
X18422810Y-7949095D01*
X18413286Y-7968143D01*
X18403762Y-7977667D01*
X18384714Y-7987190D01*
X18346619Y-7987190D01*
X18327571Y-7996714D01*
X18318048Y-8006238D01*
X18308524Y-8025286D01*
X18308524Y-8063381D01*
X18318048Y-8082428D01*
X18327571Y-8091952D01*
X18346619Y-8101476D01*
X18384714Y-8101476D01*
X18403762Y-8091952D01*
X18413286Y-8082428D01*
X18422810Y-8063381D01*
X18422810Y-8025286D01*
X18413286Y-8006238D01*
X18403762Y-7996714D01*
X18384714Y-7987190D01*
X18613286Y-8101476D02*
X18499000Y-8101476D01*
X18556143Y-8101476D02*
X18556143Y-7901476D01*
X18537095Y-7930048D01*
X18518048Y-7949095D01*
X18499000Y-7958619D01*
X18689476Y-7901476D02*
X18689476Y-7939571D01*
X18765667Y-7901476D02*
X18765667Y-7939571D01*
X19060905Y-8177667D02*
X19051381Y-8168143D01*
X19032333Y-8139571D01*
X19022810Y-8120524D01*
X19013286Y-8091952D01*
X19003762Y-8044333D01*
X19003762Y-8006238D01*
X19013286Y-7958619D01*
X19022810Y-7930048D01*
X19032333Y-7911000D01*
X19051381Y-7882428D01*
X19060905Y-7872905D01*
X19222810Y-7968143D02*
X19222810Y-8101476D01*
X19175190Y-7891952D02*
X19127571Y-8034809D01*
X19251381Y-8034809D01*
X19479952Y-8101476D02*
X19479952Y-7901476D01*
X19565667Y-8101476D02*
X19565667Y-7996714D01*
X19556143Y-7977667D01*
X19537095Y-7968143D01*
X19508524Y-7968143D01*
X19489476Y-7977667D01*
X19479952Y-7987190D01*
X19689476Y-8101476D02*
X19670429Y-8091952D01*
X19660905Y-8082428D01*
X19651381Y-8063381D01*
X19651381Y-8006238D01*
X19660905Y-7987190D01*
X19670429Y-7977667D01*
X19689476Y-7968143D01*
X19718048Y-7968143D01*
X19737095Y-7977667D01*
X19746619Y-7987190D01*
X19756143Y-8006238D01*
X19756143Y-8063381D01*
X19746619Y-8082428D01*
X19737095Y-8091952D01*
X19718048Y-8101476D01*
X19689476Y-8101476D01*
X19870429Y-8101476D02*
X19851381Y-8091952D01*
X19841857Y-8072905D01*
X19841857Y-7901476D01*
X20022810Y-8091952D02*
X20003762Y-8101476D01*
X19965667Y-8101476D01*
X19946619Y-8091952D01*
X19937095Y-8072905D01*
X19937095Y-7996714D01*
X19946619Y-7977667D01*
X19965667Y-7968143D01*
X20003762Y-7968143D01*
X20022810Y-7977667D01*
X20032333Y-7996714D01*
X20032333Y-8015762D01*
X19937095Y-8034809D01*
X20108524Y-8091952D02*
X20127571Y-8101476D01*
X20165667Y-8101476D01*
X20184714Y-8091952D01*
X20194238Y-8072905D01*
X20194238Y-8063381D01*
X20184714Y-8044333D01*
X20165667Y-8034809D01*
X20137095Y-8034809D01*
X20118048Y-8025286D01*
X20108524Y-8006238D01*
X20108524Y-7996714D01*
X20118048Y-7977667D01*
X20137095Y-7968143D01*
X20165667Y-7968143D01*
X20184714Y-7977667D01*
X20260905Y-8177667D02*
X20270429Y-8168143D01*
X20289476Y-8139571D01*
X20299000Y-8120524D01*
X20308524Y-8091952D01*
X20318048Y-8044333D01*
X20318048Y-8006238D01*
X20308524Y-7958619D01*
X20299000Y-7930048D01*
X20289476Y-7911000D01*
X20270429Y-7882428D01*
X20260905Y-7872905D01*
X20622810Y-8177667D02*
X20613286Y-8168143D01*
X20594238Y-8139571D01*
X20584714Y-8120524D01*
X20575190Y-8091952D01*
X20565667Y-8044333D01*
X20565667Y-8006238D01*
X20575190Y-7958619D01*
X20584714Y-7930048D01*
X20594238Y-7911000D01*
X20613286Y-7882428D01*
X20622810Y-7872905D01*
X20699000Y-7968143D02*
X20699000Y-8101476D01*
X20699000Y-7987190D02*
X20708524Y-7977667D01*
X20727571Y-7968143D01*
X20756143Y-7968143D01*
X20775190Y-7977667D01*
X20784714Y-7996714D01*
X20784714Y-8101476D01*
X20908524Y-8101476D02*
X20889476Y-8091952D01*
X20879952Y-8082428D01*
X20870429Y-8063381D01*
X20870429Y-8006238D01*
X20879952Y-7987190D01*
X20889476Y-7977667D01*
X20908524Y-7968143D01*
X20937095Y-7968143D01*
X20956143Y-7977667D01*
X20965667Y-7987190D01*
X20975190Y-8006238D01*
X20975190Y-8063381D01*
X20965667Y-8082428D01*
X20956143Y-8091952D01*
X20937095Y-8101476D01*
X20908524Y-8101476D01*
X21032333Y-7968143D02*
X21108524Y-7968143D01*
X21060905Y-7901476D02*
X21060905Y-8072905D01*
X21070429Y-8091952D01*
X21089476Y-8101476D01*
X21108524Y-8101476D01*
X21327571Y-7968143D02*
X21327571Y-8168143D01*
X21327571Y-7977667D02*
X21346619Y-7968143D01*
X21384714Y-7968143D01*
X21403762Y-7977667D01*
X21413286Y-7987190D01*
X21422810Y-8006238D01*
X21422810Y-8063381D01*
X21413286Y-8082428D01*
X21403762Y-8091952D01*
X21384714Y-8101476D01*
X21346619Y-8101476D01*
X21327571Y-8091952D01*
X21537095Y-8101476D02*
X21518048Y-8091952D01*
X21508524Y-8072905D01*
X21508524Y-7901476D01*
X21699000Y-8101476D02*
X21699000Y-7996714D01*
X21689476Y-7977667D01*
X21670429Y-7968143D01*
X21632333Y-7968143D01*
X21613286Y-7977667D01*
X21699000Y-8091952D02*
X21679952Y-8101476D01*
X21632333Y-8101476D01*
X21613286Y-8091952D01*
X21603762Y-8072905D01*
X21603762Y-8053857D01*
X21613286Y-8034809D01*
X21632333Y-8025286D01*
X21679952Y-8025286D01*
X21699000Y-8015762D01*
X21765667Y-7968143D02*
X21841857Y-7968143D01*
X21794238Y-7901476D02*
X21794238Y-8072905D01*
X21803762Y-8091952D01*
X21822810Y-8101476D01*
X21841857Y-8101476D01*
X21984714Y-8091952D02*
X21965667Y-8101476D01*
X21927571Y-8101476D01*
X21908524Y-8091952D01*
X21899000Y-8072905D01*
X21899000Y-7996714D01*
X21908524Y-7977667D01*
X21927571Y-7968143D01*
X21965667Y-7968143D01*
X21984714Y-7977667D01*
X21994238Y-7996714D01*
X21994238Y-8015762D01*
X21899000Y-8034809D01*
X22165667Y-8101476D02*
X22165667Y-7901476D01*
X22165667Y-8091952D02*
X22146619Y-8101476D01*
X22108524Y-8101476D01*
X22089476Y-8091952D01*
X22079952Y-8082428D01*
X22070429Y-8063381D01*
X22070429Y-8006238D01*
X22079952Y-7987190D01*
X22089476Y-7977667D01*
X22108524Y-7968143D01*
X22146619Y-7968143D01*
X22165667Y-7977667D01*
X22241857Y-8177667D02*
X22251381Y-8168143D01*
X22270429Y-8139571D01*
X22279952Y-8120524D01*
X22289476Y-8091952D01*
X22299000Y-8044333D01*
X22299000Y-8006238D01*
X22289476Y-7958619D01*
X22279952Y-7930048D01*
X22270429Y-7911000D01*
X22251381Y-7882428D01*
X22241857Y-7872905D01*
X15489000Y-8331000D02*
G75*
G03*
X15489000Y-8331000I-100000J0D01*
G01*
X15727571Y-8221476D02*
X15851381Y-8221476D01*
X15784714Y-8297667D01*
X15813286Y-8297667D01*
X15832333Y-8307190D01*
X15841857Y-8316714D01*
X15851381Y-8335762D01*
X15851381Y-8383381D01*
X15841857Y-8402429D01*
X15832333Y-8411952D01*
X15813286Y-8421476D01*
X15756143Y-8421476D01*
X15737095Y-8411952D01*
X15727571Y-8402429D01*
X15937095Y-8402429D02*
X15946619Y-8411952D01*
X15937095Y-8421476D01*
X15927571Y-8411952D01*
X15937095Y-8402429D01*
X15937095Y-8421476D01*
X16127571Y-8221476D02*
X16032333Y-8221476D01*
X16022809Y-8316714D01*
X16032333Y-8307190D01*
X16051381Y-8297667D01*
X16099000Y-8297667D01*
X16118048Y-8307190D01*
X16127571Y-8316714D01*
X16137095Y-8335762D01*
X16137095Y-8383381D01*
X16127571Y-8402429D01*
X16118048Y-8411952D01*
X16099000Y-8421476D01*
X16051381Y-8421476D01*
X16032333Y-8411952D01*
X16022809Y-8402429D01*
X16260905Y-8221476D02*
X16279952Y-8221476D01*
X16299000Y-8231000D01*
X16308524Y-8240524D01*
X16318048Y-8259571D01*
X16327571Y-8297667D01*
X16327571Y-8345286D01*
X16318048Y-8383381D01*
X16308524Y-8402429D01*
X16299000Y-8411952D01*
X16279952Y-8421476D01*
X16260905Y-8421476D01*
X16241857Y-8411952D01*
X16232333Y-8402429D01*
X16222809Y-8383381D01*
X16213286Y-8345286D01*
X16213286Y-8297667D01*
X16222809Y-8259571D01*
X16232333Y-8240524D01*
X16241857Y-8231000D01*
X16260905Y-8221476D01*
X16451381Y-8221476D02*
X16470428Y-8221476D01*
X16489476Y-8231000D01*
X16499000Y-8240524D01*
X16508524Y-8259571D01*
X16518048Y-8297667D01*
X16518048Y-8345286D01*
X16508524Y-8383381D01*
X16499000Y-8402429D01*
X16489476Y-8411952D01*
X16470428Y-8421476D01*
X16451381Y-8421476D01*
X16432333Y-8411952D01*
X16422809Y-8402429D01*
X16413286Y-8383381D01*
X16403762Y-8345286D01*
X16403762Y-8297667D01*
X16413286Y-8259571D01*
X16422809Y-8240524D01*
X16432333Y-8231000D01*
X16451381Y-8221476D01*
X16603762Y-8421476D02*
X16603762Y-8288143D01*
X16603762Y-8307190D02*
X16613286Y-8297667D01*
X16632333Y-8288143D01*
X16660905Y-8288143D01*
X16679952Y-8297667D01*
X16689476Y-8316714D01*
X16689476Y-8421476D01*
X16689476Y-8316714D02*
X16699000Y-8297667D01*
X16718048Y-8288143D01*
X16746619Y-8288143D01*
X16765667Y-8297667D01*
X16775190Y-8316714D01*
X16775190Y-8421476D01*
X16870429Y-8421476D02*
X16870429Y-8288143D01*
X16870429Y-8307190D02*
X16879952Y-8297667D01*
X16899000Y-8288143D01*
X16927571Y-8288143D01*
X16946619Y-8297667D01*
X16956143Y-8316714D01*
X16956143Y-8421476D01*
X16956143Y-8316714D02*
X16965667Y-8297667D01*
X16984714Y-8288143D01*
X17013286Y-8288143D01*
X17032333Y-8297667D01*
X17041857Y-8316714D01*
X17041857Y-8421476D01*
X17432333Y-8211952D02*
X17260905Y-8469095D01*
X17689476Y-8221476D02*
X17708524Y-8221476D01*
X17727571Y-8231000D01*
X17737095Y-8240524D01*
X17746619Y-8259571D01*
X17756143Y-8297667D01*
X17756143Y-8345286D01*
X17746619Y-8383381D01*
X17737095Y-8402429D01*
X17727571Y-8411952D01*
X17708524Y-8421476D01*
X17689476Y-8421476D01*
X17670429Y-8411952D01*
X17660905Y-8402429D01*
X17651381Y-8383381D01*
X17641857Y-8345286D01*
X17641857Y-8297667D01*
X17651381Y-8259571D01*
X17660905Y-8240524D01*
X17670429Y-8231000D01*
X17689476Y-8221476D01*
X17841857Y-8402429D02*
X17851381Y-8411952D01*
X17841857Y-8421476D01*
X17832333Y-8411952D01*
X17841857Y-8402429D01*
X17841857Y-8421476D01*
X18041857Y-8421476D02*
X17927571Y-8421476D01*
X17984714Y-8421476D02*
X17984714Y-8221476D01*
X17965667Y-8250048D01*
X17946619Y-8269095D01*
X17927571Y-8278619D01*
X18108524Y-8221476D02*
X18232333Y-8221476D01*
X18165667Y-8297667D01*
X18194238Y-8297667D01*
X18213286Y-8307190D01*
X18222810Y-8316714D01*
X18232333Y-8335762D01*
X18232333Y-8383381D01*
X18222810Y-8402429D01*
X18213286Y-8411952D01*
X18194238Y-8421476D01*
X18137095Y-8421476D01*
X18118048Y-8411952D01*
X18108524Y-8402429D01*
X18299000Y-8221476D02*
X18432333Y-8221476D01*
X18346619Y-8421476D01*
X18537095Y-8307190D02*
X18518048Y-8297667D01*
X18508524Y-8288143D01*
X18499000Y-8269095D01*
X18499000Y-8259571D01*
X18508524Y-8240524D01*
X18518048Y-8231000D01*
X18537095Y-8221476D01*
X18575190Y-8221476D01*
X18594238Y-8231000D01*
X18603762Y-8240524D01*
X18613286Y-8259571D01*
X18613286Y-8269095D01*
X18603762Y-8288143D01*
X18594238Y-8297667D01*
X18575190Y-8307190D01*
X18537095Y-8307190D01*
X18518048Y-8316714D01*
X18508524Y-8326238D01*
X18499000Y-8345286D01*
X18499000Y-8383381D01*
X18508524Y-8402429D01*
X18518048Y-8411952D01*
X18537095Y-8421476D01*
X18575190Y-8421476D01*
X18594238Y-8411952D01*
X18603762Y-8402429D01*
X18613286Y-8383381D01*
X18613286Y-8345286D01*
X18603762Y-8326238D01*
X18594238Y-8316714D01*
X18575190Y-8307190D01*
X18689476Y-8221476D02*
X18689476Y-8259571D01*
X18765667Y-8221476D02*
X18765667Y-8259571D01*
X19060905Y-8497667D02*
X19051381Y-8488143D01*
X19032333Y-8459571D01*
X19022810Y-8440524D01*
X19013286Y-8411952D01*
X19003762Y-8364333D01*
X19003762Y-8326238D01*
X19013286Y-8278619D01*
X19022810Y-8250048D01*
X19032333Y-8231000D01*
X19051381Y-8202428D01*
X19060905Y-8192905D01*
X19127571Y-8240524D02*
X19137095Y-8231000D01*
X19156143Y-8221476D01*
X19203762Y-8221476D01*
X19222810Y-8231000D01*
X19232333Y-8240524D01*
X19241857Y-8259571D01*
X19241857Y-8278619D01*
X19232333Y-8307190D01*
X19118048Y-8421476D01*
X19241857Y-8421476D01*
X19479952Y-8421476D02*
X19479952Y-8221476D01*
X19565667Y-8421476D02*
X19565667Y-8316714D01*
X19556143Y-8297667D01*
X19537095Y-8288143D01*
X19508524Y-8288143D01*
X19489476Y-8297667D01*
X19479952Y-8307190D01*
X19689476Y-8421476D02*
X19670429Y-8411952D01*
X19660905Y-8402429D01*
X19651381Y-8383381D01*
X19651381Y-8326238D01*
X19660905Y-8307190D01*
X19670429Y-8297667D01*
X19689476Y-8288143D01*
X19718048Y-8288143D01*
X19737095Y-8297667D01*
X19746619Y-8307190D01*
X19756143Y-8326238D01*
X19756143Y-8383381D01*
X19746619Y-8402429D01*
X19737095Y-8411952D01*
X19718048Y-8421476D01*
X19689476Y-8421476D01*
X19870429Y-8421476D02*
X19851381Y-8411952D01*
X19841857Y-8392905D01*
X19841857Y-8221476D01*
X20022810Y-8411952D02*
X20003762Y-8421476D01*
X19965667Y-8421476D01*
X19946619Y-8411952D01*
X19937095Y-8392905D01*
X19937095Y-8316714D01*
X19946619Y-8297667D01*
X19965667Y-8288143D01*
X20003762Y-8288143D01*
X20022810Y-8297667D01*
X20032333Y-8316714D01*
X20032333Y-8335762D01*
X19937095Y-8354809D01*
X20108524Y-8411952D02*
X20127571Y-8421476D01*
X20165667Y-8421476D01*
X20184714Y-8411952D01*
X20194238Y-8392905D01*
X20194238Y-8383381D01*
X20184714Y-8364333D01*
X20165667Y-8354809D01*
X20137095Y-8354809D01*
X20118048Y-8345286D01*
X20108524Y-8326238D01*
X20108524Y-8316714D01*
X20118048Y-8297667D01*
X20137095Y-8288143D01*
X20165667Y-8288143D01*
X20184714Y-8297667D01*
X20260905Y-8497667D02*
X20270429Y-8488143D01*
X20289476Y-8459571D01*
X20299000Y-8440524D01*
X20308524Y-8411952D01*
X20318048Y-8364333D01*
X20318048Y-8326238D01*
X20308524Y-8278619D01*
X20299000Y-8250048D01*
X20289476Y-8231000D01*
X20270429Y-8202428D01*
X20260905Y-8192905D01*
X20622810Y-8497667D02*
X20613286Y-8488143D01*
X20594238Y-8459571D01*
X20584714Y-8440524D01*
X20575190Y-8411952D01*
X20565667Y-8364333D01*
X20565667Y-8326238D01*
X20575190Y-8278619D01*
X20584714Y-8250048D01*
X20594238Y-8231000D01*
X20613286Y-8202428D01*
X20622810Y-8192905D01*
X20699000Y-8288143D02*
X20699000Y-8421476D01*
X20699000Y-8307190D02*
X20708524Y-8297667D01*
X20727571Y-8288143D01*
X20756143Y-8288143D01*
X20775190Y-8297667D01*
X20784714Y-8316714D01*
X20784714Y-8421476D01*
X20908524Y-8421476D02*
X20889476Y-8411952D01*
X20879952Y-8402429D01*
X20870429Y-8383381D01*
X20870429Y-8326238D01*
X20879952Y-8307190D01*
X20889476Y-8297667D01*
X20908524Y-8288143D01*
X20937095Y-8288143D01*
X20956143Y-8297667D01*
X20965667Y-8307190D01*
X20975190Y-8326238D01*
X20975190Y-8383381D01*
X20965667Y-8402429D01*
X20956143Y-8411952D01*
X20937095Y-8421476D01*
X20908524Y-8421476D01*
X21032333Y-8288143D02*
X21108524Y-8288143D01*
X21060905Y-8221476D02*
X21060905Y-8392905D01*
X21070429Y-8411952D01*
X21089476Y-8421476D01*
X21108524Y-8421476D01*
X21327571Y-8288143D02*
X21327571Y-8488143D01*
X21327571Y-8297667D02*
X21346619Y-8288143D01*
X21384714Y-8288143D01*
X21403762Y-8297667D01*
X21413286Y-8307190D01*
X21422810Y-8326238D01*
X21422810Y-8383381D01*
X21413286Y-8402429D01*
X21403762Y-8411952D01*
X21384714Y-8421476D01*
X21346619Y-8421476D01*
X21327571Y-8411952D01*
X21537095Y-8421476D02*
X21518048Y-8411952D01*
X21508524Y-8392905D01*
X21508524Y-8221476D01*
X21699000Y-8421476D02*
X21699000Y-8316714D01*
X21689476Y-8297667D01*
X21670429Y-8288143D01*
X21632333Y-8288143D01*
X21613286Y-8297667D01*
X21699000Y-8411952D02*
X21679952Y-8421476D01*
X21632333Y-8421476D01*
X21613286Y-8411952D01*
X21603762Y-8392905D01*
X21603762Y-8373857D01*
X21613286Y-8354809D01*
X21632333Y-8345286D01*
X21679952Y-8345286D01*
X21699000Y-8335762D01*
X21765667Y-8288143D02*
X21841857Y-8288143D01*
X21794238Y-8221476D02*
X21794238Y-8392905D01*
X21803762Y-8411952D01*
X21822810Y-8421476D01*
X21841857Y-8421476D01*
X21984714Y-8411952D02*
X21965667Y-8421476D01*
X21927571Y-8421476D01*
X21908524Y-8411952D01*
X21899000Y-8392905D01*
X21899000Y-8316714D01*
X21908524Y-8297667D01*
X21927571Y-8288143D01*
X21965667Y-8288143D01*
X21984714Y-8297667D01*
X21994238Y-8316714D01*
X21994238Y-8335762D01*
X21899000Y-8354809D01*
X22165667Y-8421476D02*
X22165667Y-8221476D01*
X22165667Y-8411952D02*
X22146619Y-8421476D01*
X22108524Y-8421476D01*
X22089476Y-8411952D01*
X22079952Y-8402429D01*
X22070429Y-8383381D01*
X22070429Y-8326238D01*
X22079952Y-8307190D01*
X22089476Y-8297667D01*
X22108524Y-8288143D01*
X22146619Y-8288143D01*
X22165667Y-8297667D01*
X22241857Y-8497667D02*
X22251381Y-8488143D01*
X22270429Y-8459571D01*
X22279952Y-8440524D01*
X22289476Y-8411952D01*
X22299000Y-8364333D01*
X22299000Y-8326238D01*
X22289476Y-8278619D01*
X22279952Y-8250048D01*
X22270429Y-8231000D01*
X22251381Y-8202428D01*
X22241857Y-8192905D01*
M02*
